{"glyphs":{"0":{"ha":-185,"x_min":0,"x_max":0,"o":"m 529 -136 b 1024 472 860 -136 1024 135 b 529 1076 1024 807 860 1076 b 33 472 199 1076 33 807 b 529 -136 33 135 199 -136 z m 506 254 b 457 472 472 319 457 397 b 506 689 457 546 472 624 b 556 660 526 728 576 703 b 514 472 525 599 514 528 b 556 282 514 414 525 344 b 506 254 576 240 526 215 z "},"1":{"ha":-597,"x_min":0,"x_max":0,"o":"m 188 657 b 188 11 178 489 178 204 b 382 -125 193 -83 286 -125 b 578 11 479 -125 572 -83 b 578 904 589 265 590 650 b 375 1063 572 1011 485 1063 b 142 1032 293 1063 203 1053 b 24 824 65 1004 4 936 b 161 699 42 739 89 693 b 293 717 204 701 253 707 b 301 681 328 722 328 688 b 188 657 271 671 224 663 z "},"2":{"ha":-219,"x_min":0,"x_max":0,"o":"m 731 385 b 971 735 847 439 971 542 b 529 1076 971 936 793 1076 b 58 835 315 1076 131 1001 b 131 574 18 738 46 624 b 335 553 189 539 269 529 b 451 646 381 568 418 607 l 506 710 b 543 685 525 732 560 706 l 521 658 b 42 99 371 482 57 300 b 246 -124 29 -28 129 -110 b 788 -122 400 -140 633 -139 b 999 114 918 -108 999 -21 b 768 346 999 253 908 346 b 514 188 643 346 563 276 b 474 204 499 158 457 172 b 731 385 517 297 604 364 z "},"3":{"ha":-214,"x_min":0,"x_max":0,"o":"m 774 549 b 968 786 900 585 968 681 b 513 1078 968 957 785 1078 b 58 794 307 1078 58 994 b 303 594 58 681 156 594 b 529 711 399 594 492 636 b 563 693 543 738 578 721 b 313 564 528 628 451 564 l 257 564 b 257 446 201 564 201 446 l 294 446 b 560 228 447 446 553 347 b 519 226 561 200 521 197 b 276 414 513 350 400 414 b 31 201 143 414 31 344 b 513 -135 36 14 228 -135 b 996 249 801 -135 996 18 b 774 549 996 396 917 504 z "},"4":{"ha":-171,"x_min":0,"x_max":0,"o":"m 447 65 b 194 85 361 61 281 68 b 31 281 104 104 31 172 b 93 456 31 350 61 411 b 519 965 210 614 372 807 b 757 1069 574 1022 660 1069 b 957 882 869 1069 940 997 b 896 633 972 772 946 694 b 513 515 739 661 611 613 b 540 490 497 501 524 475 b 806 604 614 561 708 604 b 1063 353 986 604 1063 471 b 815 100 1063 214 944 114 b 817 72 786 97 792 71 b 953 111 854 75 903 85 b 704 -137 989 -12 888 -137 b 447 65 521 -137 419 -40 z "},"5":{"ha":-194,"x_min":0,"x_max":0,"o":"m 138 446 b 293 479 185 469 235 479 b 500 407 371 479 447 458 b 574 271 538 369 571 307 b 526 265 576 240 533 239 b 453 381 518 290 510 333 b 288 440 410 419 350 440 b 115 376 228 440 165 422 b 163 -39 21 290 -3 88 b 514 -136 239 -97 367 -136 b 1007 283 758 -136 1007 -17 b 535 707 1007 694 626 704 b 540 749 507 708 506 749 b 831 689 643 747 735 732 b 918 726 864 674 901 686 b 925 968 949 804 950 913 b 738 1065 896 1033 846 1058 b 282 1064 586 1076 426 1076 b 114 925 192 1056 138 1013 b 78 588 86 829 72 701 b 138 446 83 506 99 461 z "},"6":{"ha":-176,"x_min":0,"x_max":0,"o":"m 324 622 b 631 750 381 682 490 750 b 699 899 675 786 696 840 b 456 1067 704 1004 597 1067 b 129 854 292 1067 182 978 b 33 306 74 719 33 521 b 528 -137 33 57 214 -137 b 1038 290 857 -137 1038 56 b 649 710 1038 536 879 708 b 351 592 521 711 421 660 b 324 622 333 574 301 603 z m 538 169 b 507 294 515 210 507 251 b 538 418 507 338 515 378 b 588 403 551 443 604 426 b 560 294 567 368 560 329 b 588 186 560 261 567 219 b 538 169 604 161 551 146 z "},"7":{"ha":-253,"x_min":0,"x_max":0,"o":"m 463 638 b 544 838 485 714 513 781 b 575 826 554 857 582 844 b 429 58 481 621 415 333 b 588 -124 433 -57 493 -124 b 785 11 686 -124 742 -82 b 950 824 875 213 943 574 b 758 1057 953 960 889 1031 b 204 1019 590 1092 335 1079 b 14 750 104 975 15 893 b 186 532 13 651 65 563 b 463 638 315 497 406 549 z "},"8":{"ha":-171,"x_min":0,"x_max":0,"o":"m 182 485 b 26 219 82 439 26 331 b 536 -135 26 3 219 -133 b 1046 219 851 -135 1046 3 b 892 485 1046 331 990 439 b 1001 735 954 522 1001 603 b 536 1076 1001 904 851 1076 b 71 735 219 1075 71 904 b 182 485 71 603 118 522 z m 493 636 b 543 828 526 703 539 760 b 590 819 544 851 590 851 b 542 621 588 751 579 675 b 493 636 522 594 482 615 z m 493 132 b 543 324 526 197 539 256 b 590 314 544 347 590 347 b 542 117 588 246 579 169 b 493 132 522 90 482 110 z "},"9":{"ha":-172,"x_min":0,"x_max":0,"o":"m 440 190 b 367 42 399 151 369 99 b 611 -136 363 -65 463 -136 b 942 85 779 -136 890 -39 b 1038 581 999 218 1038 418 b 544 1076 1038 882 857 1076 b 33 624 214 1076 33 875 b 422 229 33 404 204 231 b 719 347 550 228 650 279 b 749 315 739 365 769 338 b 440 190 692 258 581 190 z m 476 535 b 446 657 454 574 446 615 b 476 782 446 701 454 742 b 526 767 490 806 543 790 b 497 657 506 732 497 692 b 526 550 497 624 506 583 b 476 535 543 525 490 510 z "},"\u0000":{"ha":-924,"x_min":0,"x_max":0,"o":""},"\u0001":{"ha":-924,"x_min":0,"x_max":0,"o":""},"\u0002":{"ha":-924,"x_min":0,"x_max":0,"o":""},"\u0003":{"ha":-924,"x_min":0,"x_max":0,"o":""},"\u0004":{"ha":-924,"x_min":0,"x_max":0,"o":""},"\u0005":{"ha":-924,"x_min":0,"x_max":0,"o":""},"\u0006":{"ha":-924,"x_min":0,"x_max":0,"o":""},"\u0007":{"ha":-924,"x_min":0,"x_max":0,"o":""},"\b":{"ha":-924,"x_min":0,"x_max":0,"o":""},"\t":{"ha":-924,"x_min":0,"x_max":0,"o":""},"\n":{"ha":-924,"x_min":0,"x_max":0,"o":""},"\u000b":{"ha":-924,"x_min":0,"x_max":0,"o":""},"\f":{"ha":-924,"x_min":0,"x_max":0,"o":""},"\r":{"ha":-924,"x_min":0,"x_max":0,"o":""},"\u000e":{"ha":-924,"x_min":0,"x_max":0,"o":""},"\u000f":{"ha":-924,"x_min":0,"x_max":0,"o":""},"\u0010":{"ha":-924,"x_min":0,"x_max":0,"o":""},"\u0011":{"ha":-924,"x_min":0,"x_max":0,"o":""},"\u0012":{"ha":-924,"x_min":0,"x_max":0,"o":""},"\u0013":{"ha":-924,"x_min":0,"x_max":0,"o":""},"\u0014":{"ha":-924,"x_min":0,"x_max":0,"o":""},"\u0015":{"ha":-924,"x_min":0,"x_max":0,"o":""},"\u0016":{"ha":-924,"x_min":0,"x_max":0,"o":""},"\u0017":{"ha":-924,"x_min":0,"x_max":0,"o":""},"\u0018":{"ha":-924,"x_min":0,"x_max":0,"o":""},"\u0019":{"ha":-924,"x_min":0,"x_max":0,"o":""},"\u001a":{"ha":-924,"x_min":0,"x_max":0,"o":""},"\u001b":{"ha":-924,"x_min":0,"x_max":0,"o":""},"\u001c":{"ha":-924,"x_min":0,"x_max":0,"o":""},"\u001d":{"ha":-924,"x_min":0,"x_max":0,"o":""},"\u001e":{"ha":-924,"x_min":0,"x_max":0,"o":""},"\u001f":{"ha":-924,"x_min":0,"x_max":0,"o":""}," ":{"ha":-924,"x_min":0,"x_max":0,"o":""}," ":{"ha":-924,"x_min":0,"x_max":0,"o":""},"!":{"ha":-731,"x_min":0,"x_max":0,"o":"m 97 397 b 257 256 107 313 157 256 b 415 397 357 256 407 313 b 446 946 436 576 451 753 b 257 1104 443 1039 367 1104 b 68 946 147 1104 71 1039 b 97 397 61 753 76 576 z m 72 1 b 257 -164 72 -93 149 -164 b 442 1 364 -164 442 -93 b 257 192 442 118 369 192 b 72 1 147 192 72 118 z "},"\"":{"ha":-624,"x_min":0,"x_max":0,"o":"m 169 717 b 286 906 251 717 286 769 b 169 1108 286 1043 282 1108 b 53 906 57 1108 53 1043 b 169 717 53 769 89 717 z m 449 717 b 567 906 529 717 567 769 b 449 1108 567 1043 561 1108 b 333 906 338 1108 333 1043 b 449 717 333 769 368 717 z "},"#":{"ha":-108,"x_min":0,"x_max":0,"o":"m 413 136 l 515 136 b 496 33 508 100 500 68 b 619 -125 476 -60 515 -124 b 832 33 725 -126 801 -61 l 867 142 b 963 150 907 143 940 147 b 1076 290 1032 163 1076 201 b 963 428 1076 378 1032 417 b 953 429 960 428 954 428 b 978 525 963 463 971 494 l 1006 532 b 1121 669 1074 542 1121 582 b 1043 799 1121 739 1090 781 l 1064 906 b 938 1063 1083 997 1043 1063 b 725 906 833 1063 758 999 b 699 824 715 878 708 850 l 593 824 l 611 906 b 485 1063 631 997 589 1063 b 272 906 379 1063 304 997 l 242 815 b 172 808 213 813 189 810 b 58 669 104 799 58 758 b 157 535 58 588 97 547 l 129 428 b 14 290 61 418 14 378 b 69 171 14 231 36 193 b 63 136 67 160 65 147 l 49 68 b 42 33 46 57 44 44 b 167 -125 24 -60 63 -124 b 378 33 271 -126 349 -61 z m 503 443 l 521 515 l 607 515 l 588 443 z "},"$":{"ha":-207,"x_min":0,"x_max":0,"o":"m 350 -53 b 499 -174 365 -160 414 -174 b 644 -65 581 -174 626 -161 b 947 214 810 -33 936 63 b 742 529 963 390 856 485 b 390 785 553 608 451 717 b 414 804 374 803 394 825 b 560 675 465 753 507 724 b 728 593 607 629 660 593 b 917 763 821 593 908 639 b 643 1003 925 904 786 975 b 499 1103 624 1089 576 1103 b 354 1001 419 1103 374 1089 b 96 754 200 967 96 878 b 331 510 96 607 188 532 b 615 260 465 489 568 363 b 593 242 622 242 597 232 b 281 486 526 357 438 486 b 89 219 114 486 71 353 b 350 -53 111 82 211 -12 z "},"%":{"ha":36,"x_min":0,"x_max":0,"o":"m 260 493 b 506 785 424 493 506 608 b 260 1076 506 961 424 1076 b 13 785 94 1076 13 961 b 260 493 13 608 94 493 z m 333 -124 b 554 -14 415 -139 507 -93 b 1028 899 701 233 911 640 b 951 1064 1065 981 1033 1049 b 729 954 869 1079 776 1036 b 257 46 583 707 371 300 b 333 -124 219 -39 253 -108 z m 211 699 b 261 890 243 765 257 822 b 308 882 263 914 308 915 b 260 683 306 813 299 738 b 211 699 240 657 200 678 z m 1019 -135 b 1267 157 1185 -135 1267 -18 b 1019 449 1267 333 1185 449 b 774 157 856 449 774 333 b 1019 -135 774 -18 856 -135 z m 971 72 b 1019 265 1004 138 1017 197 b 1068 257 1021 288 1069 289 b 1018 57 1067 188 1058 111 b 971 72 1001 31 961 51 z "},"&":{"ha":-39,"x_min":0,"x_max":0,"o":"m 181 483 b 26 215 81 421 26 326 b 497 -132 26 17 204 -131 b 818 -36 629 -132 739 -101 l 838 -51 b 1032 -132 886 -89 940 -132 b 1004 229 1158 -132 1294 82 l 1006 231 b 1165 468 1083 293 1140 369 b 926 596 1218 675 996 764 b 822 446 903 539 867 490 b 786 483 797 421 761 458 b 900 721 853 551 900 635 b 483 1056 900 886 776 1056 b 67 721 190 1056 67 886 b 181 483 67 635 103 547 z m 406 756 b 443 790 392 783 429 811 b 583 657 483 731 528 693 b 553 619 604 644 581 604 b 406 756 496 654 433 696 z m 406 269 b 443 304 392 297 429 325 b 583 171 483 244 528 207 b 553 133 604 158 581 118 b 406 269 496 168 433 210 z "},"'":{"ha":-860,"x_min":0,"x_max":0,"o":"m 193 717 b 333 906 289 717 333 769 b 193 1108 333 1043 326 1108 b 53 906 58 1108 53 1043 b 193 717 53 769 96 717 z "},"(":{"ha":-710,"x_min":0,"x_max":0,"o":"m 394 -174 b 514 93 492 -126 532 -37 b 367 449 472 125 367 163 b 481 803 367 731 449 788 b 375 1076 513 914 479 1014 b 42 449 135 1036 42 731 b 394 -174 40 160 103 -76 z "},")":{"ha":-711,"x_min":0,"x_max":0,"o":"m 139 -174 b 493 449 431 -76 493 160 b 157 1076 492 731 399 1036 b 51 803 56 1014 18 914 b 164 449 83 788 164 731 b 17 93 164 163 61 125 b 139 -174 0 -37 42 -126 z "},"*":{"ha":-615,"x_min":0,"x_max":0,"o":"m 133 708 b 147 522 74 644 81 565 b 328 568 211 481 282 501 b 507 522 372 501 443 481 b 521 708 574 565 581 644 b 615 868 629 736 643 796 b 454 936 588 931 550 972 b 328 1076 456 1044 407 1076 b 200 936 249 1076 199 1044 b 40 868 103 972 67 931 b 133 708 11 796 24 736 z "},"+":{"ha":-515,"x_min":0,"x_max":0,"o":"m 228 342 b 233 264 229 317 231 290 b 376 146 239 182 299 146 b 500 263 443 146 508 182 b 494 342 497 290 496 317 b 578 347 522 343 549 344 b 696 490 660 353 696 413 b 579 614 696 557 660 622 b 494 607 550 611 522 608 b 500 694 496 635 497 664 b 376 808 507 775 443 808 b 233 694 299 808 239 775 b 226 608 231 665 228 636 b 147 614 200 610 175 613 b 32 490 68 621 32 557 b 147 347 32 413 68 353 b 228 342 175 344 201 343 z "},",":{"ha":-753,"x_min":0,"x_max":0,"o":"m 117 -157 b 219 -296 78 -200 89 -296 b 424 -62 351 -296 422 -178 b 236 151 425 47 365 151 b 67 -6 117 151 65 72 b 200 -153 68 -81 118 -153 b 254 -143 213 -153 231 -149 b 265 -167 269 -136 279 -160 b 208 -179 249 -174 229 -179 b 117 -157 178 -179 142 -171 z "},"-":{"ha":-515,"x_min":0,"x_max":0,"o":"m 147 339 b 578 339 301 326 425 326 b 696 482 660 344 696 404 b 579 606 696 549 660 614 b 147 606 425 590 301 593 b 32 482 68 613 32 549 b 147 339 32 404 68 344 z "},".":{"ha":-743,"x_min":0,"x_max":0,"o":"m 65 -39 b 251 -204 65 -133 142 -204 b 435 -39 357 -204 435 -133 b 251 151 435 78 364 151 b 65 -39 140 151 65 78 z "},"/":{"ha":-557,"x_min":0,"x_max":0,"o":"m 139 -125 b 340 -15 222 -140 307 -94 b 653 897 443 232 582 639 b 547 1063 676 979 632 1047 b 346 953 464 1078 379 1035 b 32 44 242 706 103 299 b 139 -125 8 -40 54 -110 z "},":":{"ha":-743,"x_min":0,"x_max":0,"o":"m 65 679 b 251 513 65 582 142 513 b 435 679 357 513 435 582 b 251 868 435 794 364 868 b 65 679 140 868 65 794 z m 65 181 b 251 14 65 85 142 14 b 435 181 357 14 435 85 b 251 371 435 296 364 371 b 65 181 140 371 65 296 z "},";":{"ha":-740,"x_min":0,"x_max":0,"o":"m 65 679 b 251 513 65 582 142 513 b 435 679 357 513 435 582 b 251 868 435 794 364 868 b 65 679 140 868 65 794 z m 129 61 b 233 -78 90 17 101 -78 b 436 156 365 -78 435 42 b 251 369 438 264 378 369 b 79 211 129 369 78 289 b 213 64 81 138 131 64 b 268 75 225 64 243 68 b 278 50 282 81 292 58 b 221 40 261 44 242 40 b 129 61 190 40 154 46 z "},"<":{"ha":-686,"x_min":0,"x_max":0,"o":"m 367 451 b 522 801 438 543 490 685 b 471 1076 549 893 567 1032 b 251 1000 383 1115 306 1079 b 76 663 150 860 101 726 b 25 451 42 575 25 503 b 76 236 25 400 42 326 b 251 -96 101 174 150 44 b 471 -172 306 -174 383 -211 b 522 101 567 -126 549 10 b 367 451 490 219 438 361 z "},"=":{"ha":-640,"x_min":0,"x_max":0,"o":"m 135 468 b 479 468 251 457 376 461 b 594 600 561 475 594 526 b 481 715 594 661 561 722 b 135 715 376 706 251 706 b 19 600 56 722 19 661 b 135 468 19 526 56 475 z m 135 151 b 479 151 251 142 376 144 b 594 285 561 158 594 213 b 481 400 594 347 561 408 b 135 400 376 390 251 390 b 19 285 56 407 19 347 b 135 151 19 213 56 158 z "},">":{"ha":-686,"x_min":0,"x_max":0,"o":"m 189 451 b 33 101 119 361 67 219 b 86 -172 8 10 -10 -126 b 306 -96 171 -211 251 -174 b 481 236 407 44 454 174 b 529 451 514 326 529 400 b 481 663 529 503 514 575 b 306 1000 454 726 407 860 b 86 1076 251 1079 171 1115 b 33 801 -10 1032 8 893 b 189 451 67 685 119 543 z "},"?":{"ha":-361,"x_min":0,"x_max":0,"o":"m 261 367 b 431 256 276 303 335 256 b 606 367 526 256 579 299 b 640 432 611 381 629 421 b 742 517 657 451 711 490 b 843 776 811 576 843 664 b 447 1076 843 953 722 1076 b 40 776 197 1076 40 953 b 219 614 40 689 89 614 b 400 725 324 614 390 674 b 444 764 403 750 419 764 b 485 729 469 764 485 760 b 432 653 485 689 463 669 b 306 546 382 622 338 585 b 261 367 258 485 253 404 z m 249 1 b 432 -164 249 -93 325 -164 b 618 1 540 -164 618 -93 b 432 192 618 118 546 192 b 249 1 324 192 249 118 z "},"@":{"ha":215,"x_min":0,"x_max":0,"o":"m 753 117 b 735 201 746 129 731 174 b 750 224 736 213 740 219 b 771 210 760 228 771 221 b 893 61 769 114 817 67 b 1410 421 1218 39 1383 229 b 786 1086 1471 843 1221 1086 b 43 421 410 1086 76 803 b 664 -246 8 38 288 -246 b 1171 -158 817 -246 1018 -233 b 1221 -50 1203 -142 1246 -114 b 1122 -12 1200 8 1154 0 b 681 -76 981 -74 811 -76 b 239 421 408 -76 214 129 b 772 917 267 711 499 917 b 1206 421 1164 917 1247 711 b 1076 254 1189 313 1135 271 l 1140 621 b 1018 779 1158 724 1114 779 b 869 758 971 779 921 772 b 965 607 919 721 953 669 b 951 581 968 594 967 586 b 925 593 936 575 929 581 b 792 761 913 625 918 704 b 686 779 765 774 724 779 b 331 417 543 779 375 678 b 567 53 286 174 422 53 b 753 117 625 53 714 82 z m 635 363 b 701 518 671 417 690 464 b 740 511 707 538 746 539 b 671 350 728 456 710 396 b 635 363 653 331 624 347 z "},"A":{"ha":-210,"x_min":0,"x_max":0,"o":"m 447 113 b 583 113 508 97 524 97 b 778 -125 578 4 619 -125 b 971 50 886 -125 965 -57 b 981 469 978 186 981 328 b 515 1063 981 801 881 1063 b 53 469 151 1063 53 801 b 61 50 53 328 56 186 b 253 -125 68 -57 146 -125 b 447 113 414 -125 453 3 z m 635 492 b 618 444 660 476 638 433 b 428 496 553 479 496 492 b 436 546 404 499 404 547 b 635 492 506 543 579 533 z "},"B":{"ha":-139,"x_min":0,"x_max":0,"o":"m 924 478 b 785 453 876 456 824 453 b 785 494 763 453 763 494 b 1046 750 986 494 1046 619 b 697 1068 1046 978 921 1044 b 519 1076 643 1075 582 1078 b 283 1064 438 1076 354 1071 b 64 822 179 1053 72 969 b 63 119 53 578 49 361 b 283 -122 72 -26 179 -111 b 522 -135 356 -129 439 -135 b 697 -126 582 -135 643 -132 b 1065 194 921 -100 1065 -7 b 924 478 1065 354 1021 447 z m 428 681 b 439 728 399 697 417 738 b 617 696 499 703 547 692 b 611 644 639 697 643 649 b 428 681 546 638 486 649 z m 428 272 b 439 321 399 289 417 331 b 617 288 499 294 547 283 b 611 236 639 289 643 240 b 428 272 546 229 486 240 z "},"C":{"ha":-201,"x_min":0,"x_max":0,"o":"m 614 -135 b 922 -74 740 -135 844 -115 b 986 190 1028 -17 1035 97 b 714 304 936 289 826 361 b 614 282 690 292 657 282 b 431 472 482 282 431 371 b 614 660 431 571 482 660 b 714 638 657 660 690 650 b 983 744 824 582 931 649 b 922 1014 1035 836 1032 958 b 614 1076 844 1057 740 1076 b 40 471 172 1076 40 804 b 614 -135 40 136 172 -135 z "},"D":{"ha":-142,"x_min":0,"x_max":0,"o":"m 283 -122 b 522 -135 356 -129 439 -135 b 1061 494 833 -133 1063 78 b 519 1076 1061 913 833 1079 b 283 1064 438 1076 354 1071 b 64 822 179 1053 72 969 b 63 119 53 578 49 361 b 283 -122 72 -26 179 -111 z m 513 411 b 563 603 546 478 558 535 b 611 593 563 625 611 626 b 561 396 610 525 599 449 b 513 411 543 369 501 390 z "},"E":{"ha":-253,"x_min":0,"x_max":0,"o":"m 69 89 b 53 471 56 207 53 332 b 69 851 53 610 56 735 b 506 1076 89 1029 306 1075 b 938 817 717 1078 938 1039 b 794 735 938 726 904 706 b 681 751 758 744 715 751 b 453 713 581 751 513 736 b 465 674 424 701 433 661 b 843 675 588 717 768 721 b 938 471 907 635 938 575 b 843 267 938 367 907 306 b 465 268 768 219 588 224 b 453 229 433 279 424 240 b 681 192 513 206 581 192 b 794 207 715 192 758 197 b 938 126 904 235 938 215 b 506 -135 938 -96 717 -136 b 69 89 306 -133 89 -86 z "},"F":{"ha":-265,"x_min":0,"x_max":0,"o":"m 456 256 b 442 63 453 186 449 124 b 258 -124 429 -42 374 -124 b 74 63 140 -124 85 -42 b 53 471 60 181 53 332 b 69 851 53 610 56 735 b 515 1076 89 1029 317 1075 b 938 865 819 1078 938 1021 b 801 701 938 749 889 686 b 681 711 764 707 715 711 b 453 674 581 711 513 697 b 465 635 424 661 433 624 b 843 636 588 679 768 683 b 938 444 907 594 938 549 b 843 254 938 342 907 293 b 456 256 768 207 579 211 z "},"G":{"ha":-90,"x_min":0,"x_max":0,"o":"m 590 -135 b 1115 346 933 -135 1115 79 b 961 553 1115 444 1051 532 b 658 560 864 575 758 572 b 540 446 579 550 540 515 b 717 349 540 364 617 313 b 789 411 747 360 774 389 b 813 393 803 429 826 414 b 738 324 793 365 771 346 b 594 282 707 303 643 282 b 431 471 482 282 431 371 b 614 660 431 571 482 660 b 714 638 657 660 690 650 b 972 726 817 586 918 640 b 922 1014 1035 822 1038 953 b 614 1076 844 1057 740 1076 b 40 471 172 1076 40 803 b 590 -135 40 138 229 -135 z "},"H":{"ha":-108,"x_min":0,"x_max":0,"o":"m 457 251 b 442 61 454 188 449 124 b 258 -125 432 -43 374 -125 b 74 61 140 -125 83 -43 b 74 878 46 325 46 615 b 258 1063 83 981 140 1063 b 442 878 374 1063 432 981 b 457 688 449 815 454 751 b 676 689 528 704 606 706 b 692 878 681 753 685 815 b 875 1063 703 981 760 1063 b 1061 878 992 1063 1050 981 b 1061 61 1088 615 1088 325 b 875 -125 1050 -43 992 -125 b 692 61 760 -125 703 -43 b 676 250 685 124 681 186 b 457 251 606 233 528 235 z "},"I":{"ha":-728,"x_min":0,"x_max":0,"o":"m 74 61 b 74 878 46 325 46 615 b 258 1063 83 981 140 1063 b 442 878 374 1063 432 981 b 442 61 469 615 469 325 b 258 -125 432 -43 374 -125 b 74 61 140 -125 83 -43 z "},"J":{"ha":-318,"x_min":0,"x_max":0,"o":"m 15 183 b 265 406 26 304 96 406 b 546 236 385 406 474 328 b 575 257 563 217 590 236 b 443 624 506 342 461 442 b 646 1063 424 850 447 1063 b 853 865 774 1063 840 981 b 853 129 878 615 878 325 b 454 -126 825 -78 660 -126 b 15 183 211 -126 -8 -56 z "},"K":{"ha":-207,"x_min":0,"x_max":0,"o":"m 457 281 b 442 61 456 206 449 133 b 258 -125 432 -43 374 -125 b 74 61 140 -125 83 -43 b 74 878 46 325 46 615 b 258 1063 83 981 140 1063 b 442 878 374 1063 432 981 b 458 613 450 788 453 707 b 599 914 497 725 556 835 b 883 1032 656 1018 751 1088 b 992 789 994 985 1033 896 b 722 403 935 642 825 485 b 742 378 704 390 721 363 b 800 431 763 394 782 411 b 982 121 883 342 947 218 b 861 -108 1013 28 969 -64 b 581 0 747 -153 644 -107 b 457 281 546 60 493 181 z "},"L":{"ha":-318,"x_min":0,"x_max":0,"o":"m 74 129 b 74 865 47 325 47 615 b 279 1063 85 981 153 1063 b 482 624 478 1063 501 850 b 351 257 467 442 419 342 b 379 236 336 236 363 217 b 661 406 451 328 540 406 b 910 183 829 406 899 304 b 471 -126 933 -56 714 -126 b 74 129 267 -126 100 -78 z "},"M":{"ha":46,"x_min":0,"x_max":0,"o":"m 463 321 b 442 61 458 229 451 153 b 258 -125 432 -43 374 -125 b 74 61 140 -125 83 -43 b 74 878 46 325 46 615 b 258 1063 83 981 140 1063 b 403 994 325 1063 372 1036 b 628 563 483 879 563 707 b 661 563 638 544 651 544 b 886 994 726 707 804 879 b 1031 1063 915 1036 964 1063 b 1215 878 1149 1063 1204 981 b 1215 61 1242 615 1242 325 b 1031 -125 1204 -43 1149 -125 b 847 61 915 -125 857 -43 b 826 321 838 153 831 229 b 896 500 857 388 879 438 b 864 513 904 532 871 539 b 731 213 832 413 779 301 b 558 213 692 142 597 142 b 425 513 510 301 457 413 b 393 500 418 539 385 532 b 463 321 410 438 432 388 z "},"N":{"ha":-135,"x_min":0,"x_max":0,"o":"m 464 464 b 442 61 463 342 454 179 b 258 -125 432 -43 374 -125 b 74 61 140 -125 83 -43 b 74 878 46 325 46 615 b 258 1063 83 981 140 1063 b 403 994 325 1063 372 1036 b 701 442 528 833 593 619 b 726 458 711 418 740 432 b 646 611 697 518 675 558 b 663 878 650 703 656 803 b 849 1063 676 981 732 1063 b 1035 878 965 1063 1021 981 b 1035 61 1061 615 1061 325 b 849 -125 1021 -43 965 -125 b 688 -26 768 -125 719 -83 b 464 464 615 101 547 319 z "},"O":{"ha":-60,"x_min":0,"x_max":0,"o":"m 592 -135 b 1144 471 975 -135 1144 97 b 592 1076 1144 844 1000 1076 b 39 471 185 1076 39 844 b 592 -135 39 97 208 -135 z m 542 381 b 590 574 574 447 586 506 b 639 565 592 596 640 597 b 589 365 638 496 628 421 b 542 381 571 342 528 361 z "},"P":{"ha":-204,"x_min":0,"x_max":0,"o":"m 457 268 b 442 63 453 200 447 131 b 258 -124 432 -42 374 -124 b 74 63 140 -124 83 -42 b 74 871 46 326 47 608 b 282 1064 89 1006 175 1049 b 481 1076 347 1071 415 1076 b 1013 674 740 1079 1013 1033 b 457 268 1013 299 740 263 z m 457 644 b 642 610 515 614 575 603 b 646 660 674 614 668 661 b 469 693 578 656 529 667 b 457 644 447 703 428 661 z "},"Q":{"ha":-58,"x_min":0,"x_max":0,"o":"m 593 -135 b 554 -40 579 -111 563 -72 b 581 -29 547 -19 574 -11 b 958 -325 624 -175 775 -419 b 1035 -114 1060 -274 1068 -187 b 944 -24 1018 -76 979 -43 b 1146 471 1075 81 1146 251 b 593 1076 1146 844 1001 1076 b 40 471 186 1076 40 844 b 593 -135 40 97 210 -135 z m 543 381 b 592 574 575 447 588 506 b 640 565 593 596 642 597 b 590 365 639 496 629 421 b 543 381 572 342 529 361 z "},"R":{"ha":-161,"x_min":0,"x_max":0,"o":"m 457 265 b 442 63 454 197 449 129 b 258 -124 432 -42 374 -124 b 74 63 140 -124 83 -42 b 54 576 56 228 53 404 b 546 1076 57 975 181 1074 b 989 644 833 1079 992 932 b 772 283 989 451 926 340 b 781 254 749 276 758 249 b 901 311 821 263 865 288 b 1031 122 950 269 1000 208 b 929 -103 1063 31 1035 -56 b 614 1 815 -156 678 -104 b 536 263 571 72 544 165 b 457 265 510 263 483 264 z m 628 604 b 461 708 563 628 513 656 b 431 668 444 724 413 693 b 606 558 471 614 540 582 b 628 604 635 549 647 594 z "},"S":{"ha":-207,"x_min":0,"x_max":0,"o":"m 600 217 b 256 488 528 346 431 488 b 44 193 71 488 22 340 b 525 -135 76 -17 274 -135 b 994 186 769 -135 979 -18 b 768 538 1010 379 892 488 b 376 819 557 624 446 742 b 401 842 358 838 381 863 b 563 697 461 782 504 749 b 751 608 618 649 676 608 b 960 793 853 608 951 656 b 499 1076 974 1006 692 1076 b 51 783 242 1076 51 961 b 310 513 51 621 151 539 b 626 235 461 490 574 351 b 600 217 633 217 608 207 z "},"T":{"ha":-208,"x_min":0,"x_max":0,"o":"m 324 593 b 285 103 283 424 274 260 b 518 -125 293 -12 367 -125 b 751 103 672 -125 740 -12 b 683 704 761 260 744 518 b 724 707 676 722 714 732 b 757 593 735 674 749 631 l 803 593 b 1024 822 935 593 1024 688 b 803 1051 1024 957 935 1042 b 521 1063 700 1058 610 1063 b 232 1051 431 1063 339 1060 b 11 819 99 1042 11 960 b 232 593 11 685 99 593 z "},"U":{"ha":-142,"x_min":0,"x_max":0,"o":"m 550 -136 b 1049 457 943 -136 1049 125 b 1039 890 1049 600 1046 753 b 846 1063 1035 996 953 1063 b 656 890 740 1063 660 996 b 646 457 649 753 646 600 b 550 311 646 375 633 311 b 454 457 467 311 454 375 b 444 890 454 600 451 753 b 253 1063 439 996 360 1063 b 61 890 146 1063 68 996 b 53 457 56 753 53 600 b 550 -136 53 125 157 -136 z "},"V":{"ha":-225,"x_min":0,"x_max":0,"o":"m 513 -125 b 42 638 171 -125 44 242 b 321 1063 39 864 140 1063 b 581 707 503 1063 581 907 b 424 238 581 544 549 358 b 415 211 411 226 407 219 b 447 207 424 201 432 194 b 613 761 583 338 615 510 b 800 1063 611 931 650 1063 b 976 610 935 1063 989 932 b 513 -125 963 229 793 -125 z "},"W":{"ha":74,"x_min":0,"x_max":0,"o":"m 426 406 b 450 392 417 383 442 372 b 574 688 490 493 522 593 b 742 688 613 760 703 758 b 817 539 764 646 792 597 b 801 436 811 507 807 471 b 831 431 796 411 826 403 b 894 878 851 579 863 731 b 1078 1063 917 981 963 1063 b 1263 878 1196 1063 1261 981 b 1176 61 1269 615 1229 311 b 988 -125 1151 -49 1092 -125 b 846 -56 918 -125 874 -97 b 674 311 776 47 724 182 b 643 311 665 329 650 329 b 471 -56 593 181 540 47 b 329 -125 442 -97 400 -125 b 140 61 224 -125 164 -49 b 54 878 86 311 47 615 b 238 1063 57 981 122 1063 b 422 878 354 1063 400 981 b 474 532 443 778 460 642 b 426 406 451 488 442 461 z "},"X":{"ha":-133,"x_min":0,"x_max":0,"o":"m 807 426 l 750 356 b 718 386 729 333 696 361 b 1001 772 824 515 906 638 b 951 1014 1056 849 1035 949 b 706 1010 869 1079 769 1078 b 526 778 643 942 579 857 b 335 1010 456 869 378 963 b 88 1014 269 1078 169 1079 b 38 772 4 949 -17 849 b 229 507 89 697 156 606 l 272 557 b 307 519 293 581 332 549 b 42 174 214 410 128 290 b 81 -71 -17 100 3 -3 b 329 -76 163 -139 264 -142 b 519 144 396 -8 465 69 b 710 -76 563 81 651 -17 b 958 -71 775 -142 875 -139 b 999 174 1036 -3 1054 99 z "},"Y":{"ha":-142,"x_min":0,"x_max":0,"o":"m 360 286 b 371 61 364 208 364 139 b 563 -125 382 -42 443 -125 b 751 61 678 -125 740 -43 b 764 286 757 110 760 235 b 1054 813 892 368 1004 586 b 807 1063 1089 969 1004 1063 b 540 825 639 1063 521 1015 b 585 532 547 753 565 613 b 542 524 592 504 553 489 b 485 840 508 629 490 760 b 250 1063 474 994 401 1063 b 42 863 133 1063 21 1013 b 360 286 74 647 192 393 z "},"Z":{"ha":-218,"x_min":0,"x_max":0,"o":"m 694 343 b 593 228 675 324 610 249 b 544 240 567 196 519 215 l 865 604 b 993 861 922 665 993 749 b 849 1054 993 988 928 1049 b 183 1054 606 1071 426 1071 b 36 861 104 1049 36 988 b 163 667 36 736 85 674 b 383 657 251 658 299 654 b 488 768 418 696 465 742 b 532 756 511 793 549 774 l 158 329 b 25 72 99 264 25 183 b 169 -125 25 -54 90 -125 l 860 -125 b 1013 104 939 -125 1013 -21 b 861 332 1013 229 940 328 b 694 343 785 338 768 342 z "},"[":{"ha":-593,"x_min":0,"x_max":0,"o":"m 571 -174 b 571 53 607 -100 607 -25 l 439 53 b 368 76 400 53 368 54 b 439 99 369 103 400 99 l 439 876 l 571 876 b 571 1103 607 953 607 1031 l 267 1103 b 107 996 164 1103 107 1076 l 107 -68 b 267 -174 107 -147 164 -174 z "},"\\":{"ha":-557,"x_min":0,"x_max":0,"o":"m 346 -15 b 547 -125 378 -94 464 -140 b 653 44 632 -110 676 -40 b 340 953 582 299 443 706 b 139 1063 306 1035 222 1078 b 32 897 54 1047 8 979 b 346 -15 103 639 242 232 z "},"]":{"ha":-593,"x_min":0,"x_max":0,"o":"m 79 53 b 79 -174 44 -25 44 -100 l 383 -174 b 546 -68 486 -174 546 -149 l 546 996 b 383 1103 546 1076 486 1103 l 79 1103 b 79 876 44 1031 44 953 l 211 876 l 211 99 b 282 76 253 99 281 103 b 211 53 282 54 253 53 z "},"^":{"ha":-532,"x_min":0,"x_max":0,"o":"m 371 708 b 428 565 385 660 404 617 b 590 494 456 503 515 472 b 679 638 664 519 700 571 b 539 981 642 757 594 874 b 356 1076 500 1051 414 1076 b 172 981 299 1076 211 1051 b 32 638 118 874 71 757 b 122 494 11 571 47 519 b 285 565 196 472 256 503 b 367 818 326 657 346 719 b 393 811 369 840 399 835 b 371 708 388 771 382 743 z "},"_":{"ha":-515,"x_min":0,"x_max":0,"o":"m 147 -154 b 578 -154 301 -167 425 -167 b 696 -11 660 -149 696 -89 b 579 113 696 56 660 121 b 147 113 425 97 301 100 b 32 -11 68 119 32 56 b 147 -154 32 -89 68 -149 z "},"`":{"ha":-907,"x_min":0,"x_max":0,"o":"m 76 806 b 214 717 97 761 138 717 b 321 806 292 717 315 761 b 296 1015 328 861 314 939 b 146 1107 285 1065 233 1107 b 26 1015 58 1107 22 1065 b 76 806 36 939 51 861 z "},"a":{"ha":-328,"x_min":0,"x_max":0,"o":"m 575 -22 b 717 -136 592 -97 639 -136 b 861 -11 796 -136 843 -93 b 853 514 900 158 901 378 b 449 753 796 675 669 753 b 51 522 233 753 51 663 b 217 388 51 444 108 388 b 499 525 336 388 444 446 b 539 496 517 551 557 524 b 274 342 493 426 403 368 b 25 88 132 314 25 226 b 308 -149 25 -65 150 -149 b 575 -22 417 -149 513 -117 z m 339 76 b 318 122 307 72 296 117 b 494 214 392 140 442 169 b 519 172 513 228 547 194 b 339 76 468 129 406 85 z "},"b":{"ha":-178,"x_min":0,"x_max":0,"o":"m 335 511 b 322 549 319 517 313 531 b 458 693 344 592 400 658 b 447 878 457 739 451 839 b 258 1063 438 981 374 1063 b 67 878 140 1063 76 981 b 47 381 51 729 44 539 b 557 -135 51 43 194 -135 b 1040 324 796 -135 1040 -32 b 686 711 1040 606 861 711 b 364 528 546 711 431 650 b 335 511 356 514 350 508 z m 521 313 b 546 357 497 331 526 371 b 726 282 606 315 660 294 b 711 232 749 276 742 228 b 521 313 643 246 576 271 z "},"c":{"ha":-431,"x_min":0,"x_max":0,"o":"m 319 406 b 346 407 326 414 339 417 b 625 269 410 318 511 269 b 782 443 706 269 765 350 b 621 732 804 561 761 700 b 25 319 300 804 26 692 b 574 -133 25 -43 251 -135 b 778 51 701 -133 779 -76 b 575 238 776 178 703 235 b 315 374 468 240 369 296 b 319 406 308 385 313 401 z "},"d":{"ha":-178,"x_min":0,"x_max":0,"o":"m 729 511 b 701 528 715 508 708 514 b 378 711 635 650 517 711 b 25 324 204 711 25 606 b 507 -135 25 -32 268 -135 b 1018 381 869 -133 1013 43 b 999 878 1021 539 1014 729 b 807 1063 989 981 925 1063 b 617 878 692 1063 628 981 b 607 693 613 839 608 739 b 743 549 664 658 721 592 b 729 511 751 531 744 517 z m 354 232 b 338 282 321 228 317 276 b 519 357 406 294 460 315 b 544 313 539 371 567 329 b 354 232 488 269 421 246 z "},"e":{"ha":-400,"x_min":0,"x_max":0,"o":"m 215 -72 b 464 -135 288 -118 375 -135 b 642 -111 532 -135 575 -132 b 796 85 779 -68 826 -3 b 578 163 757 200 703 199 b 517 153 561 158 535 153 b 343 249 418 153 349 208 b 378 264 339 275 371 275 b 603 210 419 197 531 192 b 817 436 743 243 810 304 b 463 753 829 656 660 753 b 242 706 389 753 311 738 b 26 294 99 639 24 467 b 215 -72 29 151 90 7 z m 400 449 b 396 500 378 443 368 489 b 599 501 458 526 533 515 b 596 451 631 496 618 449 b 400 449 529 465 471 468 z "},"f":{"ha":-482,"x_min":0,"x_max":0,"o":"m 178 338 b 78 357 138 339 101 343 b 11 508 32 383 11 435 b 179 667 11 625 75 656 b 182 719 179 685 181 701 b 188 807 183 749 185 778 b 457 1076 199 957 310 1076 b 736 890 674 1076 736 1000 b 636 743 736 807 699 738 b 407 732 565 750 474 747 b 414 703 386 728 390 699 b 669 693 500 719 615 724 b 736 540 715 667 736 614 b 582 382 736 433 681 389 b 563 61 579 272 572 165 b 379 -125 551 -43 494 -125 b 194 61 261 -125 206 -43 b 178 338 185 153 181 246 z "},"g":{"ha":-297,"x_min":0,"x_max":0,"o":"m 631 753 b 485 768 572 763 531 768 b 56 485 222 768 88 631 b 168 174 28 363 69 233 b 29 -151 67 97 11 -33 b 450 -410 51 -287 174 -410 b 882 -175 711 -410 856 -297 b 499 142 913 -31 785 128 b 501 181 464 142 467 181 b 728 136 592 179 665 161 b 896 456 850 197 896 328 b 865 599 896 564 864 582 l 881 617 b 883 800 932 674 932 740 b 703 819 832 861 760 872 z m 442 393 b 490 583 474 458 486 517 b 536 575 492 607 536 608 b 489 378 533 507 528 431 b 442 393 471 353 431 372 z m 431 -210 b 478 -21 464 -144 474 -87 b 525 -29 479 3 525 3 b 476 -225 522 -96 514 -172 b 431 -210 460 -250 421 -232 z "},"h":{"ha":-312,"x_min":0,"x_max":0,"o":"m 447 281 b 474 300 451 293 463 300 b 500 276 485 300 497 293 b 515 61 503 204 507 133 b 700 -125 526 -43 582 -125 b 883 61 815 -125 874 -43 b 904 419 897 190 906 292 b 635 753 903 601 814 753 b 404 631 546 753 464 713 b 353 546 385 603 367 575 b 321 571 339 521 307 536 b 431 714 347 632 378 674 b 421 893 429 761 425 853 b 243 1064 407 1035 350 1064 b 65 893 133 1064 75 1035 b 47 383 56 744 46 542 l 47 335 b 64 61 50 243 54 153 b 249 -125 75 -43 131 -125 b 432 61 364 -125 421 -43 b 447 281 439 133 443 207 z "},"i":{"ha":-742,"x_min":0,"x_max":0,"o":"m 253 690 b 71 883 158 690 71 760 b 253 1076 71 999 160 1076 b 435 879 354 1076 435 979 b 253 690 435 776 358 690 z m 67 -8 b 67 501 40 156 40 338 b 253 618 76 565 135 618 b 435 501 367 618 424 565 b 435 -8 463 338 463 156 b 253 -125 424 -74 367 -125 b 67 -8 135 -125 76 -74 z "},"j":{"ha":-606,"x_min":0,"x_max":0,"o":"m 396 690 b 214 883 301 690 214 760 b 396 1076 214 999 303 1076 b 578 879 497 1076 578 979 b 396 690 578 776 501 690 z m 210 49 b 210 501 183 199 185 350 b 396 618 219 565 278 618 b 578 501 511 618 568 567 b 578 49 599 350 593 201 b 206 -397 549 -233 482 -397 b -67 -176 71 -397 -67 -321 b 104 24 -67 -29 19 24 b 264 -81 171 24 235 -12 b 294 -67 271 -99 301 -92 b 210 49 282 -28 243 25 z "},"k":{"ha":-329,"x_min":0,"x_max":0,"o":"m 440 565 b 428 906 439 679 435 792 b 243 1063 421 997 344 1063 b 61 906 144 1063 67 999 b 61 35 42 617 42 324 b 242 -125 67 -60 143 -125 b 428 35 344 -126 417 -61 b 431 104 429 47 431 92 b 611 -85 488 42 554 -28 b 828 -72 668 -142 760 -137 b 857 149 894 -10 907 85 b 731 303 818 199 772 256 l 651 246 b 628 279 626 231 604 264 b 746 371 664 299 706 329 b 843 475 778 403 811 439 b 828 690 894 533 886 625 b 617 717 765 761 675 768 z "},"l":{"ha":-649,"x_min":0,"x_max":0,"o":"m 449 189 b 608 44 546 179 608 154 b 264 -125 608 -104 404 -126 b 67 61 146 -124 76 -43 b 67 878 40 325 40 615 b 253 1063 76 981 135 1063 b 435 878 367 1063 425 981 b 449 189 456 675 463 400 z "},"m":{"ha":158,"x_min":0,"x_max":0,"o":"m 894 121 b 938 119 894 161 938 160 b 944 47 939 94 942 71 b 1139 -125 957 -57 1017 -125 b 1333 47 1260 -125 1319 -57 b 1354 319 1347 151 1353 210 b 1306 644 1356 526 1347 583 b 1092 751 1253 719 1181 751 b 946 713 1035 751 981 736 b 804 400 879 667 796 539 b 765 399 804 375 772 365 b 847 671 760 497 786 593 b 632 753 794 729 708 753 b 501 713 586 753 540 738 b 344 368 411 660 333 510 b 304 371 346 340 308 338 b 401 668 293 479 329 581 b 213 753 372 731 292 753 b 46 586 113 753 46 686 l 46 338 b 63 47 49 246 53 139 b 253 -125 74 -57 135 -125 b 436 47 368 -125 425 -57 b 443 132 439 75 440 103 b 486 121 453 160 486 156 b 493 47 488 96 490 71 b 690 -125 506 -57 568 -125 b 888 47 811 -125 876 -57 b 893 121 890 71 892 96 z "},"n":{"ha":-296,"x_min":0,"x_max":0,"o":"m 443 132 b 486 121 453 160 486 156 b 493 47 488 96 490 71 b 690 -125 506 -57 568 -125 b 888 47 811 -125 864 -57 b 921 374 910 144 919 269 b 839 671 922 485 917 586 b 632 753 788 728 708 753 b 501 713 586 753 542 736 b 344 368 411 658 333 510 b 304 371 346 340 308 338 b 401 668 293 479 329 581 b 213 753 372 731 292 753 b 46 586 113 753 46 686 l 46 338 b 63 47 49 246 53 139 b 253 -125 74 -57 135 -125 b 436 47 368 -125 425 -57 b 443 132 439 75 440 103 z "},"o":{"ha":-332,"x_min":0,"x_max":0,"o":"m 25 289 b 474 -149 25 39 215 -149 b 886 289 721 -149 883 57 b 478 753 886 518 754 753 b 25 289 204 753 26 560 z m 414 211 b 464 403 447 278 458 335 b 511 396 465 426 513 428 b 463 196 510 326 500 251 b 414 211 443 169 403 190 z "},"p":{"ha":-232,"x_min":0,"x_max":0,"o":"m 446 -171 b 207 -22 338 -151 274 -107 b 235 4 188 3 218 26 b 542 -143 308 -99 426 -143 b 978 233 735 -143 938 -11 b 525 750 1024 511 849 750 b 311 724 468 750 396 740 b 211 749 279 742 244 749 b 46 635 131 749 46 707 l 46 158 b 67 -335 46 -6 50 -169 b 250 -518 76 -436 133 -518 b 433 -335 367 -518 424 -436 b 446 -171 438 -294 444 -215 z m 467 235 b 451 283 436 229 431 278 b 636 358 519 296 575 315 b 657 314 653 371 682 333 b 467 235 603 272 536 249 z "},"q":{"ha":-233,"x_min":0,"x_max":0,"o":"m 564 -171 b 576 -335 565 -215 572 -294 b 760 -518 586 -436 643 -518 b 943 -335 876 -518 933 -436 b 964 158 960 -169 964 -6 l 964 635 b 799 749 964 707 879 749 b 699 724 765 749 731 742 b 485 750 614 740 542 750 b 32 233 161 750 -12 511 b 468 -143 74 -11 275 -143 b 775 4 583 -143 701 -99 b 803 -22 792 26 822 3 b 564 -171 736 -107 672 -151 z m 353 314 b 374 358 328 333 357 371 b 558 283 435 315 490 296 b 543 235 579 278 574 229 b 353 314 474 249 407 272 z "},"r":{"ha":-467,"x_min":0,"x_max":0,"o":"m 414 721 b 331 543 368 674 336 610 b 363 535 326 510 356 506 b 611 754 399 700 483 764 b 764 549 726 746 765 626 b 613 325 764 475 747 346 b 474 372 568 318 517 338 b 442 349 453 390 442 372 b 424 49 439 249 433 147 b 240 -137 413 -56 356 -137 b 56 49 122 -137 64 -56 b 50 656 40 251 47 453 b 111 744 51 701 75 739 b 224 753 140 750 181 753 b 414 721 304 753 389 740 z "},"s":{"ha":-408,"x_min":0,"x_max":0,"o":"m 481 122 b 203 318 422 218 347 318 b 29 106 53 318 11 214 b 424 -135 54 -49 218 -135 b 808 100 625 -135 796 -49 b 624 357 819 242 725 321 b 303 564 450 421 358 508 b 328 585 286 578 310 601 b 456 475 376 539 407 513 b 610 410 500 440 549 410 b 781 544 692 410 774 443 b 403 753 792 701 560 753 b 35 538 193 753 35 668 b 247 342 35 419 117 365 b 511 136 385 318 468 221 b 481 122 524 113 490 100 z "},"t":{"ha":-469,"x_min":0,"x_max":0,"o":"m 157 340 b 157 319 157 333 157 326 b 456 -135 165 46 188 -135 b 747 57 606 -135 739 -67 b 597 268 757 200 679 263 b 436 171 533 274 469 235 b 407 186 428 154 399 163 b 539 293 422 224 475 276 b 544 382 543 318 544 349 l 582 386 b 736 544 681 397 736 438 b 669 697 736 618 715 671 b 519 718 636 717 578 721 b 519 722 519 719 519 721 b 342 893 506 864 449 893 b 164 722 232 893 175 864 b 161 668 163 704 163 686 b 11 513 68 651 11 622 b 78 361 11 439 32 388 b 157 340 97 350 125 340 z "},"u":{"ha":-314,"x_min":0,"x_max":0,"o":"m 532 -93 b 504 7 522 -76 510 -24 b 532 13 501 24 526 32 b 699 -137 544 -35 547 -137 b 808 -124 731 -137 763 -133 b 872 119 910 -100 879 26 l 872 568 b 696 753 872 671 807 753 b 519 568 583 753 519 671 l 519 274 b 465 268 518 228 468 225 l 465 558 b 250 753 465 675 408 753 b 29 558 88 753 31 675 b 43 60 26 317 18 163 b 189 -103 64 -22 106 -71 b 328 -125 226 -118 272 -125 b 532 -93 399 -125 475 -112 z "},"v":{"ha":-301,"x_min":0,"x_max":0,"o":"m 474 -135 b 26 435 149 -135 31 139 b 285 753 25 604 113 753 b 526 488 457 753 526 636 b 389 136 526 365 507 226 b 414 103 367 119 393 88 b 568 528 543 200 571 340 b 746 753 567 654 604 753 b 914 414 874 753 925 656 b 474 -135 900 131 739 -135 z "},"w":{"ha":-115,"x_min":0,"x_max":0,"o":"m 399 474 b 353 351 379 433 367 400 b 379 336 344 331 372 318 b 497 599 415 426 451 515 b 646 599 532 664 608 661 b 714 465 667 565 692 518 b 693 360 708 438 694 390 b 726 356 688 338 722 331 l 774 589 b 936 753 792 681 833 753 b 1101 589 1042 753 1107 681 b 1028 40 1090 381 1076 264 b 858 -125 1007 -57 951 -125 b 732 -62 797 -125 757 -100 b 579 264 671 29 625 149 b 551 264 572 281 558 281 b 399 -62 507 147 460 29 b 272 -125 372 -100 335 -125 b 103 40 178 -125 125 -57 b 26 589 56 247 33 383 b 204 753 24 681 101 753 b 383 593 308 753 372 685 z "},"x":{"ha":-379,"x_min":0,"x_max":0,"o":"m 457 25 b 571 -92 501 -22 543 -67 b 765 -78 617 -133 689 -142 b 819 113 844 -12 853 58 b 667 315 792 160 733 236 b 819 514 733 394 792 467 b 765 704 853 568 844 639 b 571 718 689 768 617 760 b 457 601 543 693 501 649 b 514 531 479 575 492 558 b 488 513 531 510 503 490 b 293 718 426 585 365 656 b 99 704 247 760 175 768 b 44 514 19 639 11 568 b 197 315 72 467 131 394 b 44 113 131 236 72 160 b 99 -78 11 58 19 -12 b 293 -92 175 -142 247 -133 b 488 114 365 -29 426 42 b 514 96 503 136 531 117 b 457 25 492 68 479 51 z "},"y":{"ha":-306,"x_min":0,"x_max":0,"o":"m 599 111 b 365 -35 547 25 482 -35 b 256 -28 332 -35 282 -32 b 93 -156 165 -15 119 -82 b 171 -372 65 -237 69 -336 b 404 -410 243 -399 361 -410 b 774 -237 549 -410 690 -357 b 890 196 853 -122 892 22 l 889 586 b 721 753 889 686 821 753 l 635 753 b 463 618 551 753 481 699 l 394 318 b 353 326 383 283 344 300 l 414 618 b 306 753 431 699 389 753 l 214 753 b 60 615 131 753 69 699 l 28 340 b 349 0 4 124 183 0 b 567 131 450 0 514 44 b 599 111 579 154 614 143 z "},"z":{"ha":-422,"x_min":0,"x_max":0,"o":"m 201 390 l 290 483 b 325 464 313 506 339 479 l 89 224 b 25 47 44 179 25 129 b 158 -125 25 -57 79 -125 l 686 -125 b 796 51 754 -125 796 -44 b 688 226 796 149 750 217 b 572 232 642 232 625 231 l 471 132 b 433 154 447 110 414 135 l 697 415 b 792 603 743 454 792 521 b 686 743 792 696 744 739 b 418 753 599 750 508 753 b 139 743 325 754 229 750 b 31 572 81 739 31 664 b 125 399 31 482 67 408 b 201 390 154 393 172 390 z "},"{":{"ha":-621,"x_min":0,"x_max":0,"o":"m 171 214 b 156 67 163 154 156 90 b 472 -174 160 -106 294 -171 b 561 -106 515 -174 553 -146 b 553 79 574 -43 571 18 b 507 119 547 97 529 113 b 340 510 344 168 589 388 b 349 544 326 515 324 544 b 429 494 364 544 390 532 b 453 651 467 544 460 597 b 506 815 436 788 457 808 b 551 853 528 818 546 833 b 561 1038 569 917 574 978 b 471 1106 553 1076 514 1107 b 156 864 290 1103 154 1035 b 171 718 157 801 168 756 l 169 718 b 58 467 107 726 58 651 b 169 214 58 282 107 204 z "},"|":{"ha":-828,"x_min":0,"x_max":0,"o":"m 51 -22 b 207 -174 57 -111 119 -172 b 365 -22 296 -174 360 -112 b 365 950 379 256 379 674 b 208 1103 360 1040 296 1103 b 51 950 121 1103 57 1042 b 51 -22 38 674 38 256 z "},"}":{"ha":-621,"x_min":0,"x_max":0,"o":"m 451 718 b 467 864 454 756 465 801 b 151 1106 468 1035 332 1103 b 61 1038 108 1107 69 1076 b 71 853 49 978 53 917 b 117 815 76 833 94 818 b 169 651 165 808 186 788 b 193 494 163 597 156 544 b 274 544 232 532 258 544 b 282 510 299 544 296 515 b 115 119 33 388 278 168 b 69 79 93 113 75 97 b 61 -106 51 18 49 -43 b 150 -174 69 -146 107 -174 b 467 67 328 -171 463 -106 b 451 214 467 90 460 154 l 453 214 b 564 467 515 204 564 282 b 453 718 564 651 515 726 z "},"~":{"ha":-518,"x_min":0,"x_max":0,"o":"m 467 575 b 433 561 461 564 449 557 b 261 632 399 569 360 624 b 25 414 122 642 36 540 b 128 301 24 361 57 313 b 265 349 201 290 251 311 b 294 361 269 361 278 365 b 465 294 333 354 365 301 b 699 511 604 283 690 386 b 599 624 703 564 676 617 b 467 575 515 633 481 613 z "},"₩":{"ha":60,"x_min":0,"x_max":0,"o":"m 126 96 b 122 96 125 96 124 96 b 7 214 42 101 7 135 b 89 311 7 271 32 306 b 47 878 60 499 43 699 b 232 1063 50 981 115 1063 b 415 878 349 1063 394 981 b 472 526 442 761 457 650 b 567 726 499 596 539 676 b 736 726 606 799 699 799 b 832 526 765 676 804 596 b 889 878 846 650 863 761 b 1071 1063 910 981 954 1063 b 1257 878 1189 1063 1254 981 b 1215 311 1261 699 1243 499 b 1296 214 1272 307 1296 271 b 1181 96 1296 135 1263 101 b 1176 96 1179 96 1178 96 b 1169 61 1174 85 1172 72 b 988 -125 1146 -49 1092 -125 b 853 -56 918 -125 881 -97 b 775 86 826 -17 800 32 b 529 86 694 86 610 86 b 451 -56 504 32 478 -17 b 315 -125 424 -97 385 -125 b 135 61 211 -125 157 -49 b 126 96 132 72 129 85 z m 613 301 b 690 301 638 301 665 301 b 665 374 682 326 674 350 b 638 374 660 393 643 393 b 613 301 629 350 621 326 z "},"©":{"ha":60,"x_min":0,"x_max":0,"o":"m 650 -226 b 1283 446 1072 -226 1283 71 b 650 1119 1283 821 1072 1119 b 19 446 229 1119 19 821 b 650 -226 19 71 229 -226 z m 650 -92 b 179 446 328 -92 179 146 b 650 985 179 746 328 985 b 1125 446 975 985 1125 746 b 650 -92 1125 146 975 -92 z m 761 328 b 693 313 744 317 722 313 b 571 439 608 313 571 371 b 693 564 571 506 608 564 b 761 550 722 564 744 558 b 940 622 833 513 904 558 b 901 803 975 682 972 765 b 693 843 849 832 779 843 b 310 438 400 843 310 661 b 693 33 310 214 400 33 b 901 74 779 33 849 46 b 942 251 969 111 975 186 b 761 328 908 315 836 364 z "},"　":{"ha":0,"x_min":0,"x_max":0,"o":""},"ㅤ":{"ha":0,"x_min":0,"x_max":0,"o":""},"、":{"ha":0,"x_min":0,"x_max":0,"o":"m 519 -86 b 693 -190 533 -143 592 -190 b 831 -86 794 -190 836 -143 b 774 158 822 4 803 94 b 614 263 749 211 704 263 b 490 158 524 263 496 211 b 519 -86 483 94 497 4 z "},"。":{"ha":0,"x_min":0,"x_max":0,"o":"m 457 10 b 660 -185 457 -110 542 -185 b 863 10 778 -185 863 -110 b 660 204 863 129 778 204 b 457 10 542 204 457 129 z m 660 -56 b 594 10 624 -56 594 -31 b 660 74 594 50 624 74 b 725 10 697 74 725 50 b 660 -56 725 -31 697 -56 z "},"·":{"ha":-461,"x_min":0,"x_max":0,"o":"m 206 443 b 392 279 206 349 283 279 b 576 443 497 279 576 349 b 392 635 576 560 504 635 b 206 443 282 635 206 560 z "},"・":{"ha":-461,"x_min":0,"x_max":0,"o":"m 206 443 b 392 279 206 349 283 279 b 576 443 497 279 576 349 b 392 635 576 560 504 635 b 206 443 282 635 206 560 z "},"‥":{"ha":-260,"x_min":0,"x_max":0,"o":"m 65 443 b 251 279 65 349 142 279 b 435 443 357 279 435 349 b 251 635 435 560 364 635 b 65 443 140 635 65 560 z m 546 443 b 732 279 546 349 624 279 b 917 443 838 279 917 349 b 732 635 917 560 844 635 b 546 443 622 635 546 560 z "},"…":{"ha":219,"x_min":0,"x_max":0,"o":"m 65 443 b 251 279 65 349 142 279 b 435 443 357 279 435 349 b 251 635 435 560 364 635 b 65 443 140 635 65 560 z m 546 443 b 732 279 546 349 624 279 b 917 443 838 279 917 349 b 732 635 917 560 844 635 b 546 443 622 635 546 560 z m 1028 443 b 1213 279 1028 349 1104 279 b 1397 443 1319 279 1397 349 b 1213 635 1397 560 1325 635 b 1028 443 1103 635 1028 560 z "},"⋯":{"ha":219,"x_min":0,"x_max":0,"o":"m 65 443 b 251 279 65 349 142 279 b 435 443 357 279 435 349 b 251 635 435 560 364 635 b 65 443 140 635 65 560 z m 546 443 b 732 279 546 349 624 279 b 917 443 838 279 917 349 b 732 635 917 560 844 635 b 546 443 622 635 546 560 z m 1028 443 b 1213 279 1028 349 1104 279 b 1397 443 1319 279 1397 349 b 1213 635 1397 560 1325 635 b 1028 443 1103 635 1028 560 z "},"¨":{"ha":-281,"x_min":0,"x_max":0,"o":"m 65 897 b 251 731 65 801 142 731 b 435 897 357 731 435 801 b 251 1086 435 1013 364 1086 b 65 897 140 1086 65 1013 z m 526 897 b 711 731 526 801 604 731 b 897 897 819 731 897 801 b 711 1086 897 1013 825 1086 b 526 897 603 1086 526 1013 z "},"〃":{"ha":0,"x_min":0,"x_max":0,"o":"m 294 289 b 418 185 300 236 328 185 b 578 289 508 185 549 240 b 663 561 615 353 654 471 b 525 665 668 618 626 665 b 351 561 424 665 369 618 b 294 289 324 471 297 353 z m 656 289 b 779 185 661 236 689 185 b 939 289 869 185 910 240 b 1024 561 976 353 1015 471 b 886 665 1029 618 988 665 b 713 561 785 665 731 618 b 656 289 685 471 658 353 z "},"­":{"ha":-535,"x_min":0,"x_max":0,"o":"m 147 339 b 578 339 301 326 425 326 b 696 482 660 344 696 404 b 579 606 696 549 660 614 b 147 606 425 590 301 593 b 32 482 68 613 32 549 b 147 339 32 404 68 344 z "},"–":{"ha":-535,"x_min":0,"x_max":0,"o":"m 147 339 b 578 339 301 326 425 326 b 696 482 660 344 696 404 b 579 606 696 549 660 614 b 147 606 425 590 301 593 b 32 482 68 613 32 549 b 147 339 32 404 68 344 z "},"—":{"ha":-69,"x_min":0,"x_max":0,"o":"m 147 257 b 1022 257 301 242 869 242 b 1140 400 1106 263 1140 322 b 1024 522 1140 467 1106 532 b 147 522 869 508 301 511 b 32 400 68 529 32 467 b 147 257 32 322 68 263 z "},"―":{"ha":-69,"x_min":0,"x_max":0,"o":"m 147 257 b 1022 257 301 242 869 242 b 1140 400 1106 263 1140 322 b 1024 522 1140 467 1106 532 b 147 522 869 508 301 511 b 32 400 68 529 32 467 b 147 257 32 322 68 263 z "},"∥":{"ha":146,"x_min":0,"x_max":0,"o":"m 467 -506 b 649 292 649 -506 649 -342 b 467 1065 649 925 649 1065 b 283 292 283 1065 283 925 b 467 -506 283 -342 283 -506 z m 922 -506 b 1106 292 1106 -506 1106 -342 b 922 1065 1106 925 1106 1065 b 740 292 740 1065 740 925 b 922 -506 740 -342 740 -506 z "},"＼":{"ha":146,"x_min":0,"x_max":0,"o":"m 697 -15 b 899 -125 731 -94 815 -140 b 1004 44 983 -110 1029 -40 b 692 953 933 299 794 706 b 490 1063 657 1035 574 1078 b 385 897 406 1047 360 979 b 697 -15 456 639 594 232 z "},"∼":{"ha":146,"x_min":0,"x_max":0,"o":"m 799 575 b 767 561 792 564 782 557 b 593 632 731 569 692 624 b 358 414 454 642 367 540 b 460 301 356 361 390 313 b 597 349 533 290 582 311 b 626 361 603 361 610 365 b 796 294 665 354 697 301 b 1031 511 935 283 1022 386 b 931 624 1035 564 1007 617 b 799 575 849 633 814 613 z "},"〜":{"ha":146,"x_min":0,"x_max":0,"o":"m 799 575 b 767 561 792 564 782 557 b 593 632 731 569 692 624 b 358 414 454 642 367 540 b 460 301 356 361 390 313 b 597 349 533 290 582 311 b 626 361 603 361 610 365 b 796 294 665 354 697 301 b 1031 511 935 283 1022 386 b 931 624 1035 564 1007 617 b 799 575 849 633 814 613 z "},"～":{"ha":146,"x_min":0,"x_max":0,"o":"m 799 575 b 767 561 792 564 782 557 b 593 632 731 569 692 624 b 358 414 454 642 367 540 b 460 301 356 361 390 313 b 597 349 533 290 582 311 b 626 361 603 361 610 365 b 796 294 665 354 697 301 b 1031 511 935 283 1022 386 b 931 624 1035 564 1007 617 b 799 575 849 633 814 613 z "},"‘":{"ha":-753,"x_min":0,"x_max":0,"o":"m 225 981 b 282 990 242 986 261 990 b 374 969 313 990 349 983 b 269 1108 413 1013 401 1108 b 67 874 139 1108 68 989 b 253 660 65 767 125 660 b 424 819 374 660 425 739 b 290 967 422 893 372 967 b 236 954 278 967 260 963 b 225 981 221 949 211 972 z "},"’":{"ha":-753,"x_min":0,"x_max":0,"o":"m 117 799 b 219 660 78 756 89 660 b 424 894 351 660 422 779 b 236 1108 425 1001 365 1108 b 67 950 117 1108 65 1029 b 200 803 68 875 118 803 b 254 813 213 803 231 806 b 265 788 269 821 279 796 b 208 778 249 782 229 778 b 117 799 178 778 142 785 z "},"“":{"ha":-375,"x_min":0,"x_max":0,"o":"m 225 981 b 282 990 242 986 261 990 b 374 969 313 990 349 983 b 269 1108 413 1013 401 1108 b 67 874 139 1108 68 989 b 253 660 65 767 125 660 b 424 819 374 660 425 739 b 290 967 422 893 372 967 b 236 954 278 967 260 963 b 225 981 221 949 211 972 z m 604 981 b 660 990 621 986 639 990 b 753 969 692 990 725 983 b 647 1108 790 1013 779 1108 b 444 874 515 1108 446 989 b 631 660 443 767 503 660 b 801 819 753 660 803 739 b 668 967 800 893 751 967 b 614 954 656 967 638 963 b 604 981 599 949 589 972 z "},"”":{"ha":-375,"x_min":0,"x_max":0,"o":"m 494 799 b 597 660 456 756 467 660 b 801 894 729 660 800 779 b 615 1108 803 1001 742 1108 b 444 950 494 1108 443 1029 b 578 803 446 875 496 803 b 632 813 590 803 610 806 b 643 788 646 821 657 796 b 586 778 626 782 608 778 b 494 799 556 778 519 785 z m 117 799 b 219 660 78 756 89 660 b 424 894 351 660 422 779 b 236 1108 425 1001 365 1108 b 67 950 117 1108 65 1029 b 200 803 68 875 118 803 b 254 813 213 803 231 806 b 265 788 269 821 279 796 b 208 778 249 782 229 778 b 117 799 178 778 142 785 z "},"〔":{"ha":0,"x_min":0,"x_max":0,"o":"m 1143 121 b 1143 761 1157 332 1160 543 l 1183 774 b 1236 915 1231 786 1236 822 l 1236 1007 b 1133 1078 1236 1083 1196 1086 b 975 1040 1081 1071 1028 1058 b 833 878 879 1008 839 972 b 833 4 815 592 811 301 b 975 -158 840 -90 879 -126 b 1133 -196 1028 -176 1081 -189 b 1236 -125 1196 -204 1236 -201 l 1236 -33 b 1183 108 1236 60 1231 96 z "},"〕":{"ha":0,"x_min":0,"x_max":0,"o":"m 176 761 b 176 121 160 543 163 332 l 136 108 b 83 -33 89 96 83 60 l 83 -125 b 186 -196 83 -201 124 -204 b 344 -158 239 -189 292 -176 b 486 4 440 -126 479 -90 b 486 878 508 301 504 592 b 344 1040 481 972 440 1008 b 186 1078 292 1058 239 1071 b 83 1007 124 1086 83 1083 l 83 915 b 136 774 83 822 89 786 z "},"〈":{"ha":0,"x_min":0,"x_max":0,"o":"m 1049 431 b 1232 943 1136 599 1194 743 b 1131 1047 1243 1004 1231 1047 l 1057 1047 b 951 965 997 1047 985 1022 b 794 636 872 829 817 697 b 740 431 764 550 740 481 b 794 225 740 381 764 311 b 951 -104 817 164 872 32 b 1057 -186 985 -161 997 -186 l 1131 -186 b 1232 -82 1231 -186 1243 -143 b 1049 431 1194 118 1136 263 z "},"〉":{"ha":0,"x_min":0,"x_max":0,"o":"m 271 431 b 88 -82 183 263 125 118 b 189 -186 76 -143 89 -186 l 263 -186 b 368 -104 322 -186 335 -161 b 525 225 447 32 503 164 b 579 431 556 311 579 381 b 525 636 579 481 556 550 b 368 965 503 697 447 829 b 263 1047 335 1022 322 1047 l 189 1047 b 88 943 89 1047 76 1004 b 271 431 125 743 183 599 z "},"《":{"ha":0,"x_min":0,"x_max":0,"o":"m 771 431 b 914 943 839 599 885 743 b 835 1047 922 1004 913 1047 l 778 1047 b 696 965 732 1047 722 1022 b 574 636 635 829 592 697 b 532 431 550 550 532 481 b 574 225 532 381 550 311 b 696 -104 592 164 635 32 b 778 -186 722 -161 732 -186 l 835 -186 b 914 -82 913 -186 922 -143 b 771 431 885 118 839 263 z m 1090 431 b 1233 943 1158 599 1204 743 b 1154 1047 1242 1004 1232 1047 l 1097 1047 b 1015 965 1051 1047 1042 1022 b 893 636 954 829 911 697 b 851 431 869 550 851 481 b 893 225 851 381 869 311 b 1015 -104 911 164 954 32 b 1097 -186 1042 -161 1051 -186 l 1154 -186 b 1233 -82 1232 -186 1242 -143 b 1090 431 1204 118 1158 263 z "},"》":{"ha":0,"x_min":0,"x_max":0,"o":"m 549 431 b 406 -82 481 263 435 118 b 485 -186 397 -143 407 -186 l 542 -186 b 624 -104 588 -186 597 -161 b 746 225 685 32 728 164 b 788 431 769 311 788 381 b 746 636 788 481 769 550 b 624 965 728 697 685 829 b 542 1047 597 1022 588 1047 l 485 1047 b 406 943 407 1047 397 1004 b 549 431 435 743 481 599 z m 229 431 b 86 -82 161 263 115 118 b 165 -186 78 -143 88 -186 l 222 -186 b 304 -104 268 -186 278 -161 b 426 225 365 32 408 164 b 468 431 450 311 468 381 b 426 636 468 481 450 550 b 304 965 408 697 365 829 b 222 1047 278 1022 268 1047 l 165 1047 b 86 943 88 1047 78 1004 b 229 431 115 743 161 599 z "},"「":{"ha":0,"x_min":0,"x_max":0,"o":"m 1038 728 l 1129 733 b 1236 886 1200 739 1236 786 b 1101 1054 1236 1011 1186 1054 l 874 1054 b 692 904 774 1054 697 993 b 696 -35 669 589 679 268 b 863 -185 700 -122 768 -183 b 1031 -35 957 -185 1026 -124 b 1038 728 1044 229 1047 481 z "},"」":{"ha":0,"x_min":0,"x_max":0,"o":"m 282 142 l 190 136 b 83 -17 119 131 83 83 b 218 -185 83 -142 133 -185 l 446 -185 b 628 -35 546 -185 622 -124 b 624 904 650 281 640 601 b 457 1054 619 992 551 1053 b 289 904 363 1054 293 993 b 282 142 275 640 272 389 z "},"『":{"ha":0,"x_min":0,"x_max":0,"o":"m 1038 728 l 1129 733 b 1236 886 1200 739 1236 786 b 1101 1054 1236 1011 1186 1054 l 874 1054 b 692 904 774 1054 697 993 b 696 -35 669 589 679 268 b 863 -185 700 -122 768 -183 b 1031 -35 957 -185 1026 -124 b 1038 728 1044 229 1047 481 z m 858 -46 b 836 -22 846 -46 836 -36 l 836 869 b 868 906 836 893 847 906 l 1038 906 b 1065 883 1054 906 1065 897 b 1038 861 1065 871 1054 861 l 899 861 b 882 843 888 861 882 854 l 882 -22 b 858 -46 882 -36 871 -46 z "},"』":{"ha":0,"x_min":0,"x_max":0,"o":"m 282 142 l 190 136 b 83 -17 119 131 83 83 b 218 -185 83 -142 133 -185 l 446 -185 b 628 -35 546 -185 622 -124 b 624 904 650 281 640 601 b 457 1054 619 992 551 1053 b 289 904 363 1054 293 993 b 282 142 275 640 272 389 z m 254 -14 b 282 8 254 -1 265 8 l 421 8 b 438 26 432 8 438 15 l 438 892 b 461 915 438 906 449 915 b 483 892 474 915 483 906 l 483 0 b 451 -36 483 -24 472 -36 l 282 -36 b 254 -14 265 -36 254 -28 z "},"【":{"ha":0,"x_min":0,"x_max":0,"o":"m 757 -68 b 896 -186 757 -140 811 -182 b 1208 -186 1000 -192 1104 -192 b 1225 -136 1232 -186 1247 -167 b 1114 71 1182 -75 1143 -8 b 1058 431 1076 171 1058 290 b 1114 790 1058 571 1076 690 b 1225 997 1143 869 1182 936 b 1208 1047 1247 1028 1232 1047 b 896 1047 1104 1053 1000 1053 b 757 929 811 1043 757 1001 b 757 -68 740 597 744 264 z "},"】":{"ha":0,"x_min":0,"x_max":0,"o":"m 111 -186 b 424 -186 215 -192 319 -192 b 563 -68 508 -182 563 -140 b 563 929 575 264 579 597 b 424 1047 563 1001 508 1043 b 111 1047 319 1053 215 1053 b 94 997 88 1047 72 1028 b 206 790 138 936 176 869 b 261 431 243 690 261 571 b 206 71 261 290 243 171 b 94 -136 176 -8 138 -75 b 111 -186 72 -167 88 -186 z "},"±":{"ha":-515,"x_min":0,"x_max":0,"o":"m 228 496 b 233 418 229 471 231 444 b 376 300 239 336 299 300 b 500 417 443 300 508 336 b 494 494 497 443 496 469 b 578 501 521 496 549 499 b 696 644 660 507 696 567 b 579 768 696 711 660 776 b 494 763 550 765 522 764 b 500 849 496 790 497 818 b 376 964 507 928 443 964 b 233 849 299 964 239 928 b 226 763 231 819 228 790 b 147 768 200 764 175 767 b 32 644 68 775 32 711 b 147 501 32 567 68 507 b 228 496 175 499 201 497 z m 147 -10 b 578 -10 301 -22 425 -22 b 696 133 660 -3 696 56 b 579 258 696 200 660 265 b 147 258 425 243 301 244 b 32 133 68 264 32 200 b 147 -10 32 56 68 -3 z "},"×":{"ha":-493,"x_min":0,"x_max":0,"o":"m 186 482 b 126 425 167 464 147 446 b 138 253 69 369 89 300 b 315 236 192 199 258 182 b 374 293 336 256 354 275 b 432 236 392 275 411 256 b 613 253 493 182 558 197 b 622 425 660 300 681 369 b 563 483 601 444 582 464 b 621 543 582 503 600 522 b 606 722 676 603 660 667 b 432 731 558 769 488 790 b 375 671 413 710 394 690 b 315 731 356 690 336 710 b 143 721 261 789 190 768 b 126 543 89 665 72 599 b 186 482 147 522 167 501 z "},"÷":{"ha":-422,"x_min":0,"x_max":0,"o":"m 224 822 b 410 656 224 726 301 656 b 594 822 515 656 594 726 b 410 1011 594 938 522 1011 b 224 822 300 1011 224 938 z m 154 356 b 663 356 308 343 510 343 b 781 499 746 361 781 421 b 664 622 781 565 746 631 b 154 622 510 608 308 611 b 40 499 74 629 40 565 b 154 356 40 421 74 361 z m 224 118 b 410 -47 224 22 301 -47 b 594 118 515 -47 594 22 b 410 308 594 233 522 308 b 224 118 300 308 224 233 z "},"≠":{"ha":146,"x_min":0,"x_max":0,"o":"m 476 165 b 440 44 464 122 451 82 b 494 -125 418 -40 417 -111 b 632 -15 567 -137 600 -94 b 700 158 654 36 676 96 b 904 165 778 158 854 163 b 1022 299 986 172 1022 226 b 906 414 1022 361 986 422 b 790 408 875 411 835 410 b 815 478 799 432 807 454 b 904 482 850 479 879 481 b 1022 615 986 489 1022 542 b 906 729 1022 676 986 736 b 896 728 903 729 899 728 b 944 897 914 789 931 846 b 904 1063 968 979 975 1051 b 754 953 825 1076 788 1035 b 664 722 726 886 696 807 b 482 729 597 722 532 725 b 367 615 403 736 367 676 b 482 482 367 542 403 489 b 576 476 510 479 542 478 b 554 410 568 454 561 432 b 482 414 528 411 503 413 b 367 299 403 421 367 361 b 476 165 367 228 401 175 z "},"≤":{"ha":146,"x_min":0,"x_max":0,"o":"m 751 629 b 879 832 792 681 844 753 b 860 1051 918 918 949 992 b 631 1013 781 1104 697 1079 b 410 629 514 897 410 742 b 632 238 410 504 519 346 b 863 206 703 171 786 151 b 876 429 950 269 918 344 b 751 629 819 539 790 578 z m 496 -114 b 906 -114 613 -125 804 -122 b 1024 19 988 -108 1024 -54 b 907 135 1024 81 988 142 b 496 135 804 124 613 124 b 382 19 417 140 382 81 b 496 -114 382 -54 417 -108 z "},"≥":{"ha":146,"x_min":0,"x_max":0,"o":"m 635 629 b 511 429 597 578 567 539 b 524 206 468 344 436 269 b 754 238 600 151 683 171 b 976 629 868 346 976 504 b 757 1013 976 742 874 897 b 528 1051 689 1079 606 1104 b 507 832 438 992 468 918 b 635 629 543 753 596 681 z m 493 -114 b 903 -114 610 -125 801 -122 b 1021 19 985 -108 1021 -54 b 904 135 1021 81 985 142 b 493 135 801 124 610 124 b 379 19 414 140 379 81 b 493 -114 379 -54 414 -108 z "},"∞":{"ha":146,"x_min":0,"x_max":0,"o":"m 694 240 b 975 89 758 153 853 89 b 1336 468 1214 89 1336 246 b 975 844 1336 688 1214 844 b 694 693 853 844 757 779 b 417 844 629 779 538 844 b 53 468 178 844 53 688 b 417 89 53 246 178 89 b 694 240 539 89 629 153 z m 564 468 b 422 342 524 404 486 342 b 344 468 367 342 344 401 b 422 592 344 533 367 592 b 564 468 486 592 524 528 z m 828 468 b 969 592 867 528 903 592 b 1044 468 1025 592 1044 533 b 969 342 1044 401 1025 342 b 828 468 903 342 867 404 z "},"∴":{"ha":146,"x_min":0,"x_max":0,"o":"m 508 724 b 694 558 508 629 586 558 b 881 724 801 558 881 629 b 694 914 881 840 808 914 b 508 724 585 914 508 840 z m 215 215 b 401 50 215 121 293 50 b 586 215 507 50 586 121 b 401 406 586 332 514 406 b 215 215 292 406 215 332 z m 803 215 b 988 50 803 121 881 50 b 1174 215 1094 50 1174 121 b 988 406 1174 332 1101 406 b 803 215 879 406 803 332 z "},"°":{"ha":-669,"x_min":0,"x_max":0,"o":"m 65 900 b 286 685 65 774 164 685 b 508 900 410 685 508 774 b 286 1115 508 1025 410 1115 b 65 900 164 1115 65 1025 z m 286 836 b 222 900 250 836 222 858 b 286 965 222 940 250 965 b 350 900 324 965 350 940 b 286 836 350 858 324 836 z "},"′":{"ha":-775,"x_min":0,"x_max":0,"o":"m 150 717 b 367 901 257 717 281 749 b 300 1108 457 1057 469 1108 b 74 897 153 1108 121 1063 b 150 717 33 757 39 717 z "},"″":{"ha":-424,"x_min":0,"x_max":0,"o":"m 150 717 b 367 901 257 717 281 749 b 300 1108 457 1057 469 1108 b 74 897 153 1108 121 1063 b 150 717 33 757 39 717 z m 500 717 b 718 901 608 717 631 749 b 650 1108 807 1057 821 1108 b 424 897 503 1108 471 1063 b 500 717 383 757 388 717 z "},"℃":{"ha":60,"x_min":0,"x_max":0,"o":"m 13 900 b 235 685 13 774 113 685 b 456 900 357 685 456 774 b 235 1115 456 1025 357 1115 b 13 900 113 1115 13 1025 z m 932 -133 b 1201 -72 1047 -133 1124 -114 b 1265 192 1306 -15 1307 97 b 1033 306 1221 290 1144 363 b 932 283 1007 293 975 283 b 800 474 839 283 800 372 b 932 661 800 572 839 661 b 1033 639 975 661 1007 651 b 1263 746 1140 583 1214 650 b 1201 1015 1307 838 1311 960 b 932 1078 1124 1058 1047 1078 b 410 472 529 1078 410 806 b 932 -133 410 138 529 -133 z m 235 836 b 171 900 197 836 171 858 b 235 965 171 940 197 965 b 299 900 271 965 299 940 b 235 836 299 858 271 836 z "},"Å":{"ha":-210,"x_min":0,"x_max":0,"o":"m 447 125 b 583 125 508 111 524 111 b 778 -112 578 17 619 -112 b 971 63 886 -112 965 -44 b 981 482 978 199 981 340 b 714 1042 981 744 918 961 b 738 1140 729 1071 738 1104 b 515 1357 738 1268 639 1357 b 294 1140 394 1357 294 1268 b 318 1042 294 1104 303 1071 b 53 482 114 961 53 744 b 61 63 53 340 56 199 b 253 -112 68 -44 146 -112 b 447 125 414 -112 453 15 z m 515 1076 b 451 1140 479 1076 451 1101 b 515 1206 451 1183 479 1206 b 579 1140 553 1206 579 1183 b 515 1076 579 1101 553 1076 z m 635 504 b 618 457 660 489 638 446 b 428 508 553 492 496 504 b 436 558 404 511 404 560 b 635 504 506 556 579 546 z "},"¢":{"ha":146,"x_min":0,"x_max":0,"o":"m 385 19 b 347 -179 296 -119 317 -151 b 551 -101 388 -212 428 -224 b 865 -147 639 -135 746 -147 b 1075 42 996 -147 1076 -89 b 867 232 1074 171 997 229 b 601 372 758 235 654 290 b 606 404 593 382 599 400 b 633 406 614 413 625 415 b 918 265 699 315 803 265 b 1078 443 1000 265 1061 347 b 1082 544 1085 476 1086 511 b 1149 776 1196 710 1183 747 b 965 721 1113 808 1068 814 b 914 739 950 728 933 735 b 306 317 586 815 307 697 b 385 19 304 186 333 89 z "},"￠":{"ha":146,"x_min":0,"x_max":0,"o":"m 385 19 b 347 -179 296 -119 317 -151 b 551 -101 388 -212 428 -224 b 865 -147 639 -135 746 -147 b 1075 42 996 -147 1076 -89 b 867 232 1074 171 997 229 b 601 372 758 235 654 290 b 606 404 593 382 599 400 b 633 406 614 413 625 415 b 918 265 699 315 803 265 b 1078 443 1000 265 1061 347 b 1082 544 1085 476 1086 511 b 1149 776 1196 710 1183 747 b 965 721 1113 808 1068 814 b 914 739 950 728 933 735 b 306 317 586 815 307 697 b 385 19 304 186 333 89 z "},"£":{"ha":146,"x_min":0,"x_max":0,"o":"m 464 331 l 464 322 b 385 147 464 250 453 213 b 349 50 358 121 349 117 l 349 4 b 476 -124 349 -75 372 -124 l 822 -124 b 1064 26 1029 -124 1064 -71 b 849 179 1064 126 1029 179 b 881 325 869 222 881 258 b 881 358 881 336 881 347 b 947 367 906 360 928 363 b 1035 529 1006 379 1035 442 b 947 692 1035 619 1006 681 l 876 701 b 910 757 881 733 885 754 l 939 761 b 1028 910 997 772 1028 821 b 882 1071 1028 1000 996 1058 b 721 1071 828 1078 775 1078 b 474 808 556 1054 479 938 l 468 696 b 444 692 458 696 453 694 b 358 529 388 682 358 619 b 444 367 358 442 388 378 b 542 364 471 363 513 363 b 542 332 557 364 558 332 z "},"￡":{"ha":146,"x_min":0,"x_max":0,"o":"m 464 331 l 464 322 b 385 147 464 250 453 213 b 349 50 358 121 349 117 l 349 4 b 476 -124 349 -75 372 -124 l 822 -124 b 1064 26 1029 -124 1064 -71 b 849 179 1064 126 1029 179 b 881 325 869 222 881 258 b 881 358 881 336 881 347 b 947 367 906 360 928 363 b 1035 529 1006 379 1035 442 b 947 692 1035 619 1006 681 l 876 701 b 910 757 881 733 885 754 l 939 761 b 1028 910 997 772 1028 821 b 882 1071 1028 1000 996 1058 b 721 1071 828 1078 775 1078 b 474 808 556 1054 479 938 l 468 696 b 444 692 458 696 453 694 b 358 529 388 682 358 619 b 444 367 358 442 388 378 b 542 364 471 363 513 363 b 542 332 557 364 558 332 z "},"¥":{"ha":146,"x_min":0,"x_max":0,"o":"m 521 10 b 701 -125 546 -68 603 -125 b 881 11 797 -125 857 -68 b 935 14 901 13 919 13 b 1053 108 1018 19 1053 49 b 936 183 1053 156 1018 192 b 896 181 925 182 911 182 b 897 210 896 190 897 200 b 935 213 911 210 924 211 b 1053 306 1018 218 1053 246 b 944 382 1053 353 1021 388 b 1207 863 1068 481 1169 660 b 960 1063 1236 1019 1099 1063 b 701 993 838 1063 725 1040 b 754 654 696 882 718 774 b 728 622 760 636 744 622 b 704 643 717 622 708 631 b 638 993 660 769 654 868 b 403 1063 624 1039 519 1063 b 182 863 286 1063 156 1013 b 457 381 210 690 311 493 b 346 306 381 386 346 353 b 461 213 346 246 382 218 b 503 210 474 211 488 211 b 504 181 503 200 504 190 b 461 183 489 182 474 182 b 346 108 382 190 346 156 b 461 14 346 49 382 19 b 521 10 478 13 499 11 z "},"￥":{"ha":146,"x_min":0,"x_max":0,"o":"m 521 10 b 701 -125 546 -68 603 -125 b 881 11 797 -125 857 -68 b 935 14 901 13 919 13 b 1053 108 1018 19 1053 49 b 936 183 1053 156 1018 192 b 896 181 925 182 911 182 b 897 210 896 190 897 200 b 935 213 911 210 924 211 b 1053 306 1018 218 1053 246 b 944 382 1053 353 1021 388 b 1207 863 1068 481 1169 660 b 960 1063 1236 1019 1099 1063 b 701 993 838 1063 725 1040 b 754 654 696 882 718 774 b 728 622 760 636 744 622 b 704 643 717 622 708 631 b 638 993 660 769 654 868 b 403 1063 624 1039 519 1063 b 182 863 286 1063 156 1013 b 457 381 210 690 311 493 b 346 306 381 386 346 353 b 461 213 346 246 382 218 b 503 210 474 211 488 211 b 504 181 503 200 504 190 b 461 183 489 182 474 182 b 346 108 382 190 346 156 b 461 14 346 49 382 19 b 521 10 478 13 499 11 z "},"♂":{"ha":146,"x_min":0,"x_max":0,"o":"m 733 618 b 550 654 679 642 617 654 b 133 264 308 654 133 493 b 550 -126 133 35 308 -126 b 967 264 792 -126 967 35 b 918 456 967 335 949 400 l 1086 621 l 1103 507 b 1154 464 1107 475 1122 460 l 1253 472 b 1290 535 1288 475 1296 496 l 1247 893 b 1231 926 1244 906 1239 918 b 1199 942 1225 933 1211 939 l 826 997 b 768 960 786 1003 774 992 l 751 858 b 789 810 746 826 758 815 l 915 789 z m 550 63 b 350 264 439 63 350 153 b 550 465 350 375 439 465 b 750 264 661 465 750 375 b 550 63 750 153 661 63 z "},"♀":{"ha":146,"x_min":0,"x_max":0,"o":"m 571 35 l 571 -131 b 629 -189 571 -169 589 -189 l 763 -189 b 821 -131 803 -189 821 -169 l 821 35 l 1008 35 b 1067 93 1046 35 1067 53 l 1067 164 b 1008 222 1067 204 1046 222 l 821 222 l 821 311 b 1111 683 994 356 1111 496 b 694 1071 1111 913 936 1071 b 278 683 453 1071 278 913 b 571 310 278 496 394 354 l 571 222 l 383 222 b 325 164 346 222 325 204 l 325 93 b 383 35 325 53 346 35 z m 494 683 b 694 882 494 794 583 882 b 894 683 806 882 894 794 b 694 485 894 572 806 485 b 494 683 583 485 494 572 z "},"∠":{"ha":146,"x_min":0,"x_max":0,"o":"m 568 178 l 1169 579 b 1246 781 1235 622 1246 665 b 1160 918 1246 910 1201 946 l 214 289 b 124 125 153 250 124 207 l 124 68 b 276 -92 124 -39 182 -92 l 1092 -92 b 1274 43 1242 -92 1274 -65 b 1090 178 1274 150 1242 178 z "},"⊥":{"ha":146,"x_min":0,"x_max":0,"o":"m 499 206 b 138 51 176 197 138 161 b 693 -107 138 -78 192 -107 b 1250 51 1196 -107 1250 -78 b 890 206 1250 161 1211 197 b 694 842 889 781 874 842 b 499 206 515 842 499 781 z "},"⌒":{"ha":146,"x_min":0,"x_max":0,"o":"m 117 250 b 286 139 115 200 136 139 b 461 236 432 138 458 190 b 694 483 474 404 560 483 b 928 236 829 483 915 404 b 1103 139 931 190 957 138 b 1272 250 1253 139 1274 200 b 694 771 1254 589 993 771 b 117 250 396 771 135 589 z "},"∂":{"ha":146,"x_min":0,"x_max":0,"o":"m 165 294 b 646 -136 146 -6 378 -136 b 946 -72 746 -136 849 -115 b 1236 485 1139 19 1242 253 b 981 983 1232 681 1149 875 b 644 1068 883 1046 765 1068 b 403 1038 553 1068 490 1065 b 192 771 214 979 149 892 b 488 664 246 614 318 615 b 571 679 510 671 549 679 b 808 547 704 679 801 604 b 760 528 814 513 771 510 b 457 603 704 618 554 626 b 165 294 264 556 176 474 z m 461 204 b 465 271 418 214 435 276 b 731 276 556 256 635 251 b 736 208 761 282 774 224 b 461 204 653 172 550 185 z "},"∇":{"ha":146,"x_min":0,"x_max":0,"o":"m 693 -144 b 1128 440 979 -144 1014 -108 b 1026 1028 1242 982 1196 1019 b 360 1028 918 1031 471 1032 b 260 440 190 1017 147 982 b 693 -144 372 -108 407 -144 z m 593 736 b 794 736 663 735 728 735 b 771 593 786 696 779 647 b 693 251 718 258 711 251 b 617 593 675 251 671 258 b 593 736 607 647 601 696 z "},"≡":{"ha":146,"x_min":0,"x_max":0,"o":"m 522 639 b 865 639 638 629 764 632 b 982 772 949 646 982 699 b 867 888 982 833 949 894 b 522 888 764 875 638 875 b 407 772 442 893 407 833 b 522 639 407 699 442 646 z m 522 324 b 865 324 638 313 764 315 b 982 456 949 331 982 383 b 867 571 982 517 949 579 b 522 571 764 561 638 561 b 407 456 442 578 407 517 b 522 324 407 383 442 331 z m 522 8 b 865 8 638 -3 764 0 b 982 142 949 14 982 68 b 867 257 982 203 949 264 b 522 257 764 244 638 244 b 407 142 442 263 407 203 b 522 8 407 68 442 14 z "},"≒":{"ha":146,"x_min":0,"x_max":0,"o":"m 407 867 b 553 736 407 792 468 736 b 697 867 635 736 697 792 b 553 1014 697 957 640 1014 b 407 867 467 1014 407 957 z m 476 460 b 913 460 593 449 810 451 b 1028 585 994 465 1028 515 b 914 694 1028 643 994 701 b 476 694 810 685 593 685 b 361 585 397 701 361 643 b 476 460 361 515 397 467 z m 476 172 b 913 172 593 163 810 164 b 1028 299 994 178 1028 231 b 914 408 1028 358 994 417 b 476 408 810 399 593 399 b 361 299 397 415 361 358 b 476 172 361 231 397 179 z m 692 -17 b 838 -147 692 -92 753 -147 b 982 -17 919 -147 982 -92 b 838 131 982 74 925 131 b 692 -17 751 131 692 74 z "},"§":{"ha":-207,"x_min":0,"x_max":0,"o":"m 600 -92 b 256 179 528 38 431 179 b 44 -90 71 179 21 53 b 525 -396 76 -285 274 -396 b 994 -110 769 -396 976 -296 b 946 92 1001 -28 983 39 b 994 218 974 128 990 168 b 768 557 1006 400 892 507 b 376 832 557 642 446 763 b 401 854 357 851 381 875 b 563 717 461 797 506 765 b 753 628 619 669 678 628 b 960 806 854 628 950 669 b 499 1076 972 1018 692 1076 b 51 803 242 1076 51 981 b 121 617 51 721 75 660 b 51 461 75 574 51 519 b 310 204 51 311 151 229 b 626 -74 461 182 574 43 b 600 -92 633 -92 608 -101 z m 371 485 b 392 513 347 500 367 525 b 658 317 483 465 608 383 b 636 289 675 297 651 274 b 371 485 565 360 454 432 z "},"※":{"ha":146,"x_min":0,"x_max":0,"o":"m 690 811 b 846 968 775 811 846 882 b 690 1122 846 1051 775 1122 b 536 968 606 1122 536 1051 b 690 811 536 882 606 811 z m 693 274 b 1179 -72 1031 -108 1103 -136 b 863 468 1246 -17 1225 43 b 1175 1017 1236 906 1249 957 b 694 665 1097 1081 1031 1053 b 213 1017 358 1053 290 1081 b 525 468 139 957 151 904 b 208 -72 163 42 142 -17 b 693 274 286 -136 356 -108 z m 1140 317 b 1294 474 1224 317 1294 388 b 1140 628 1294 558 1224 628 b 985 474 1056 628 985 558 b 1140 317 985 388 1056 317 z m 85 474 b 242 317 85 388 156 317 b 396 474 326 317 396 388 b 242 628 396 558 326 628 b 85 474 156 628 85 558 z m 690 -185 b 846 -28 775 -185 846 -114 b 690 126 846 56 775 126 b 536 -28 606 126 536 56 b 690 -185 536 -114 606 -185 z "},"☆":{"ha":146,"x_min":0,"x_max":0,"o":"m 414 347 l 274 -51 b 336 -100 260 -90 301 -124 l 693 151 l 1051 -99 b 1114 -50 1085 -122 1128 -89 l 976 349 l 1290 586 b 1265 661 1324 611 1307 661 l 864 661 l 733 1021 b 656 1021 719 1060 669 1060 l 525 661 l 124 661 b 99 586 82 661 65 611 z m 538 379 l 256 549 b 267 583 233 567 240 583 l 597 583 l 679 858 b 693 876 683 869 688 876 b 707 858 699 876 703 869 l 789 583 l 1119 583 b 1131 549 1146 583 1153 567 l 849 379 l 996 60 b 968 43 1006 35 992 26 l 693 260 l 418 43 b 390 60 394 26 381 35 z "},"★":{"ha":146,"x_min":0,"x_max":0,"o":"m 414 347 l 274 -51 b 336 -100 260 -90 301 -124 l 693 151 l 1051 -99 b 1114 -50 1085 -122 1128 -89 l 976 349 l 1290 586 b 1265 661 1324 611 1307 661 l 864 661 l 733 1021 b 656 1021 719 1060 669 1060 l 525 661 l 124 661 b 99 586 82 661 65 611 z "},"○":{"ha":146,"x_min":0,"x_max":0,"o":"m 75 431 b 694 -165 75 88 339 -165 b 1265 192 963 -165 1175 -22 b 1314 431 1297 264 1314 344 b 694 1026 1314 774 1050 1026 b 75 431 339 1026 75 774 z m 172 431 b 694 944 172 715 410 944 b 1217 431 979 944 1217 715 b 1063 67 1217 288 1157 160 b 694 -85 968 -28 838 -85 b 172 431 410 -85 172 146 z "},"●":{"ha":146,"x_min":0,"x_max":0,"o":"m 82 431 b 694 -160 82 88 338 -160 b 1261 193 963 -160 1172 -19 b 1307 431 1290 265 1307 344 b 694 1021 1307 774 1050 1021 b 82 431 338 1021 82 774 z "},"◎":{"ha":146,"x_min":0,"x_max":0,"o":"m 75 431 b 694 -165 75 88 339 -165 b 1265 192 963 -165 1175 -22 b 1314 431 1297 264 1314 344 b 694 1026 1314 774 1050 1026 b 75 431 339 1026 75 774 z m 172 431 b 694 944 172 715 410 944 b 1217 431 979 944 1217 715 b 1063 67 1217 288 1157 160 b 694 -85 968 -28 838 -85 b 172 431 410 -85 172 146 z m 349 429 b 694 83 349 238 503 83 b 1014 294 838 83 963 171 b 1042 429 1032 338 1042 382 b 694 776 1042 621 886 776 b 349 429 503 776 349 621 z m 694 165 b 444 429 550 165 444 285 b 694 694 444 574 550 694 b 944 429 838 694 944 574 b 793 186 944 319 885 228 b 694 165 763 172 731 165 z "},"◇":{"ha":146,"x_min":0,"x_max":0,"o":"m 118 306 b 576 -153 263 147 415 -7 b 810 -153 678 -246 713 -240 b 1278 317 981 4 1121 144 b 1278 550 1367 414 1372 447 b 821 1007 1133 710 981 863 b 588 1007 718 1101 685 1096 b 118 539 415 850 275 710 b 118 306 31 442 25 407 z m 601 -47 b 224 331 468 71 342 200 b 224 521 147 414 151 442 b 604 903 351 661 464 774 b 794 903 685 975 713 979 b 1174 524 928 783 1054 657 b 1174 333 1250 442 1246 414 b 792 -47 1044 193 932 81 b 601 -47 713 -119 685 -124 z "},"◆":{"ha":146,"x_min":0,"x_max":0,"o":"m 114 306 b 572 -153 258 147 411 -7 b 806 -153 674 -246 708 -240 b 1274 317 976 4 1117 144 b 1274 550 1363 414 1368 447 b 817 1007 1129 710 976 863 b 583 1007 714 1101 681 1096 b 114 539 411 850 271 710 b 114 306 26 442 21 407 z "},"□":{"ha":146,"x_min":0,"x_max":0,"o":"m 79 43 b 278 -156 88 -124 119 -147 b 1111 -156 554 -168 832 -168 b 1310 43 1269 -147 1301 -124 b 1310 818 1322 301 1322 560 b 1111 1017 1301 985 1269 1008 b 278 1017 832 1029 554 1029 b 79 818 119 1008 88 985 b 79 43 67 563 67 303 z m 179 104 b 179 757 167 324 167 542 b 344 922 185 896 211 917 b 1044 922 576 933 810 933 b 1210 757 1178 917 1204 896 b 1210 104 1222 539 1222 322 b 1044 -61 1204 -35 1178 -56 b 344 -61 810 -72 576 -72 b 179 104 211 -56 185 -35 z "},"■":{"ha":146,"x_min":0,"x_max":0,"o":"m 79 43 b 278 -156 88 -124 119 -147 b 1111 -156 554 -168 832 -168 b 1310 43 1269 -147 1301 -124 b 1310 818 1322 301 1322 560 b 1111 1017 1301 985 1269 1008 b 278 1017 832 1029 554 1029 b 79 818 119 1008 88 985 b 79 43 67 563 67 303 z "},"△":{"ha":146,"x_min":0,"x_max":0,"o":"m 125 -114 b 1264 -114 515 -157 876 -157 b 1311 -43 1313 -107 1322 -76 b 740 1018 1161 314 981 658 b 649 1018 713 1061 678 1060 b 78 -43 406 658 231 317 b 125 -114 64 -76 76 -107 z m 1181 22 b 1143 -35 1189 -6 1181 -31 b 246 -35 828 -69 561 -69 b 208 22 207 -31 197 -6 b 656 881 332 313 461 590 b 732 881 679 915 708 915 b 1181 22 925 590 1058 310 z "},"▲":{"ha":146,"x_min":0,"x_max":0,"o":"m 125 -114 b 1264 -114 515 -157 876 -157 b 1311 -43 1313 -107 1322 -76 b 740 1018 1161 314 981 658 b 649 1018 713 1061 678 1060 b 78 -43 406 658 231 317 b 125 -114 64 -76 76 -107 z "},"▽":{"ha":146,"x_min":0,"x_max":0,"o":"m 649 -169 b 740 -169 678 -211 713 -212 b 1311 892 981 190 1161 535 b 1264 963 1322 925 1313 956 b 125 963 876 1006 515 1006 b 78 892 76 956 64 925 b 649 -169 231 532 406 190 z m 1181 826 b 732 -32 1058 539 925 258 b 656 -32 708 -67 679 -67 b 208 826 461 258 332 536 b 246 883 197 854 207 879 b 1143 883 561 918 828 918 b 1181 826 1181 879 1189 854 z "},"▼":{"ha":146,"x_min":0,"x_max":0,"o":"m 649 -169 b 740 -169 678 -211 713 -212 b 1311 892 981 190 1161 535 b 1264 963 1322 925 1313 956 b 125 963 876 1006 515 1006 b 78 892 76 956 64 925 b 649 -169 231 532 406 190 z "},"→":{"ha":146,"x_min":0,"x_max":0,"o":"m 953 303 b 622 294 874 297 767 294 b 68 413 89 294 68 329 b 622 529 68 497 89 529 b 958 521 771 529 879 526 l 922 544 b 835 629 872 576 835 590 l 835 758 b 865 792 835 781 847 792 b 914 778 881 792 896 790 l 1264 554 b 1321 463 1315 522 1321 499 l 1321 367 b 1264 274 1321 328 1314 303 l 914 49 b 865 33 896 38 879 33 b 835 69 847 33 835 46 l 835 196 b 922 283 835 235 872 251 z "},"←":{"ha":146,"x_min":0,"x_max":0,"o":"m 431 521 b 767 529 510 526 618 529 b 1321 413 1300 529 1321 497 b 767 294 1321 329 1300 294 b 438 303 622 294 517 297 l 467 283 b 554 196 518 251 554 235 l 554 69 b 524 33 554 46 542 33 b 475 49 510 33 493 38 l 125 274 b 68 367 75 303 68 328 l 68 463 b 125 554 68 499 74 522 l 475 778 b 524 792 493 790 508 792 b 554 758 542 792 554 781 l 554 629 b 467 544 554 590 518 576 z "},"↑":{"ha":146,"x_min":0,"x_max":0,"o":"m 803 688 b 811 353 808 608 811 500 b 693 -201 811 -181 778 -201 b 575 353 610 -201 575 -181 b 583 683 575 497 578 604 l 564 653 b 476 565 532 603 515 565 l 350 565 b 315 596 328 565 315 576 b 329 644 315 608 318 625 l 556 994 b 647 1050 585 1044 608 1050 l 743 1050 b 835 994 781 1050 804 1046 l 1060 644 b 1074 596 1071 625 1074 610 b 1039 565 1074 576 1061 565 l 911 565 b 825 653 872 565 857 603 z "},"↓":{"ha":146,"x_min":0,"x_max":0,"o":"m 583 167 b 575 496 578 246 575 353 b 693 1050 575 1031 610 1050 b 811 496 778 1050 811 1031 b 803 163 811 350 808 242 l 825 197 b 911 283 857 249 872 283 l 1039 283 b 1074 253 1061 283 1074 272 b 1060 204 1074 239 1071 224 l 835 -144 b 743 -201 804 -196 781 -201 l 647 -201 b 556 -144 608 -201 585 -194 l 329 204 b 315 253 318 224 315 240 b 350 283 315 272 328 283 l 476 283 b 564 197 515 283 532 249 z "},"↔":{"ha":146,"x_min":0,"x_max":0,"o":"m 438 525 b 688 529 506 528 588 529 b 953 525 796 529 883 528 l 922 544 b 835 629 872 576 835 590 l 835 758 b 865 792 835 781 847 792 b 914 778 881 792 896 790 l 1264 554 b 1321 463 1315 522 1321 499 l 1321 367 b 1264 274 1321 328 1314 303 l 914 49 b 865 33 896 38 879 33 b 835 69 847 33 835 46 l 835 196 b 922 283 835 235 872 251 l 946 299 b 688 294 876 296 792 294 b 443 299 590 294 510 296 l 467 283 b 554 196 518 251 554 235 l 554 69 b 524 33 554 46 542 33 b 475 49 510 33 493 38 l 125 274 b 68 367 75 303 68 328 l 68 463 b 125 554 68 499 74 522 l 475 778 b 524 792 493 790 508 792 b 554 758 542 792 554 781 l 554 629 b 467 544 554 590 518 576 z "},"〓":{"ha":0,"x_min":0,"x_max":0,"o":"m 7 643 b 185 497 7 560 43 507 b 1135 497 447 479 883 476 b 1313 643 1276 507 1313 560 b 1135 789 1313 726 1276 779 b 185 789 883 810 447 807 b 7 643 43 779 7 726 z m 7 240 b 185 94 7 157 43 104 b 1135 94 447 76 883 74 b 1313 240 1276 104 1313 157 b 1135 386 1313 324 1276 376 b 185 386 883 407 447 404 b 7 240 43 376 7 324 z "},"«":{"ha":146,"x_min":0,"x_max":0,"o":"m 557 451 b 713 801 628 543 681 685 b 661 1076 739 893 757 1032 b 440 1000 574 1115 496 1079 b 267 663 340 860 292 726 b 215 451 231 575 215 503 b 267 236 215 400 231 326 b 440 -96 292 174 340 44 b 661 -172 496 -174 574 -211 b 713 101 757 -126 739 10 b 557 451 681 219 628 361 z m 1028 451 b 1182 801 1097 543 1149 685 b 1129 1076 1207 893 1226 1032 b 910 1000 1044 1115 965 1079 b 736 663 810 860 761 726 b 686 451 701 575 686 503 b 736 236 686 400 701 326 b 910 -96 761 174 810 44 b 1129 -172 965 -174 1044 -211 b 1182 101 1226 -126 1207 10 b 1028 451 1149 219 1097 361 z "},"≪":{"ha":146,"x_min":0,"x_max":0,"o":"m 557 451 b 713 801 628 543 681 685 b 661 1076 739 893 757 1032 b 440 1000 574 1115 496 1079 b 267 663 340 860 292 726 b 215 451 231 575 215 503 b 267 236 215 400 231 326 b 440 -96 292 174 340 44 b 661 -172 496 -174 574 -211 b 713 101 757 -126 739 10 b 557 451 681 219 628 361 z m 1028 451 b 1182 801 1097 543 1149 685 b 1129 1076 1207 893 1226 1032 b 910 1000 1044 1115 965 1079 b 736 663 810 860 761 726 b 686 451 701 575 686 503 b 736 236 686 400 701 326 b 910 -96 761 174 810 44 b 1129 -172 965 -174 1044 -211 b 1182 101 1226 -126 1207 10 b 1028 451 1149 219 1097 361 z "},"»":{"ha":146,"x_min":0,"x_max":0,"o":"m 832 451 b 676 101 761 361 708 219 b 728 -172 650 10 632 -126 b 949 -96 815 -211 893 -174 b 1122 236 1049 44 1097 174 b 1174 451 1158 326 1174 400 b 1122 663 1174 503 1158 575 b 949 1000 1097 726 1049 860 b 728 1076 893 1079 815 1115 b 676 801 632 1032 650 893 b 832 451 708 685 761 543 z m 361 451 b 207 101 292 361 240 219 b 260 -172 182 10 164 -126 b 479 -96 344 -211 424 -174 b 653 236 579 44 628 174 b 703 451 688 326 703 400 b 653 663 703 503 688 575 b 479 1000 628 726 579 860 b 260 1076 424 1079 344 1115 b 207 801 164 1032 182 893 b 361 451 240 685 292 543 z "},"≫":{"ha":146,"x_min":0,"x_max":0,"o":"m 832 451 b 676 101 761 361 708 219 b 728 -172 650 10 632 -126 b 949 -96 815 -211 893 -174 b 1122 236 1049 44 1097 174 b 1174 451 1158 326 1174 400 b 1122 663 1174 503 1158 575 b 949 1000 1097 726 1049 860 b 728 1076 893 1079 815 1115 b 676 801 632 1032 650 893 b 832 451 708 685 761 543 z m 361 451 b 207 101 292 361 240 219 b 260 -172 182 10 164 -126 b 479 -96 344 -211 424 -174 b 653 236 579 44 628 174 b 703 451 688 326 703 400 b 653 663 703 503 688 575 b 479 1000 628 726 579 860 b 260 1076 424 1079 344 1115 b 207 801 164 1032 182 893 b 361 451 240 685 292 543 z "},"√":{"ha":146,"x_min":0,"x_max":0,"o":"m 282 115 l 229 115 b 53 250 78 117 53 143 b 229 385 53 358 78 385 l 344 385 b 535 258 467 385 504 346 l 611 36 l 926 861 b 1185 1096 1011 1079 1050 1096 b 1246 861 1322 1096 1333 1074 l 747 -350 b 594 -440 710 -429 657 -442 b 451 -350 532 -439 481 -431 z "},"∽":{"ha":146,"x_min":0,"x_max":0,"o":"m 465 560 b 506 543 478 551 492 543 b 583 613 525 543 547 558 b 626 715 617 661 626 694 b 589 768 626 742 608 758 b 415 817 529 799 467 817 b 72 467 194 817 72 669 b 415 115 72 261 194 115 b 717 272 535 115 654 189 b 807 410 749 315 779 363 b 968 572 851 486 907 572 b 1039 467 1014 572 1039 521 b 968 358 1039 410 1014 358 b 918 374 954 358 938 364 b 803 314 896 390 864 399 b 760 218 771 271 760 239 b 799 163 760 188 781 172 b 974 115 857 126 919 115 b 1317 467 1194 115 1317 261 b 974 817 1317 669 1194 817 b 686 660 853 817 742 747 b 596 521 651 617 622 568 b 421 358 550 444 482 358 b 350 467 376 358 350 410 b 421 572 350 521 376 572 b 465 560 433 572 454 564 z "},"∝":{"ha":146,"x_min":0,"x_max":0,"o":"m 753 240 b 1033 90 824 149 928 90 b 1222 129 1089 90 1146 94 b 1261 294 1283 157 1314 168 b 1118 356 1214 413 1185 385 b 1050 342 1092 344 1068 342 b 899 468 988 342 931 394 b 1050 592 931 540 988 592 b 1118 578 1068 592 1092 588 b 1261 639 1185 549 1214 521 b 1222 803 1314 765 1283 775 b 1033 843 1146 839 1089 843 b 753 693 928 843 824 785 b 444 844 688 781 568 844 b 76 468 210 844 76 688 b 444 89 76 246 210 89 b 753 240 568 89 688 153 z m 607 468 b 453 342 565 404 515 342 b 367 468 397 342 367 401 b 453 592 367 533 397 592 b 607 468 515 592 565 528 z "},"∵":{"ha":146,"x_min":0,"x_max":0,"o":"m 401 544 b 586 733 514 544 586 618 b 401 900 586 829 507 900 b 215 733 293 900 215 829 b 401 544 215 618 292 544 z m 988 544 b 1174 733 1101 544 1174 618 b 988 900 1174 829 1094 900 b 803 733 881 900 803 829 b 988 544 803 618 879 544 z m 694 36 b 881 225 808 36 881 111 b 694 392 881 322 801 392 b 508 225 586 392 508 322 b 694 36 508 111 585 36 z "},"∫":{"ha":146,"x_min":0,"x_max":0,"o":"m 507 -212 b 844 56 706 -212 832 -117 l 897 778 b 968 831 900 807 925 831 b 1051 974 1011 831 1049 832 b 921 1117 1054 1108 1014 1117 b 583 849 721 1117 600 1019 l 532 126 b 460 74 529 96 503 74 b 378 -58 415 74 383 74 b 507 -212 369 -203 404 -212 z "},"∬":{"ha":146,"x_min":0,"x_max":0,"o":"m 239 -212 b 575 56 438 -212 563 -117 l 628 778 b 700 831 632 807 656 831 b 783 974 744 831 781 832 b 653 1117 785 1108 746 1117 b 315 849 454 1117 331 1019 l 263 126 b 192 74 261 96 235 74 b 108 -58 147 74 115 74 b 239 -212 101 -203 135 -212 z m 736 -212 b 1072 56 933 -212 1060 -117 l 1125 778 b 1196 831 1128 807 1153 831 b 1279 974 1240 831 1276 832 b 1149 1117 1282 1108 1242 1117 b 813 849 950 1117 828 1019 l 760 126 b 688 74 757 96 732 74 b 606 -58 643 74 611 74 b 736 -212 599 -203 632 -212 z "},"∈":{"ha":146,"x_min":0,"x_max":0,"o":"m 497 557 b 647 642 506 611 542 642 l 769 642 b 1236 779 1207 642 1236 656 b 769 914 1236 903 1207 914 l 599 914 b 167 424 321 914 167 808 b 599 -67 167 39 321 -67 l 769 -67 b 1236 72 1207 -67 1236 -51 b 769 207 1236 194 1207 207 l 647 207 b 497 290 542 207 506 238 l 769 290 b 1236 426 1207 290 1236 306 b 769 557 1236 546 1207 557 z "},"∋":{"ha":146,"x_min":0,"x_max":0,"o":"m 892 290 b 742 207 883 238 847 207 l 619 207 b 153 72 182 207 153 194 b 619 -67 153 -51 182 -67 l 790 -67 b 1222 424 1068 -67 1222 39 b 790 914 1222 808 1068 914 l 619 914 b 153 779 182 914 153 903 b 619 642 153 656 182 642 l 742 642 b 892 557 847 642 883 611 l 619 557 b 153 426 182 557 153 546 b 619 290 153 306 182 290 z "},"⊆":{"ha":146,"x_min":0,"x_max":0,"o":"m 206 618 b 650 225 206 324 372 225 l 769 225 b 1131 376 1076 225 1131 253 b 769 538 1131 511 1076 538 l 700 538 b 563 618 594 538 563 574 b 700 699 563 660 594 699 l 769 699 b 1131 863 1076 699 1131 725 b 769 1010 1131 985 1076 1010 l 650 1010 b 206 618 372 1010 206 911 z m 381 -90 b 1011 -90 496 -100 910 -97 b 1128 43 1094 -83 1128 -31 b 1011 157 1128 103 1094 164 b 381 157 910 147 496 147 b 265 43 300 164 265 103 b 381 -90 265 -31 300 -83 z "},"⊇":{"ha":146,"x_min":0,"x_max":0,"o":"m 258 376 b 619 225 258 253 313 225 l 739 225 b 1183 618 1017 225 1183 324 b 739 1010 1183 911 1017 1010 l 619 1010 b 258 863 313 1010 258 985 b 619 699 258 725 313 699 l 689 699 b 826 618 794 699 826 660 b 689 538 826 574 794 538 l 619 538 b 258 376 313 538 258 511 z m 381 -90 b 1011 -90 496 -100 910 -97 b 1128 43 1094 -83 1128 -31 b 1011 157 1128 103 1094 164 b 381 157 910 147 496 147 b 265 43 300 164 265 103 b 381 -90 265 -31 300 -83 z "},"⊂":{"ha":146,"x_min":0,"x_max":0,"o":"m 193 422 b 676 -28 193 89 399 -28 l 796 -28 b 1183 149 1129 -28 1183 13 b 796 336 1183 297 1129 336 l 725 336 b 550 422 621 336 550 340 b 725 510 550 504 621 510 l 796 510 b 1183 700 1129 510 1183 550 b 796 874 1183 836 1129 874 l 676 874 b 193 422 399 874 193 756 z "},"⊃":{"ha":146,"x_min":0,"x_max":0,"o":"m 193 149 b 579 -28 193 13 247 -28 l 700 -28 b 1183 422 978 -28 1183 89 b 700 874 1183 756 978 874 l 579 874 b 193 700 247 874 193 836 b 579 510 193 550 247 510 l 650 510 b 826 422 756 510 826 504 b 650 336 826 340 756 336 l 579 336 b 193 149 247 336 193 297 z "},"∪":{"ha":146,"x_min":0,"x_max":0,"o":"m 161 274 b 657 -83 161 -14 297 -83 b 1147 274 993 -83 1147 -14 l 1147 414 b 932 993 1147 957 1133 993 b 717 414 732 993 717 957 l 717 304 b 651 226 717 243 704 226 b 593 304 603 226 593 244 l 593 414 b 378 993 593 957 578 993 b 161 414 176 993 161 957 z "},"∩":{"ha":146,"x_min":0,"x_max":0,"o":"m 417 -83 b 632 494 618 -83 632 -49 l 632 604 b 692 683 632 663 642 683 b 757 604 744 683 757 665 l 757 494 b 972 -83 757 -49 771 -83 b 1188 494 1174 -83 1188 -49 l 1188 636 b 697 993 1188 922 1033 993 b 201 636 338 993 201 922 l 201 494 b 417 -83 201 -49 215 -83 z "},"∧":{"ha":146,"x_min":0,"x_max":0,"o":"m 344 -87 b 613 301 538 -87 546 -61 b 693 610 669 604 674 610 b 775 301 713 610 718 604 b 1043 -87 843 -61 849 -87 b 1150 439 1236 -87 1269 -50 b 693 965 1029 932 994 965 b 238 439 393 965 357 932 b 344 -87 119 -50 150 -87 z "},"∨":{"ha":146,"x_min":0,"x_max":0,"o":"m 693 -87 b 1150 438 994 -87 1029 -56 b 1043 965 1269 926 1236 965 b 775 575 849 965 843 938 b 693 268 718 274 713 268 b 613 575 674 268 669 274 b 344 965 546 938 538 965 b 238 438 150 965 119 926 b 693 -87 357 -56 393 -87 z "},"¬":{"ha":146,"x_min":0,"x_max":0,"o":"m 872 356 b 1067 13 874 69 918 13 b 1289 540 1224 13 1289 75 b 692 719 1289 681 1226 719 b 136 539 208 719 136 681 b 692 354 136 397 208 354 b 872 356 765 354 817 354 z "},"￢":{"ha":146,"x_min":0,"x_max":0,"o":"m 872 356 b 1067 13 874 69 918 13 b 1289 540 1224 13 1289 75 b 692 719 1289 681 1226 719 b 136 539 208 719 136 681 b 692 354 136 397 208 354 b 872 356 765 354 817 354 z "},"⇒":{"ha":146,"x_min":0,"x_max":0,"o":"m 1086 482 b 610 458 1021 464 886 458 b 68 558 89 458 68 479 b 610 657 68 639 89 657 b 872 654 718 657 803 656 b 849 717 849 675 849 686 l 849 826 b 889 846 849 858 863 861 l 1264 544 b 1321 450 1310 504 1321 489 l 1321 382 b 1264 289 1321 343 1308 328 l 889 -14 b 849 7 858 -32 849 -25 l 849 115 b 869 176 849 146 849 157 b 610 174 801 175 715 174 b 68 274 89 174 68 194 b 610 372 68 354 89 372 b 1085 350 883 372 1018 367 l 1167 417 z "},"⇔":{"ha":146,"x_min":0,"x_max":0,"o":"m 500 -14 l 125 289 b 68 382 81 328 68 343 l 68 450 b 125 544 68 489 79 504 l 500 846 b 540 826 526 861 540 858 l 540 717 b 517 656 540 686 539 675 b 701 657 568 657 629 657 b 871 656 768 657 824 657 b 849 717 849 675 849 686 l 849 826 b 889 846 849 858 863 861 l 1264 544 b 1321 450 1310 504 1321 489 l 1321 382 b 1264 289 1321 343 1308 328 l 889 -14 b 849 7 858 -32 849 -25 l 849 115 b 868 175 849 144 849 156 b 701 174 821 174 765 174 b 521 175 631 174 571 174 b 540 115 540 156 540 144 l 540 7 b 500 -14 540 -25 531 -32 z m 222 417 l 307 349 b 701 371 361 365 472 371 b 1085 351 918 371 1028 367 l 1167 417 l 1088 481 b 701 458 1032 464 921 458 b 304 483 468 458 357 465 z "},"∀":{"ha":146,"x_min":0,"x_max":0,"o":"m 625 828 b 429 1063 632 935 592 1063 b 240 890 325 1063 247 996 b 229 471 232 753 229 613 b 694 -125 229 136 329 -125 b 1160 471 1060 -125 1160 136 b 1149 890 1160 613 1157 753 b 957 1063 1142 996 1063 1063 b 763 828 797 1063 757 933 b 625 828 703 842 686 842 z m 615 394 b 606 443 582 393 582 440 b 796 493 674 446 732 458 b 814 446 817 506 838 464 b 615 394 758 407 685 396 z "},"∃":{"ha":146,"x_min":0,"x_max":0,"o":"m 251 126 b 394 207 251 215 285 235 b 508 192 432 199 475 192 b 736 229 608 192 676 206 b 725 268 767 240 756 281 b 346 267 603 225 422 219 b 251 472 282 307 251 367 b 346 675 251 575 282 636 b 725 674 422 721 603 718 b 736 713 756 663 767 701 b 508 751 676 736 608 751 b 394 735 475 751 432 746 b 251 817 285 706 251 726 b 685 1076 251 1039 474 1078 b 1121 851 883 1075 1101 1029 b 1138 472 1135 735 1138 610 b 1121 89 1138 332 1135 207 b 685 -135 1101 -86 883 -133 b 251 126 474 -136 251 -96 z "},"´":{"ha":-775,"x_min":0,"x_max":0,"o":"m 150 717 b 367 901 257 717 281 749 b 300 1108 457 1057 469 1108 b 74 897 153 1108 121 1063 b 150 717 33 757 39 717 z "},"˜":{"ha":146,"x_min":0,"x_max":0,"o":"m 825 975 b 783 961 818 964 803 957 b 569 1032 740 969 692 1025 b 275 814 396 1043 289 940 b 403 701 274 761 315 713 b 574 749 494 690 557 711 b 611 761 579 761 590 765 b 824 694 658 754 699 701 b 1114 911 996 683 1103 786 b 989 1024 1118 964 1086 1015 b 825 975 885 1032 842 1013 z "},"ˇ":{"ha":-449,"x_min":0,"x_max":0,"o":"m 132 821 b 399 676 229 688 258 676 b 663 821 538 676 565 688 b 631 1019 800 1004 800 1019 b 442 928 504 1019 494 1011 b 399 867 406 868 406 867 b 353 928 390 867 390 868 b 164 1019 301 1011 290 1019 b 132 821 -6 1019 -6 1004 z "},"˘":{"ha":-476,"x_min":0,"x_max":0,"o":"m 32 901 b 382 676 32 761 121 676 b 733 901 646 676 733 761 l 733 961 b 581 1019 733 1018 725 1019 b 429 981 438 1019 429 1019 l 429 940 b 382 881 429 904 425 881 b 339 940 343 881 339 904 l 339 981 b 186 1019 339 1019 329 1019 b 32 961 42 1019 32 1018 z "},"˝":{"ha":-421,"x_min":0,"x_max":0,"o":"m 150 717 b 367 901 257 717 281 749 b 300 1108 457 1057 469 1108 b 74 897 153 1108 121 1063 b 150 717 33 757 39 717 z m 503 717 b 721 901 611 717 633 749 b 653 1108 810 1057 824 1108 b 426 897 506 1108 474 1063 b 503 717 386 757 392 717 z "},"˚":{"ha":-669,"x_min":0,"x_max":0,"o":"m 65 900 b 286 685 65 774 164 685 b 508 900 410 685 508 774 b 286 1115 508 1025 410 1115 b 65 900 164 1115 65 1025 z m 286 836 b 222 900 250 836 222 858 b 286 965 222 940 250 965 b 350 900 324 965 350 940 b 286 836 350 858 324 836 z "},"˙":{"ha":-743,"x_min":0,"x_max":0,"o":"m 65 875 b 251 710 65 781 142 710 b 435 875 357 710 435 781 b 251 1065 435 992 364 1065 b 65 875 140 1065 65 992 z "},"¸":{"ha":-649,"x_min":0,"x_max":0,"o":"m 357 -146 b 379 -21 351 -107 363 -65 b 342 26 390 10 372 26 l 251 26 b 203 -18 226 26 218 13 b 135 -247 169 -82 142 -174 b 176 -285 132 -272 160 -287 b 315 -315 204 -279 315 -272 b 221 -349 315 -337 289 -349 b 125 -336 185 -349 156 -346 b 68 -340 100 -329 78 -328 b 32 -457 46 -368 28 -424 b 76 -494 33 -471 53 -486 b 256 -518 128 -512 194 -518 b 560 -307 467 -518 560 -453 b 357 -146 560 -214 453 -149 z "},"˛":{"ha":-722,"x_min":0,"x_max":0,"o":"m 18 -304 b 269 -518 18 -439 121 -518 b 463 -481 311 -518 404 -504 b 504 -439 485 -469 503 -457 b 469 -311 508 -403 490 -340 b 413 -304 460 -297 436 -296 b 349 -314 394 -310 368 -314 b 269 -200 283 -314 269 -278 b 278 -125 269 -175 274 -156 b 240 -78 285 -87 271 -78 l 94 -78 b 46 -122 69 -78 57 -92 b 18 -304 24 -181 18 -254 z "},"¡":{"ha":-731,"x_min":0,"x_max":0,"o":"m 257 394 b 442 583 367 394 442 468 b 257 750 442 679 365 750 b 72 583 150 750 72 679 b 257 394 72 468 143 394 z m 68 -361 b 257 -518 71 -453 147 -518 b 446 -361 367 -518 443 -453 b 415 188 451 -167 436 7 b 257 331 407 272 356 331 b 97 188 156 331 107 272 b 68 -361 76 7 61 -167 z "},"¿":{"ha":-361,"x_min":0,"x_max":0,"o":"m 449 364 b 635 556 560 364 635 439 b 449 721 635 650 558 721 b 265 556 343 721 265 650 b 449 364 265 439 336 364 z m 40 -221 b 435 -519 40 -399 160 -519 b 843 -221 686 -519 843 -399 b 661 -58 843 -133 792 -58 b 483 -169 560 -58 493 -118 b 438 -207 481 -193 464 -207 b 399 -174 414 -207 399 -204 b 449 -96 399 -133 421 -114 b 576 10 500 -65 546 -28 b 622 189 625 71 631 151 b 451 300 607 253 547 300 b 278 189 356 300 301 257 b 242 124 272 174 253 136 b 139 39 225 103 171 67 b 40 -221 71 -21 40 -110 z "},"ː":{"ha":-724,"x_min":0,"x_max":0,"o":"m 208 549 b 326 550 240 499 297 497 l 451 769 b 393 868 485 828 464 868 l 122 868 b 71 769 51 868 35 826 z m 122 14 l 393 14 b 451 113 464 14 483 56 l 326 335 b 208 336 297 388 239 385 l 71 114 b 122 14 36 57 51 14 z "},"∶":{"ha":-724,"x_min":0,"x_max":0,"o":"m 208 549 b 326 550 240 499 297 497 l 451 769 b 393 868 485 828 464 868 l 122 868 b 71 769 51 868 35 826 z m 122 14 l 393 14 b 451 113 464 14 483 56 l 326 335 b 208 336 297 388 239 385 l 71 114 b 122 14 36 57 51 14 z "},"∮":{"ha":146,"x_min":0,"x_max":0,"o":"m 829 119 b 1094 418 1014 138 1094 222 l 1094 461 b 876 751 1094 639 1029 724 l 878 778 b 949 831 882 807 906 831 b 1032 974 993 831 1029 832 b 901 1117 1035 1108 994 1117 b 564 849 703 1117 579 1019 l 557 758 b 297 461 375 739 297 654 l 297 418 b 511 126 297 242 363 156 b 440 74 508 96 483 74 b 357 -58 396 74 363 74 b 488 -212 350 -203 385 -212 b 825 56 686 -212 813 -117 z m 521 267 b 467 397 483 288 467 328 l 467 479 b 547 622 467 564 490 606 z m 865 614 b 925 479 907 593 925 551 l 925 397 b 839 256 925 311 899 269 z "},"∑":{"ha":146,"x_min":0,"x_max":0,"o":"m 696 163 l 919 386 b 919 554 974 440 968 506 l 696 776 l 872 776 b 1108 926 1068 776 1108 790 b 872 1076 1108 1065 1067 1076 l 383 1076 b 257 964 288 1076 257 1049 l 257 869 b 321 700 257 788 269 750 l 563 471 l 321 240 b 257 72 269 190 257 154 l 257 -24 b 383 -136 257 -108 288 -136 l 896 -136 b 1132 14 1092 -136 1132 -124 b 896 163 1132 151 1089 163 z "},"∏":{"ha":146,"x_min":0,"x_max":0,"o":"m 635 694 l 754 694 l 754 85 b 976 -506 754 -456 768 -506 b 1197 85 1183 -506 1197 -456 l 1197 950 b 1047 1065 1197 1046 1168 1065 l 342 1065 b 192 950 221 1065 192 1046 l 192 85 b 413 -506 192 -456 206 -506 b 635 85 621 -506 635 -456 z "},"¤":{"ha":1,"x_min":0,"x_max":0,"o":"m 426 57 b 639 10 489 26 561 10 b 844 64 717 10 786 29 b 982 -51 888 21 935 -18 b 1142 -17 1021 -82 1079 -78 b 1178 144 1203 47 1207 103 b 1031 311 1136 201 1085 260 b 1051 447 1043 354 1051 400 b 1035 585 1051 493 1046 540 b 1178 749 1088 636 1138 692 b 1142 908 1207 788 1203 846 b 982 943 1079 969 1021 974 b 865 846 942 914 903 881 b 643 911 806 886 732 911 b 407 853 553 911 474 890 b 297 943 372 885 335 915 b 138 908 257 974 200 969 b 101 749 75 846 72 788 b 217 611 135 701 174 654 b 192 447 201 561 192 506 b 221 285 192 389 203 335 b 101 144 176 240 136 192 b 138 -17 72 103 75 47 b 297 -51 200 -78 257 -82 b 426 57 342 -19 385 17 z m 578 369 b 628 561 613 436 625 493 b 676 553 629 585 678 585 b 628 354 676 485 665 408 b 578 369 610 329 568 349 z "},"℉":{"ha":60,"x_min":0,"x_max":0,"o":"m 13 900 b 235 1115 13 1025 113 1115 b 456 900 357 1115 456 1025 b 235 685 456 774 357 685 b 13 900 113 685 13 774 z m 872 257 b 858 64 871 188 867 125 b 676 -122 846 -40 790 -122 b 490 64 558 -122 501 -40 b 469 472 478 182 469 333 b 486 853 469 611 472 736 b 907 1078 506 1031 708 1076 b 1278 867 1183 1079 1278 1022 b 1140 703 1278 750 1226 688 b 1046 713 1103 708 1081 713 b 871 675 999 713 918 699 b 881 636 842 660 851 625 b 1182 638 992 681 1107 685 b 1278 446 1247 596 1278 550 b 1182 256 1278 343 1247 294 b 872 257 1107 208 985 213 z m 171 900 b 235 836 171 858 197 836 b 299 900 271 836 299 858 b 235 965 299 940 271 965 b 171 900 197 965 171 940 z "},"‰":{"ha":190,"x_min":0,"x_max":0,"o":"m 219 493 b 428 785 358 493 428 608 b 219 1076 428 961 358 1076 b 13 785 82 1076 13 961 b 219 493 13 608 82 493 z m 222 -124 b 393 -14 304 -139 351 -94 b 813 899 515 233 707 646 b 790 1064 849 982 871 1049 b 608 954 708 1079 649 1038 b 188 46 482 707 293 297 b 222 -124 150 -40 142 -108 z m 171 699 b 221 890 204 765 218 822 b 269 882 222 914 269 915 b 219 683 268 813 260 738 b 171 699 203 657 160 678 z m 768 -135 b 975 157 906 -135 975 -18 b 768 449 975 333 906 449 b 561 157 629 449 561 333 b 768 -135 561 -18 629 -135 z m 1211 -135 b 1418 157 1349 -135 1418 -18 b 1211 449 1418 333 1349 449 b 1003 157 1072 449 1003 333 b 1211 -135 1003 -18 1072 -135 z m 719 71 b 769 264 753 138 765 196 b 818 256 771 286 818 288 b 768 56 815 186 806 111 b 719 71 750 31 708 51 z m 1163 71 b 1213 264 1196 138 1208 196 b 1261 256 1214 286 1261 288 b 1211 56 1258 186 1250 111 b 1163 71 1193 31 1150 51 z "},"◁":{"ha":146,"x_min":0,"x_max":0,"o":"m 128 376 b 1161 -194 488 136 804 -44 b 1232 -147 1194 -206 1225 -196 b 1232 992 1275 240 1275 601 b 1161 1039 1225 1040 1194 1053 b 128 468 801 886 488 711 b 128 376 86 439 85 404 z m 1096 -64 b 265 385 808 58 556 192 b 265 461 231 408 231 436 b 1096 908 556 656 806 785 b 1153 871 1124 919 1149 910 b 1153 -26 1188 556 1188 289 b 1096 -64 1149 -65 1124 -72 z "},"◀":{"ha":146,"x_min":0,"x_max":0,"o":"m 128 376 b 1161 -194 488 136 804 -44 b 1232 -147 1194 -206 1225 -196 b 1232 992 1275 240 1275 601 b 1161 1039 1225 1040 1194 1053 b 128 468 801 886 488 711 b 128 376 86 439 85 404 z "},"▷":{"ha":146,"x_min":0,"x_max":0,"o":"m 156 -147 b 226 -194 163 -196 193 -206 b 1260 376 583 -44 900 136 b 1260 468 1303 404 1301 439 b 226 1039 900 711 586 886 b 156 992 193 1053 163 1040 b 156 -147 113 601 113 240 z m 292 -64 b 235 -26 264 -72 239 -65 b 235 871 200 289 200 556 b 292 908 239 910 264 919 b 1122 461 582 785 832 656 b 1122 385 1157 436 1157 408 b 292 -64 832 192 579 58 z "},"▶":{"ha":146,"x_min":0,"x_max":0,"o":"m 156 -147 b 226 -194 163 -196 193 -206 b 1260 376 583 -44 900 136 b 1260 468 1303 404 1301 439 b 226 1039 900 711 586 886 b 156 992 193 1053 163 1040 b 156 -147 113 601 113 240 z "},"♤":{"ha":146,"x_min":0,"x_max":0,"o":"m 836 143 b 1028 97 874 104 938 97 b 1249 329 1160 97 1249 203 b 760 1007 1249 626 835 706 b 694 1071 747 1054 718 1071 b 629 1007 671 1071 642 1054 b 140 329 554 706 140 626 b 361 97 140 203 229 97 b 553 143 451 97 515 104 l 553 101 b 350 -67 553 -12 475 -50 b 294 -112 333 -69 294 -75 b 358 -154 294 -140 324 -154 l 1031 -154 b 1094 -112 1065 -154 1094 -140 b 1039 -67 1094 -75 1056 -69 b 836 101 914 -50 836 -12 z m 647 282 b 397 165 589 199 471 165 b 232 354 290 165 232 250 b 654 864 232 554 581 683 b 694 915 669 900 681 915 b 733 864 707 915 719 900 b 1156 354 808 683 1156 554 b 992 165 1156 250 1099 165 b 742 282 918 165 800 199 l 742 82 b 803 -40 742 -10 779 -28 b 847 -69 814 -47 847 -54 b 796 -85 847 -85 824 -85 l 593 -85 b 542 -69 565 -85 542 -85 b 586 -40 542 -54 575 -47 b 647 82 610 -28 647 -10 z "},"♠":{"ha":146,"x_min":0,"x_max":0,"o":"m 836 143 b 1028 97 874 104 938 97 b 1249 329 1160 97 1249 203 b 760 1007 1249 626 835 706 b 694 1071 747 1054 718 1071 b 629 1007 671 1071 642 1054 b 140 329 554 706 140 626 b 361 97 140 203 229 97 b 553 143 451 97 515 104 l 553 101 b 350 -67 553 -12 475 -50 b 294 -118 333 -69 294 -67 b 358 -154 294 -137 324 -154 l 1031 -154 b 1094 -118 1065 -154 1094 -137 b 1039 -67 1094 -67 1056 -69 b 836 101 914 -50 836 -12 z "},"♡":{"ha":146,"x_min":0,"x_max":0,"o":"m 694 831 b 417 1026 647 942 556 1026 b 78 661 224 1026 78 886 b 561 -115 78 363 294 72 b 693 -168 604 -146 643 -167 b 828 -115 744 -168 783 -147 b 1311 661 1094 72 1311 363 b 972 1026 1311 886 1165 1026 b 694 831 833 1026 740 942 z m 696 638 b 965 936 739 792 854 936 b 1211 653 1106 936 1211 851 b 803 -33 1211 400 1026 143 b 693 -78 767 -60 735 -78 b 586 -33 653 -76 621 -60 b 178 653 363 143 178 400 b 424 936 178 851 283 936 b 693 638 533 936 649 792 z "},"♥":{"ha":146,"x_min":0,"x_max":0,"o":"m 694 831 b 417 1026 647 942 556 1026 b 78 661 224 1026 78 886 b 561 -115 78 363 294 72 b 693 -168 604 -146 643 -167 b 828 -115 744 -168 783 -147 b 1311 661 1094 72 1311 363 b 972 1026 1311 886 1165 1026 b 694 831 833 1026 740 942 z "},"♧":{"ha":146,"x_min":0,"x_max":0,"o":"m 836 182 b 999 111 868 135 935 111 b 1268 381 1143 111 1268 217 b 940 633 1268 519 1150 679 b 974 765 967 678 972 722 b 694 1028 978 910 851 1028 b 415 765 538 1028 411 910 b 449 633 417 722 422 678 b 121 381 239 679 121 519 b 390 111 121 217 246 111 b 553 182 454 111 521 135 l 553 101 b 350 -68 553 -14 475 -51 b 294 -114 333 -71 294 -76 b 358 -156 294 -142 324 -156 l 1031 -156 b 1094 -114 1065 -156 1094 -142 b 1039 -68 1094 -76 1056 -71 b 836 101 914 -51 836 -14 z m 561 328 b 390 192 550 251 460 192 b 217 382 290 192 217 261 b 389 567 217 488 285 560 b 546 507 467 572 522 538 l 603 590 b 510 765 539 622 510 694 b 694 946 510 858 567 946 b 879 765 822 946 879 858 b 786 590 879 694 850 622 l 843 507 b 1000 567 865 538 922 572 b 1172 382 1104 560 1172 488 b 999 192 1172 261 1099 192 b 828 328 928 192 839 251 l 739 328 l 739 81 b 803 -42 739 -11 779 -28 b 847 -71 814 -49 847 -54 b 796 -86 847 -86 824 -86 l 593 -86 b 542 -71 565 -86 542 -86 b 586 -42 542 -54 575 -49 b 650 81 610 -28 650 -11 l 650 328 z "},"♣":{"ha":146,"x_min":0,"x_max":0,"o":"m 836 182 b 999 111 868 135 935 111 b 1268 381 1143 111 1268 217 b 940 633 1268 519 1150 679 b 974 765 967 678 972 722 b 694 1028 978 910 851 1028 b 415 765 538 1028 411 910 b 449 633 417 722 422 678 b 121 381 239 679 121 519 b 390 111 121 217 246 111 b 553 182 454 111 521 135 l 553 101 b 350 -68 553 -14 475 -51 b 294 -114 333 -71 294 -76 b 358 -156 294 -142 324 -156 l 1031 -156 b 1094 -114 1065 -156 1094 -142 b 1039 -68 1094 -76 1056 -71 b 836 101 914 -51 836 -14 z "},"⊙":{"ha":146,"x_min":0,"x_max":0,"o":"m 68 450 b 694 -174 68 67 349 -174 b 1319 450 1040 -174 1319 67 b 694 1075 1319 836 1040 1075 b 68 450 349 1075 68 836 z m 694 57 b 322 450 490 57 322 193 b 694 844 322 707 490 844 b 1067 450 900 844 1067 707 b 694 57 1067 193 900 57 z m 694 288 b 858 450 789 288 858 357 b 694 615 858 549 790 615 b 533 450 596 615 533 549 b 694 288 533 357 597 288 z "},"◉":{"ha":146,"x_min":0,"x_max":0,"o":"m 68 450 b 694 -174 68 67 349 -174 b 1319 450 1040 -174 1319 67 b 694 1075 1319 836 1040 1075 b 68 450 349 1075 68 836 z m 694 57 b 322 450 490 57 322 193 b 694 844 322 707 490 844 b 1067 450 900 844 1067 707 b 694 57 1067 193 900 57 z m 694 288 b 858 450 789 288 858 357 b 694 615 858 549 790 615 b 533 450 596 615 533 549 b 694 288 533 357 597 288 z "},"◈":{"ha":146,"x_min":0,"x_max":0,"o":"m 118 306 b 576 -153 263 147 415 -7 b 810 -153 678 -246 713 -240 b 1278 317 981 4 1121 144 b 1278 550 1367 414 1372 447 b 821 1007 1133 710 981 863 b 588 1007 718 1101 685 1096 b 118 539 415 850 275 710 b 118 306 31 442 25 407 z m 601 -47 b 224 331 468 71 342 200 b 224 521 147 414 151 442 b 604 903 351 661 464 774 b 794 903 685 975 713 979 b 1174 524 928 783 1054 657 b 1174 333 1250 442 1246 414 b 792 -47 1044 193 932 81 b 601 -47 713 -119 685 -124 z m 381 363 b 633 110 458 274 543 189 b 761 110 689 57 708 61 b 1017 364 857 196 929 269 b 1017 493 1065 418 1069 438 b 764 746 936 583 854 665 b 635 746 708 799 689 794 b 381 490 540 658 467 586 b 381 363 332 438 328 418 z "},"▣":{"ha":146,"x_min":0,"x_max":0,"o":"m 79 43 b 278 -156 88 -124 119 -147 b 1111 -156 554 -168 832 -168 b 1310 43 1269 -147 1301 -124 b 1310 818 1322 301 1322 560 b 1111 1017 1301 985 1269 1008 b 278 1017 832 1029 554 1029 b 79 818 119 1008 88 985 b 79 43 67 563 67 303 z m 179 104 b 179 757 167 324 167 542 b 344 922 185 896 211 917 b 1044 922 576 933 810 933 b 1210 757 1178 917 1204 896 b 1210 104 1222 539 1222 322 b 1044 -61 1204 -35 1178 -56 b 344 -61 810 -72 576 -72 b 179 104 211 -56 185 -35 z m 364 222 b 471 117 368 133 386 121 b 918 117 619 110 768 110 b 1024 222 1003 121 1021 133 b 1024 639 1031 361 1031 500 b 918 744 1021 728 1003 740 b 471 744 768 751 619 751 b 364 639 386 740 368 728 b 364 222 358 501 358 363 z "},"◐":{"ha":146,"x_min":0,"x_max":0,"o":"m 75 431 b 694 -165 75 88 339 -165 b 1265 192 963 -165 1175 -22 b 1314 431 1297 264 1314 344 b 694 1026 1314 774 1050 1026 b 75 431 339 1026 75 774 z m 694 944 b 1217 431 979 944 1217 715 b 694 -85 1217 146 979 -85 z "},"◑":{"ha":146,"x_min":0,"x_max":0,"o":"m 75 431 b 694 -165 75 88 339 -165 b 1265 192 963 -165 1175 -22 b 1314 431 1297 264 1314 344 b 694 1026 1314 774 1050 1026 b 75 431 339 1026 75 774 z m 694 -85 b 172 431 410 -85 172 146 b 694 944 172 715 410 944 z "},"▒":{"ha":146,"x_min":0,"x_max":0,"o":"m 1153 910 l 1257 910 l 1257 1019 l 1153 1019 z m 472 910 l 576 910 l 576 1019 l 472 1019 z m 132 910 l 236 910 l 236 1019 l 132 1019 z m 304 910 l 408 910 l 408 1019 l 304 1019 z m 811 910 l 918 910 l 918 1019 l 811 1019 z m 983 910 l 1086 910 l 1086 1019 l 983 1019 z m 642 910 l 747 910 l 747 1019 l 642 1019 z m 1153 742 l 1257 742 l 1257 844 l 1153 844 z m 472 742 l 576 742 l 576 844 l 472 844 z m 132 742 l 236 742 l 236 844 l 132 844 z m 304 742 l 408 742 l 408 844 l 304 844 z m 811 742 l 918 742 l 918 844 l 811 844 z m 983 742 l 1086 742 l 1086 844 l 983 844 z m 642 742 l 747 742 l 747 844 l 642 844 z m 1153 575 l 1257 575 l 1257 678 l 1153 678 z m 472 575 l 576 575 l 576 678 l 472 678 z m 132 575 l 236 575 l 236 678 l 132 678 z m 304 575 l 408 575 l 408 678 l 304 678 z m 811 575 l 918 575 l 918 678 l 811 678 z m 983 575 l 1086 575 l 1086 678 l 983 678 z m 642 575 l 747 575 l 747 678 l 642 678 z m 642 401 l 747 401 l 747 508 l 642 508 z m 983 401 l 1086 401 l 1086 508 l 983 508 z m 811 401 l 918 401 l 918 508 l 811 508 z m 304 401 l 408 401 l 408 508 l 304 508 z m 132 401 l 236 401 l 236 508 l 132 508 z m 472 401 l 576 401 l 576 508 l 472 508 z m 1153 401 l 1257 401 l 1257 508 l 1153 508 z m 1153 232 l 1257 232 l 1257 336 l 1153 336 z m 472 232 l 576 232 l 576 336 l 472 336 z m 132 232 l 236 232 l 236 336 l 132 336 z m 304 232 l 408 232 l 408 336 l 304 336 z m 811 232 l 918 232 l 918 336 l 811 336 z m 983 232 l 1086 232 l 1086 336 l 983 336 z m 642 232 l 747 232 l 747 336 l 642 336 z m 1153 67 l 1257 67 l 1257 168 l 1153 168 z m 472 67 l 576 67 l 576 168 l 472 168 z m 132 67 l 236 67 l 236 168 l 132 168 z m 304 67 l 408 67 l 408 168 l 304 168 z m 811 67 l 918 67 l 918 168 l 811 168 z m 983 67 l 1086 67 l 1086 168 l 983 168 z m 642 67 l 747 67 l 747 168 l 642 168 z m 1153 -103 l 1257 -103 l 1257 3 l 1153 3 z m 472 -103 l 576 -103 l 576 3 l 472 3 z m 132 -103 l 236 -103 l 236 3 l 132 3 z m 304 -103 l 408 -103 l 408 3 l 304 3 z m 811 -103 l 918 -103 l 918 3 l 811 3 z m 983 -103 l 1086 -103 l 1086 3 l 983 3 z m 642 -103 l 747 -103 l 747 3 l 642 3 z "},"▤":{"ha":146,"x_min":0,"x_max":0,"o":"m 278 -156 b 1111 -156 554 -168 832 -168 b 1310 43 1269 -147 1301 -124 b 1310 818 1322 301 1322 560 b 1111 1017 1301 985 1269 1008 b 278 1017 832 1029 554 1029 b 79 818 119 1008 88 985 b 79 43 67 563 67 303 b 278 -156 88 -124 119 -147 z m 178 743 b 179 757 178 747 179 751 b 344 922 185 896 211 917 b 1044 922 576 933 810 933 b 1210 757 1178 917 1204 896 l 1210 743 z m 169 469 b 174 661 171 533 171 597 l 1214 661 b 1219 469 1217 597 1218 533 z m 174 199 b 169 390 171 263 171 326 l 1219 390 b 1214 199 1218 326 1217 263 z m 178 114 b 178 117 178 115 178 115 l 1210 117 l 1210 104 b 1044 -61 1204 -35 1178 -56 b 344 -61 810 -72 576 -72 b 179 104 211 -56 185 -35 b 179 107 179 106 179 106 z "},"▥":{"ha":146,"x_min":0,"x_max":0,"o":"m 278 -156 b 1111 -156 554 -168 832 -168 b 1310 43 1269 -147 1301 -124 b 1310 818 1322 301 1322 560 b 1111 1017 1301 985 1269 1008 b 278 1017 832 1029 554 1029 b 79 818 119 1008 88 985 b 79 43 67 563 67 303 b 278 -156 88 -124 119 -147 z m 644 -69 b 464 -65 583 -68 524 -68 l 464 926 b 644 931 524 929 583 929 z m 925 -65 b 744 -69 864 -68 804 -68 l 744 931 b 925 926 804 929 864 929 z m 1026 -61 l 1026 922 l 1044 922 b 1210 757 1178 917 1204 896 b 1210 104 1222 539 1222 322 b 1044 -61 1204 -35 1178 -56 z m 363 -61 l 344 -61 b 179 104 211 -56 185 -35 b 179 757 167 324 167 542 b 344 922 185 896 211 917 l 363 922 z "},"▨":{"ha":146,"x_min":0,"x_max":0,"o":"m 278 -156 b 1111 -156 554 -168 832 -168 b 1310 43 1269 -147 1301 -124 b 1310 818 1322 301 1322 560 b 1111 1017 1301 985 1269 1008 b 278 1017 832 1029 554 1029 b 79 818 119 1008 88 985 b 79 43 67 563 67 303 b 278 -156 88 -124 119 -147 z m 169 349 b 172 621 168 440 169 531 l 479 928 b 751 931 569 931 660 931 z m 199 -8 b 179 104 186 15 181 51 b 172 236 176 149 174 192 l 864 928 b 1044 922 924 926 983 925 b 1121 914 1075 921 1100 918 z m 178 743 b 178 746 178 744 178 744 l 179 754 b 179 757 179 756 179 756 b 344 922 185 896 211 917 l 358 922 z m 522 -67 b 344 -61 463 -65 403 -64 b 267 -53 313 -60 288 -57 l 1190 868 b 1210 757 1203 843 1207 808 b 1215 624 1213 713 1214 668 z m 908 -67 b 636 -69 817 -69 726 -69 l 1218 511 b 1215 239 1219 421 1218 329 z m 1029 -61 l 1210 118 l 1210 104 b 1044 -61 1204 -35 1178 -56 z "},"▧":{"ha":146,"x_min":0,"x_max":0,"o":"m 278 -156 b 1111 -156 554 -168 832 -168 b 1310 43 1269 -147 1301 -124 b 1310 818 1322 301 1322 560 b 1111 1017 1301 985 1269 1008 b 278 1017 832 1029 554 1029 b 79 818 119 1008 88 985 b 79 43 67 563 67 303 b 278 -156 88 -124 119 -147 z m 638 931 b 908 928 728 931 818 931 l 1215 619 b 1218 349 1218 529 1219 439 z m 267 914 b 344 922 288 918 313 921 b 524 929 404 925 464 928 l 1215 235 b 1210 104 1214 192 1213 147 b 1190 -8 1207 51 1203 15 z m 1210 742 l 1029 922 l 1044 922 b 1210 757 1178 917 1204 896 z m 172 624 b 179 757 174 668 176 713 b 199 868 181 808 186 843 l 1121 -53 b 1044 -61 1100 -57 1075 -60 b 865 -67 985 -64 925 -65 z m 172 239 b 169 511 169 329 168 421 l 751 -69 b 481 -67 661 -69 571 -69 z m 358 -61 l 344 -61 b 179 104 211 -56 185 -35 b 178 118 179 108 178 113 z "},"▦":{"ha":146,"x_min":0,"x_max":0,"o":"m 278 -156 b 1111 -156 554 -168 832 -168 b 1310 43 1269 -147 1301 -124 b 1310 818 1322 301 1322 560 b 1111 1017 1301 985 1269 1008 b 278 1017 832 1029 554 1029 b 79 818 119 1008 88 985 b 79 43 67 563 67 303 b 278 -156 88 -124 119 -147 z m 464 743 l 464 926 b 644 931 524 929 583 929 l 644 743 z m 744 743 l 744 931 b 925 926 804 929 864 929 l 925 743 z m 1026 743 l 1026 922 l 1044 922 b 1210 757 1178 917 1204 896 l 1210 743 z m 178 743 b 179 757 178 747 179 751 b 344 922 185 896 211 917 l 363 922 l 363 743 z m 1026 469 l 1026 661 l 1214 661 b 1219 469 1217 597 1218 533 z m 169 469 b 174 661 171 533 171 597 l 363 661 l 363 469 z m 744 469 l 744 661 l 925 661 l 925 469 z m 464 469 l 464 661 l 644 661 l 644 469 z m 1026 199 l 1026 390 l 1219 390 b 1214 199 1218 326 1217 263 z m 174 199 b 169 390 171 263 171 326 l 363 390 l 363 199 z m 744 199 l 744 390 l 925 390 l 925 199 z m 464 199 l 464 390 l 644 390 l 644 199 z m 644 -69 b 464 -65 583 -68 524 -68 l 464 117 l 644 117 z m 925 -65 b 744 -69 864 -68 804 -68 l 744 117 l 925 117 z m 1026 -61 l 1026 117 l 1210 117 l 1210 104 b 1044 -61 1204 -35 1178 -56 z m 178 114 b 178 117 178 115 178 115 l 363 117 l 363 -61 l 344 -61 b 179 104 211 -56 185 -35 b 179 107 179 106 179 106 z "},"▩":{"ha":146,"x_min":0,"x_max":0,"o":"m 278 -156 b 1111 -156 554 -168 832 -168 b 1310 43 1269 -147 1301 -124 b 1310 818 1322 301 1322 560 b 1111 1017 1301 985 1269 1008 b 278 1017 832 1029 554 1029 b 79 818 119 1008 88 985 b 79 43 67 563 67 303 b 278 -156 88 -124 119 -147 z m 694 874 l 638 931 l 751 931 z m 501 681 l 367 815 l 479 928 b 524 929 493 928 508 929 l 636 815 z m 751 815 l 864 928 l 908 928 l 1021 814 l 888 681 z m 1079 872 l 1029 922 l 1044 922 b 1121 914 1075 921 1100 918 z m 267 914 b 344 922 288 918 313 921 l 358 922 l 308 874 z m 1210 742 l 1138 815 l 1190 868 b 1210 757 1203 843 1207 808 z m 178 743 b 178 746 178 744 178 744 l 179 754 b 199 868 179 789 183 836 l 250 815 z m 558 622 l 694 758 l 829 622 l 694 488 z m 308 488 l 174 622 l 308 757 l 443 622 z m 1079 488 l 944 622 l 1079 757 l 1214 622 z m 501 294 l 367 431 l 501 565 l 636 429 z m 886 294 l 751 429 l 888 565 l 1022 431 z m 1138 431 l 1218 511 b 1218 349 1219 457 1219 403 z m 169 349 l 169 511 l 251 431 z m 174 238 l 308 372 l 444 238 l 310 103 z m 1079 103 l 944 238 l 1079 372 l 1214 236 z m 693 103 l 560 238 l 694 372 l 829 238 z m 751 46 l 886 181 l 1021 46 l 908 -67 l 865 -67 z m 367 46 l 501 179 l 636 46 l 522 -67 l 481 -67 z m 199 -8 b 179 107 183 22 179 74 l 178 114 b 178 117 178 115 178 115 l 251 44 z m 1138 44 l 1210 117 l 1210 104 b 1190 -8 1207 51 1203 15 z m 636 -69 l 693 -11 l 751 -69 z m 308 -12 l 358 -61 l 344 -61 b 267 -53 313 -60 288 -57 z m 1029 -61 l 1079 -12 l 1121 -53 b 1044 -61 1100 -57 1075 -60 z "},"♨":{"ha":146,"x_min":0,"x_max":0,"o":"m 717 76 b 799 285 757 106 799 196 b 681 807 799 496 681 601 b 743 1017 681 901 715 961 l 649 1017 b 567 807 610 989 567 896 b 683 285 567 596 683 490 b 622 76 683 188 647 133 z m 954 76 b 1036 285 994 106 1036 196 b 918 754 1036 494 918 550 b 981 964 918 849 953 908 l 886 964 b 804 754 847 936 804 843 b 921 285 804 544 921 490 b 860 76 921 188 885 133 z m 479 76 b 561 285 519 106 561 196 b 443 754 561 494 443 550 b 506 964 443 849 478 908 l 411 964 b 329 754 372 936 329 843 b 446 285 329 544 446 490 b 385 76 446 188 410 133 z m 294 361 b 75 146 149 319 75 226 b 694 -167 75 -50 339 -167 b 1314 146 1050 -167 1314 -50 b 1094 361 1314 226 1240 319 l 1093 306 b 1217 146 1172 275 1217 214 b 694 -85 1217 -17 979 -85 b 172 146 410 -85 172 -17 b 296 306 172 214 217 275 z "},"☏":{"ha":146,"x_min":0,"x_max":0,"o":"m 443 713 b 446 599 447 667 449 629 b 407 468 442 540 426 503 b 326 365 383 428 354 396 b 224 213 285 319 246 275 b 164 -14 201 150 164 31 b 240 -86 164 -61 189 -86 l 1149 -86 b 1225 -14 1200 -86 1225 -61 b 1165 213 1225 31 1188 150 b 1063 365 1143 275 1104 319 b 982 468 1035 396 1006 428 b 943 599 963 503 947 540 b 946 713 940 629 942 667 b 997 667 972 711 992 694 b 986 614 1001 649 993 632 b 974 569 979 599 974 585 b 1013 501 972 544 983 518 b 1224 432 1086 460 1154 438 b 1319 544 1279 428 1319 461 b 1175 789 1319 636 1264 729 b 694 896 1064 863 908 896 b 214 789 481 896 325 863 b 69 544 125 729 69 636 b 165 432 69 461 110 428 b 376 501 235 438 303 460 b 415 569 406 518 417 544 b 403 614 415 585 410 599 b 392 667 396 632 388 649 b 443 713 397 694 417 711 z m 246 14 b 303 219 256 76 283 183 b 389 331 326 264 357 297 b 464 428 415 358 439 389 b 515 594 497 479 515 536 b 511 744 515 660 513 728 b 472 781 508 765 506 783 b 325 650 368 772 325 715 b 344 589 325 628 338 606 b 339 567 349 579 349 574 b 171 504 286 528 235 504 b 140 551 153 504 140 519 b 254 735 140 636 194 694 b 694 831 376 818 542 831 b 1135 735 847 831 1013 818 b 1249 551 1194 694 1249 636 b 1218 504 1249 519 1236 504 b 1050 567 1154 504 1103 528 b 1044 589 1040 574 1040 579 b 1064 650 1051 606 1064 628 b 917 781 1064 715 1021 772 b 878 744 883 783 881 765 b 874 594 876 728 874 660 b 925 428 874 536 892 479 b 1000 331 950 389 974 358 b 1086 219 1032 297 1063 264 b 1143 14 1106 183 1133 76 b 1122 -10 1146 -4 1142 -10 l 267 -10 b 246 14 247 -10 243 -4 z m 851 769 b 694 753 794 757 739 753 b 538 769 650 753 594 757 l 538 644 b 615 574 538 592 565 574 l 774 574 b 851 644 824 574 851 592 z m 599 700 b 694 694 629 696 665 694 b 790 700 724 694 760 696 l 790 658 b 761 631 790 638 781 631 l 628 631 b 599 658 608 631 599 638 z m 442 258 b 694 13 442 115 551 13 b 947 258 838 13 947 115 b 694 504 947 401 838 504 b 442 258 551 504 442 401 z m 694 67 b 503 258 589 67 503 150 b 694 450 503 367 589 450 b 886 258 800 450 886 367 b 694 67 886 150 800 67 z "},"☎":{"ha":146,"x_min":0,"x_max":0,"o":"m 443 713 b 446 599 447 667 449 629 b 407 468 442 540 426 503 b 326 365 383 428 354 396 b 224 213 285 319 246 275 b 164 -14 201 150 164 31 b 240 -86 164 -61 189 -86 l 1149 -86 b 1225 -14 1200 -86 1225 -61 b 1165 213 1225 31 1188 150 b 1063 365 1143 275 1104 319 b 982 468 1035 396 1006 428 b 943 599 963 503 947 540 b 946 713 940 629 942 667 b 997 667 972 711 992 694 b 986 614 1001 649 993 632 b 974 569 979 599 974 585 b 1013 501 972 544 983 518 b 1224 432 1086 460 1154 438 b 1319 544 1279 428 1319 461 b 1175 789 1319 636 1264 729 b 694 896 1064 863 908 896 b 214 789 481 896 325 863 b 69 544 125 729 69 636 b 165 432 69 461 110 428 b 376 501 235 438 303 460 b 415 569 406 518 417 544 b 403 614 415 585 410 599 b 392 667 396 632 388 649 b 443 713 397 694 417 711 z m 585 700 b 694 694 615 696 665 694 b 804 700 724 694 774 696 l 804 617 b 775 589 804 596 794 589 l 614 589 b 585 617 594 589 585 596 z m 694 53 b 489 258 578 53 489 143 b 694 464 489 374 578 464 b 900 258 811 464 900 374 b 694 53 900 143 811 53 z "},"☜":{"ha":146,"x_min":0,"x_max":0,"o":"m 1142 221 l 1321 221 l 1321 596 l 1143 596 l 1143 550 b 1044 579 1117 546 1086 553 b 635 647 932 651 783 650 b 185 631 469 644 313 646 b 100 574 135 625 104 606 b 201 493 93 519 142 497 b 486 486 283 488 449 483 b 418 419 431 468 417 444 b 458 367 419 392 432 372 b 449 322 447 353 444 338 b 496 275 453 301 469 282 b 486 226 486 263 482 242 b 563 172 493 200 522 175 b 707 168 599 169 649 168 b 1121 254 846 168 1028 188 l 1142 254 z m 775 517 b 715 513 758 511 729 511 l 721 525 b 715 547 725 535 722 543 b 693 543 708 551 700 551 l 668 510 b 642 494 661 501 654 499 b 586 497 629 490 611 492 b 704 600 621 556 654 585 b 879 594 761 606 819 606 b 1021 542 929 586 981 571 b 1143 503 1060 515 1093 499 l 1143 303 l 1111 303 b 797 214 1046 249 922 224 b 807 254 803 224 807 232 b 772 301 807 278 790 294 b 781 346 779 313 783 331 b 746 385 776 368 763 376 b 756 425 751 393 756 408 b 713 475 756 451 739 467 b 772 479 724 475 751 475 b 876 396 794 442 833 414 b 1022 371 924 376 969 371 b 1043 392 1038 371 1043 381 b 1019 410 1043 401 1038 408 b 890 433 989 411 938 414 b 814 490 860 446 832 464 l 833 507 b 835 533 842 514 840 528 b 803 533 825 542 814 540 z m 553 528 b 207 539 454 528 325 533 b 143 564 167 540 143 546 b 208 590 143 581 167 588 b 617 600 342 601 475 599 b 553 528 593 581 567 553 z m 1192 268 l 1192 551 l 1236 551 l 1236 268 z m 461 424 b 485 446 461 433 465 440 b 569 454 503 451 543 454 b 690 446 606 454 661 450 b 714 424 707 443 714 436 b 697 407 714 413 703 408 b 615 401 679 403 650 401 b 488 407 569 401 506 404 b 461 424 474 408 461 414 z m 506 315 b 490 336 494 319 490 328 b 511 356 490 346 499 356 l 690 356 b 739 339 708 356 739 351 b 675 310 739 315 700 310 b 506 315 615 308 531 306 z m 544 225 b 529 242 536 229 531 235 b 544 264 526 253 532 264 l 651 265 b 739 264 689 265 722 265 b 765 246 758 263 765 256 b 746 224 765 233 757 228 b 643 214 710 213 681 214 b 544 225 606 215 558 219 z "},"☞":{"ha":146,"x_min":0,"x_max":0,"o":"m 69 221 l 249 221 l 249 254 l 269 254 b 683 168 363 188 544 168 b 828 172 742 168 792 169 b 904 226 868 175 897 200 b 894 275 908 242 904 263 b 942 322 921 282 938 301 b 932 367 946 338 943 353 b 972 419 958 372 971 392 b 904 486 974 444 960 468 b 1189 493 942 483 1107 488 b 1290 574 1249 497 1297 519 b 1206 631 1286 606 1256 625 b 756 647 1078 646 921 644 b 346 579 607 650 458 651 b 247 550 304 553 274 546 l 247 596 l 69 596 z m 247 303 l 247 503 b 369 542 297 499 331 515 b 511 594 410 571 461 586 b 686 600 571 606 629 606 b 804 497 736 585 769 556 b 749 494 779 492 761 490 b 722 510 736 499 729 501 l 697 543 b 675 547 690 551 682 551 b 669 525 668 543 665 535 l 675 513 b 615 517 661 511 632 511 l 588 533 b 556 533 576 540 565 542 b 557 507 550 528 549 514 l 576 490 b 500 433 558 464 531 446 b 371 410 453 414 401 411 b 347 392 353 408 347 401 b 368 371 347 381 353 371 b 514 396 421 371 467 376 b 618 479 557 414 596 442 b 678 475 639 475 667 475 b 635 425 651 467 635 451 b 644 385 635 408 639 393 b 610 346 628 376 614 368 b 618 301 607 331 611 313 b 583 254 600 294 583 278 b 593 214 583 232 588 224 b 279 303 468 224 344 249 z m 838 528 b 774 600 824 553 797 581 b 1182 590 915 599 1049 601 b 1247 564 1224 588 1247 581 b 1183 539 1247 546 1224 540 b 838 528 1065 533 936 528 z m 154 268 l 154 551 l 199 551 l 199 268 z m 693 407 b 676 424 688 408 676 413 b 700 446 676 436 683 443 b 821 454 729 450 785 454 b 906 446 847 454 888 451 b 929 424 925 440 929 433 b 903 407 929 414 917 408 b 775 401 885 404 821 401 b 693 407 740 401 711 403 z m 651 339 b 700 356 651 351 682 356 l 879 356 b 900 336 892 356 900 346 b 885 315 900 328 896 319 b 715 310 860 306 775 308 b 651 339 690 310 651 315 z m 644 224 b 625 246 633 228 625 233 b 651 264 625 256 632 263 b 739 265 668 265 701 265 l 846 264 b 861 242 858 264 864 253 b 846 225 860 235 854 229 b 747 214 832 219 785 215 b 644 224 710 214 681 213 z "},"¶":{"ha":-128,"x_min":0,"x_max":0,"o":"m 685 853 l 729 853 l 729 143 b 739 -321 731 -46 735 -281 b 857 -504 750 -422 768 -504 b 978 -321 949 -504 968 -422 b 997 486 994 -156 997 322 l 997 854 b 1108 967 1101 867 1108 894 b 921 1076 1108 1049 1100 1076 l 386 1076 b 26 665 118 1076 25 894 b 304 263 29 329 186 263 b 524 310 400 263 472 281 b 553 296 536 315 544 314 b 544 265 560 281 557 271 b 417 222 504 243 461 232 b 426 -321 418 33 422 -281 b 546 -504 436 -422 454 -504 b 664 -321 636 -504 654 -422 b 685 486 682 -156 685 322 z "},"†":{"ha":-339,"x_min":0,"x_max":0,"o":"m 274 419 b 274 331 274 392 274 363 b 456 -397 274 -276 274 -397 b 639 331 639 -397 639 -276 b 639 422 639 363 639 393 b 721 426 668 422 696 424 b 839 569 803 432 839 492 b 722 693 839 636 803 701 b 636 688 696 690 667 689 b 456 1065 628 997 596 1065 b 276 688 317 1065 285 997 b 181 693 243 689 210 690 b 65 569 100 700 65 636 b 181 426 65 492 100 432 b 274 419 210 424 240 421 z "},"‡":{"ha":-339,"x_min":0,"x_max":0,"o":"m 276 -29 b 456 -397 285 -328 318 -397 b 636 -28 594 -397 628 -326 b 721 -22 667 -26 694 -25 b 839 121 803 -15 839 43 b 722 244 839 188 803 253 b 639 239 696 242 668 240 b 639 331 639 268 639 299 b 639 422 639 363 639 393 b 721 426 668 422 696 424 b 839 569 803 432 839 492 b 722 693 839 636 803 701 b 636 688 696 690 667 689 b 456 1065 628 997 596 1065 b 276 688 317 1065 285 997 b 181 693 243 689 210 690 b 65 569 100 700 65 636 b 181 426 65 492 100 432 b 274 419 210 424 240 421 b 274 331 274 392 274 363 b 274 238 274 299 274 267 b 181 244 240 240 210 242 b 65 121 100 251 65 188 b 181 -22 65 43 100 -15 b 276 -29 210 -25 243 -28 z "},"↕":{"ha":146,"x_min":0,"x_max":0,"o":"m 579 174 b 575 418 576 240 575 321 b 579 676 575 524 576 608 l 564 653 b 476 565 532 603 515 565 l 350 565 b 315 596 328 565 315 576 b 329 644 315 608 318 625 l 556 994 b 647 1050 585 1044 608 1050 l 743 1050 b 835 994 781 1050 804 1046 l 1060 644 b 1074 596 1071 625 1074 610 b 1039 565 1074 576 1061 565 l 911 565 b 825 653 872 565 857 603 l 807 682 b 811 418 810 613 811 525 b 807 169 811 318 810 236 l 825 197 b 911 283 857 249 872 283 l 1039 283 b 1074 253 1061 283 1074 272 b 1060 204 1074 239 1071 224 l 835 -144 b 743 -201 804 -196 781 -201 l 647 -201 b 556 -144 608 -201 585 -194 l 329 204 b 315 253 318 224 315 240 b 350 283 315 272 328 283 l 476 283 b 564 197 515 283 532 249 z "},"↗":{"ha":146,"x_min":0,"x_max":0,"o":"m 957 528 b 722 283 904 468 828 389 b 249 -25 346 -93 308 -83 b 557 449 189 33 182 72 b 797 679 660 551 738 626 l 764 671 b 639 671 704 660 668 644 l 551 763 b 549 808 535 779 535 794 b 593 832 556 817 571 828 l 997 921 b 1104 894 1054 933 1076 922 l 1172 828 b 1196 722 1197 800 1210 779 l 1108 317 b 1085 274 1103 294 1094 282 b 1038 275 1069 258 1054 258 l 947 365 b 947 488 919 393 935 429 z "},"↙":{"ha":146,"x_min":0,"x_max":0,"o":"m 433 313 b 663 551 486 372 560 449 b 1136 860 1039 928 1076 919 b 828 386 1194 800 1204 763 b 585 156 724 282 644 208 l 625 164 b 749 164 685 175 719 192 l 838 75 b 840 28 854 58 854 43 b 796 4 832 18 818 10 l 392 -85 b 286 -60 333 -99 313 -85 l 218 8 b 193 114 192 36 181 58 l 281 518 b 306 564 286 542 296 556 b 351 561 319 578 335 578 l 442 472 b 442 349 469 444 454 407 z "},"↖":{"ha":146,"x_min":0,"x_max":0,"o":"m 586 681 b 828 449 646 628 724 553 b 1136 -25 1204 72 1196 33 b 663 283 1076 -83 1039 -93 b 433 522 560 386 485 463 l 442 488 b 442 364 454 429 469 392 l 351 275 b 306 274 335 258 319 258 b 281 317 296 281 286 294 l 193 722 b 218 829 181 779 192 800 l 286 896 b 392 921 313 922 333 935 l 796 832 b 840 808 818 828 832 818 b 838 763 854 794 854 779 l 749 671 b 625 671 719 644 685 660 z "},"↘":{"ha":146,"x_min":0,"x_max":0,"o":"m 800 156 b 560 385 740 208 663 282 b 251 860 183 763 193 799 b 725 550 313 918 349 926 b 956 308 829 446 903 368 l 947 349 b 947 471 935 407 919 443 l 1038 561 b 1085 564 1054 578 1069 578 b 1108 518 1094 554 1103 542 l 1196 114 b 1172 10 1210 57 1197 36 l 1104 -58 b 997 -85 1076 -85 1054 -97 l 593 4 b 549 28 571 10 556 19 b 551 75 535 43 535 58 l 639 164 b 764 164 668 192 704 175 z "},"♭":{"ha":146,"x_min":0,"x_max":0,"o":"m 599 542 l 599 1019 b 569 1049 599 1036 585 1049 l 467 1049 b 439 1019 451 1049 439 1036 l 439 -156 b 467 -183 439 -171 451 -183 b 1006 264 638 -183 1006 -62 b 706 561 1006 471 890 561 b 599 542 671 561 633 554 z m 599 -18 l 599 374 b 669 417 599 397 632 417 b 792 251 726 417 792 374 b 599 -18 792 118 697 15 z "},"♩":{"ha":146,"x_min":0,"x_max":0,"o":"m 756 268 b 476 6 599 249 476 124 b 628 -151 476 -83 524 -151 b 911 126 786 -151 911 -36 l 911 1019 b 885 1046 911 1033 900 1046 l 783 1046 b 756 1019 768 1046 756 1033 z "},"♪":{"ha":146,"x_min":0,"x_max":0,"o":"m 588 268 b 307 6 429 250 307 124 b 458 -151 307 -83 356 -151 b 742 128 617 -151 742 -35 l 742 742 b 903 433 828 675 903 550 b 814 286 903 363 872 286 b 788 260 800 286 788 275 l 788 185 b 817 157 788 169 801 156 b 1082 479 935 171 1082 261 b 757 1047 1082 615 996 847 l 613 1047 b 588 1021 599 1047 588 1036 z "},"♬":{"ha":146,"x_min":0,"x_max":0,"o":"m 476 268 b 196 6 318 250 196 124 b 347 -151 196 -83 244 -151 b 632 128 507 -151 632 -36 l 632 444 l 1038 522 l 1038 375 b 757 111 879 357 757 231 b 908 -44 757 22 806 -44 b 1193 233 1068 -44 1193 71 l 1193 1022 b 1167 1049 1193 1036 1181 1049 l 1058 1049 l 499 942 b 476 915 486 940 476 928 z m 632 660 l 632 751 l 1038 829 l 1038 738 z "},"㉿":{"ha":146,"x_min":0,"x_max":0,"o":"m 172 522 b 693 983 204 778 428 983 b 1165 696 896 983 1072 876 l 1319 696 b 692 1131 1200 988 946 1131 b 26 449 324 1131 21 824 b 31 378 26 426 26 400 l 335 378 l 335 522 z m 396 208 l 540 208 l 540 368 l 667 458 l 811 208 l 975 208 l 782 543 l 992 694 l 753 694 l 540 544 l 540 694 l 396 694 z m 71 207 b 696 -228 167 -72 442 -228 b 1364 456 1065 -228 1364 81 b 1358 524 1364 475 1363 501 l 992 524 l 992 379 l 1217 379 b 696 -82 1185 121 958 -82 b 225 207 500 -82 317 28 z "},"㈜":{"ha":146,"x_min":0,"x_max":0,"o":"m 417 -185 b 219 469 286 -4 219 203 b 417 1122 219 735 286 942 l 250 1122 b 36 469 121 965 36 736 b 250 -185 36 201 121 -26 z m 1139 -185 b 1353 469 1268 -26 1353 201 b 1139 1122 1353 736 1268 965 l 972 1122 b 1169 469 1103 942 1169 735 b 972 -185 1169 203 1103 -4 z m 479 678 b 347 546 399 653 347 611 b 540 417 347 451 422 417 b 721 518 664 417 721 449 b 653 613 721 574 690 603 b 644 624 646 614 643 618 b 656 631 647 629 651 631 b 747 521 706 618 742 588 b 911 417 751 450 804 417 b 1054 540 1003 417 1054 458 b 924 678 1054 606 1004 651 b 974 682 940 679 957 681 b 1049 751 1018 686 1049 706 b 974 817 1049 797 1018 810 b 701 829 892 826 792 829 b 428 817 610 829 510 826 b 353 751 385 810 353 797 b 428 682 353 706 385 686 b 479 678 444 681 461 679 z m 563 224 b 558 182 560 213 558 199 b 701 85 558 88 592 85 b 842 182 811 85 842 88 b 839 224 842 199 842 213 b 996 233 893 225 946 229 b 1075 321 1046 238 1075 271 b 996 401 1075 363 1046 404 b 406 401 813 385 582 383 b 328 321 357 406 328 363 b 406 233 328 271 357 238 b 563 224 454 229 508 225 z "},"№":{"ha":451,"x_min":0,"x_max":0,"o":"m 383 372 b 364 61 382 250 376 179 b 206 -125 353 -43 322 -125 b 47 61 89 -125 57 -43 b 47 878 19 325 19 615 b 206 1063 57 981 89 1063 b 325 994 272 1063 296 1035 b 521 631 413 869 440 771 b 540 878 524 726 529 786 b 699 1063 551 981 582 1063 b 857 878 815 1063 846 981 b 857 61 886 615 886 325 b 699 -125 846 -43 815 -125 b 563 -26 618 -125 592 -83 b 383 372 497 101 461 228 z m 914 576 b 1313 988 915 821 1051 988 b 1669 576 1575 988 1669 781 b 1308 192 1669 371 1543 192 b 914 576 1064 192 913 351 z m 1249 499 b 1296 483 1238 478 1279 458 b 1346 683 1336 539 1344 614 b 1297 690 1347 715 1299 714 b 1249 499 1294 622 1282 565 z m 1057 -118 b 942 25 978 -111 942 -53 b 1057 150 942 92 978 156 b 1542 150 1213 138 1388 135 b 1657 25 1622 157 1657 92 b 1540 -118 1657 -53 1622 -111 b 1057 -118 1388 -131 1213 -131 z "},"㏇":{"ha":146,"x_min":0,"x_max":0,"o":"m 431 -135 b 626 -74 511 -135 576 -115 b 668 190 692 -17 696 97 b 494 304 636 289 567 361 b 431 282 478 292 458 282 b 315 472 347 282 315 371 b 431 660 315 571 347 660 b 494 638 458 660 478 650 b 667 744 564 582 632 649 b 626 1014 696 836 694 958 b 431 1076 576 1057 511 1076 b 68 471 151 1076 68 804 b 431 -135 68 136 151 -135 z m 961 -135 b 1219 303 1115 -135 1219 71 b 964 767 1219 533 1138 767 b 678 303 789 767 679 574 b 961 -135 678 53 796 -135 z m 922 225 b 953 417 944 292 950 349 b 983 410 954 440 985 442 b 953 210 983 340 978 265 b 922 225 940 185 914 204 z m 1258 -164 b 1339 -51 1310 -164 1339 -121 b 1258 86 1339 39 1313 86 b 1179 -51 1207 86 1179 39 b 1258 -164 1179 -121 1207 -164 z "},"™":{"ha":146,"x_min":0,"x_max":0,"o":"m 197 774 b 174 472 172 668 168 567 b 329 331 179 399 222 331 b 482 472 433 331 476 399 b 443 842 488 567 479 725 b 478 844 436 864 469 872 b 497 774 485 822 493 796 l 515 774 b 649 915 596 774 649 832 b 515 1056 649 997 596 1050 b 331 1063 451 1061 383 1063 b 140 1056 274 1063 206 1061 b 7 914 60 1050 7 999 b 140 774 7 829 60 774 z m 914 606 b 871 715 894 646 881 676 b 890 724 865 735 886 739 b 971 539 910 661 943 593 b 1076 539 994 494 1051 494 b 1157 724 1106 593 1138 661 b 1176 715 1161 739 1182 735 b 1135 606 1165 676 1153 646 b 1146 446 1138 549 1140 501 b 1258 331 1151 381 1188 331 b 1369 446 1331 331 1363 381 b 1369 949 1385 607 1386 786 b 1258 1061 1364 1011 1331 1061 b 1171 1019 1218 1061 1189 1044 b 1035 754 1122 947 1074 843 b 1014 754 1029 743 1019 743 b 876 1019 972 843 926 949 b 789 1061 858 1046 831 1061 b 676 949 718 1061 682 1011 b 676 446 660 786 661 607 b 789 331 683 381 718 331 b 900 446 858 331 893 381 b 914 606 906 501 911 549 z "},"㏂":{"ha":146,"x_min":0,"x_max":0,"o":"m 756 707 b 679 753 728 736 703 753 b 631 733 663 753 646 746 b 604 642 614 721 604 685 l 604 -22 b 628 -124 604 -72 614 -115 b 690 -137 644 -132 668 -137 b 764 -119 717 -137 746 -131 b 789 -22 779 -110 789 -69 l 789 113 b 804 142 789 133 797 142 b 817 113 811 142 817 133 l 817 -22 b 844 -115 817 -65 829 -103 b 911 -137 863 -129 885 -137 b 981 -114 933 -137 958 -131 b 1008 -22 996 -101 1008 -64 l 1008 113 b 1022 142 1008 132 1014 142 b 1033 111 1029 142 1033 132 l 1033 -22 b 1061 -114 1033 -64 1044 -101 b 1132 -137 1085 -129 1108 -137 b 1200 -114 1158 -137 1178 -129 b 1228 -22 1215 -101 1228 -64 b 1204 646 1228 478 1233 561 b 1096 754 1181 724 1139 754 b 1028 715 1068 754 1044 740 b 958 397 994 669 954 538 b 947 374 958 382 954 376 b 932 396 938 374 933 381 b 975 664 931 496 947 585 b 876 756 949 724 913 756 b 813 715 853 756 833 740 b 738 367 769 661 732 511 b 726 344 738 351 735 346 b 714 363 718 343 714 349 b 756 663 708 474 721 574 z m 317 -69 b 297 39 313 -53 297 3 b 306 65 296 51 299 61 b 317 49 310 69 315 61 b 400 -137 326 -72 356 -137 b 482 61 453 -137 482 -43 l 482 554 b 400 753 482 685 453 753 b 318 725 372 753 344 742 b 388 538 349 679 372 617 b 381 507 389 525 389 513 b 364 522 372 500 368 507 b 275 729 354 561 350 658 b 214 753 260 746 236 753 b 51 303 133 753 51 626 b 218 -149 51 4 139 -149 b 317 -69 250 -149 296 -111 z m 247 221 b 225 236 240 197 221 217 b 247 429 242 303 247 361 b 271 421 249 451 271 453 b 247 221 269 351 265 276 z m 542 -179 b 597 -65 578 -179 597 -135 b 542 72 597 24 581 72 b 489 -65 506 72 489 24 b 542 -179 489 -135 506 -179 z m 1289 -179 b 1343 -65 1325 -179 1343 -135 b 1289 72 1343 24 1328 72 b 1236 -65 1253 72 1236 24 b 1289 -179 1236 -135 1253 -179 z "},"㏘":{"ha":146,"x_min":0,"x_max":0,"o":"m 756 707 b 679 753 728 736 703 753 b 631 733 663 753 646 746 b 604 642 614 721 604 685 l 604 -22 b 628 -124 604 -72 614 -115 b 690 -137 644 -132 668 -137 b 764 -119 717 -137 746 -131 b 789 -22 779 -110 789 -69 l 789 113 b 804 142 789 133 797 142 b 817 113 811 142 817 133 l 817 -22 b 844 -115 817 -65 829 -103 b 911 -137 863 -129 885 -137 b 981 -114 933 -137 958 -131 b 1008 -22 996 -101 1008 -64 l 1008 113 b 1022 142 1008 132 1014 142 b 1033 111 1029 142 1033 132 l 1033 -22 b 1061 -114 1033 -64 1044 -101 b 1132 -137 1085 -129 1108 -137 b 1200 -114 1158 -137 1178 -129 b 1228 -22 1215 -101 1228 -64 b 1204 646 1228 478 1233 561 b 1096 754 1181 724 1139 754 b 1028 715 1068 754 1044 740 b 958 397 994 669 954 538 b 947 374 958 382 954 376 b 932 396 938 374 933 381 b 975 664 931 496 947 585 b 876 756 949 724 913 756 b 813 715 853 756 833 740 b 738 367 769 661 732 511 b 726 344 738 351 735 346 b 714 363 718 343 714 349 b 756 663 708 474 721 574 z m 274 -185 b 138 -28 218 -164 172 -115 b 142 6 133 -17 135 -7 b 158 4 150 15 154 15 b 318 -143 199 -97 258 -143 b 529 233 415 -143 507 -11 b 310 750 551 511 475 750 b 199 724 279 750 243 740 b 149 749 182 742 165 749 b 63 635 106 749 63 707 l 63 158 b 72 -335 63 -6 64 -169 b 171 -518 79 -436 111 -518 b 269 -335 229 -518 263 -436 b 274 -185 271 -294 272 -229 z m 271 283 b 364 358 306 296 335 315 b 378 314 376 371 390 333 b 279 235 349 272 315 249 b 271 283 263 229 260 278 z m 542 -179 b 597 -65 578 -179 597 -135 b 542 72 597 24 581 72 b 489 -65 506 72 489 24 b 542 -179 489 -135 506 -179 z m 1289 -179 b 1343 -65 1325 -179 1343 -135 b 1289 72 1343 24 1328 72 b 1236 -65 1253 72 1236 24 b 1289 -179 1236 -135 1253 -179 z "},"℡":{"ha":146,"x_min":0,"x_max":0,"o":"m 400 779 b 383 853 399 800 392 833 b 350 849 372 883 346 868 b 385 475 381 728 388 571 b 254 333 379 403 343 333 b 122 475 164 333 126 403 b 140 779 115 571 121 674 l 110 779 b 0 918 43 779 0 835 b 110 1063 0 1004 43 1057 b 256 1068 164 1067 207 1068 b 401 1063 300 1068 350 1067 b 504 976 450 1058 488 1026 b 714 1078 533 1056 628 1078 b 931 921 821 1079 931 1060 b 861 869 931 867 913 853 b 804 879 839 876 821 879 b 704 857 753 879 733 869 b 708 822 688 850 692 815 b 883 822 771 849 847 851 b 931 701 915 797 931 765 b 883 579 931 638 915 604 b 708 581 847 550 771 556 b 704 544 692 589 688 553 b 804 521 733 529 753 521 b 861 533 821 521 839 526 b 931 489 913 551 931 535 b 714 326 931 349 821 326 b 496 465 615 326 506 357 b 488 701 490 539 488 615 b 490 828 488 744 489 788 b 410 779 472 797 443 779 z m 969 490 b 969 947 956 613 957 790 b 1079 1068 975 1018 1003 1068 b 1200 797 1185 1068 1210 936 b 1128 590 1193 696 1164 646 b 1150 575 1119 578 1143 564 b 1264 660 1188 633 1214 660 b 1388 524 1347 660 1381 597 b 1168 333 1400 376 1290 333 b 969 490 1067 333 983 361 z "},"！":{"ha":146,"x_min":0,"x_max":0,"o":"m 536 397 b 694 256 544 313 596 256 b 853 397 794 256 844 313 b 883 946 875 576 890 753 b 694 1104 882 1039 804 1104 b 506 946 585 1104 507 1039 b 536 397 499 753 514 576 z m 508 1 b 694 -164 508 -93 586 -164 b 881 1 801 -164 881 -93 b 694 192 881 118 808 192 b 508 1 585 192 508 118 z "},"＂":{"ha":146,"x_min":0,"x_max":0,"o":"m 554 717 b 671 906 635 717 671 769 b 554 1108 671 1043 667 1108 b 436 906 442 1108 436 1043 b 554 717 436 769 474 717 z m 833 717 b 951 906 914 717 951 769 b 833 1108 951 1043 946 1108 b 717 906 721 1108 717 1043 b 833 717 717 769 753 717 z "},"＃":{"ha":146,"x_min":0,"x_max":0,"o":"m 539 136 l 642 136 b 621 33 635 100 626 68 b 746 -125 603 -60 642 -124 b 958 33 850 -126 928 -61 l 993 142 b 1089 150 1033 143 1067 147 b 1203 290 1158 163 1203 201 b 1089 428 1203 378 1158 417 b 1078 429 1086 428 1081 428 b 1104 525 1089 463 1097 494 l 1132 532 b 1247 669 1200 542 1247 582 b 1169 799 1247 739 1217 781 l 1190 906 b 1064 1063 1208 997 1169 1063 b 851 906 960 1063 883 999 b 825 824 842 878 833 850 l 718 824 l 738 906 b 611 1063 757 997 715 1063 b 399 906 506 1063 431 997 l 368 815 b 299 808 339 813 315 810 b 185 669 229 799 185 758 b 283 535 185 588 224 547 l 256 428 b 140 290 188 418 140 378 b 196 171 140 231 161 193 b 189 136 193 160 192 147 l 175 68 b 168 33 172 57 171 44 b 293 -125 149 -60 189 -124 b 504 33 397 -126 475 -61 z m 629 443 l 647 515 l 733 515 l 714 443 z "},"＄":{"ha":146,"x_min":0,"x_max":0,"o":"m 528 -53 b 676 -174 543 -160 590 -174 b 822 -65 758 -174 804 -161 b 1125 214 986 -33 1113 64 b 919 529 1139 390 1032 485 b 567 785 731 608 629 717 b 590 804 551 803 571 825 b 736 675 642 753 685 724 b 906 593 783 629 838 593 b 1094 763 996 593 1086 639 b 821 1003 1103 904 964 975 b 676 1103 801 1089 754 1103 b 532 1001 596 1103 550 1089 b 274 754 376 968 274 878 b 507 510 274 607 363 532 b 792 260 642 489 746 363 b 769 242 799 242 775 232 b 458 486 703 357 615 486 b 267 219 290 486 247 353 b 528 -53 288 81 388 -12 z "},"％":{"ha":146,"x_min":0,"x_max":0,"o":"m 314 493 b 560 785 478 493 560 608 b 314 1076 560 961 478 1076 b 67 785 149 1076 67 961 b 314 493 67 608 149 493 z m 388 -124 b 608 -14 469 -139 561 -93 b 1081 899 756 233 965 640 b 1006 1064 1119 981 1088 1049 b 783 954 924 1079 832 1036 b 313 46 638 707 425 300 b 388 -124 274 -39 307 -108 z m 265 699 b 315 890 297 765 313 822 b 363 882 317 914 363 915 b 314 683 360 813 353 738 b 265 699 294 657 254 678 z m 1075 -135 b 1322 157 1240 -135 1322 -18 b 1075 449 1322 333 1240 449 b 829 157 911 449 829 333 b 1075 -135 829 -18 911 -135 z m 1026 72 b 1075 265 1060 138 1071 197 b 1124 257 1076 288 1125 289 b 1074 57 1122 188 1113 111 b 1026 72 1056 31 1015 51 z "},"＆":{"ha":146,"x_min":0,"x_max":0,"o":"m 272 483 b 118 215 172 421 118 326 b 589 -132 118 17 296 -131 b 910 -36 721 -132 831 -101 l 929 -51 b 1124 -132 978 -89 1032 -132 b 1096 229 1250 -132 1386 82 l 1097 231 b 1257 468 1175 293 1232 369 b 1018 596 1310 675 1088 764 b 914 446 994 539 958 490 b 878 483 889 421 853 458 b 992 721 944 551 992 635 b 575 1056 992 886 868 1056 b 158 721 282 1056 158 886 b 272 483 158 635 194 547 z m 497 756 b 535 790 483 783 521 811 b 675 657 575 731 619 693 b 644 619 696 644 672 604 b 497 756 588 654 525 696 z m 497 269 b 535 304 483 297 521 325 b 675 171 575 244 619 207 b 644 133 696 158 672 118 b 497 269 588 168 525 210 z "},"＇":{"ha":146,"x_min":0,"x_max":0,"o":"m 694 717 b 833 906 790 717 833 769 b 694 1108 833 1043 828 1108 b 554 906 560 1108 554 1043 b 694 717 554 769 599 717 z "},"（":{"ha":146,"x_min":0,"x_max":0,"o":"m 1207 -174 b 1328 93 1306 -126 1344 -37 b 1181 449 1285 125 1181 163 b 1293 803 1181 731 1263 788 b 1189 1076 1326 914 1290 1014 b 853 449 947 1036 854 731 b 1207 -174 851 160 915 -76 z "},"）":{"ha":146,"x_min":0,"x_max":0,"o":"m 182 -174 b 536 449 474 -76 536 160 b 200 1076 535 731 440 1036 b 94 803 99 1014 61 914 b 207 449 126 788 207 731 b 60 93 207 163 104 125 b 182 -174 43 -37 83 -126 z "},"＊":{"ha":146,"x_min":0,"x_max":0,"o":"m 500 708 b 514 522 440 644 449 565 b 694 568 578 481 649 501 b 875 522 740 501 811 481 b 889 708 940 565 949 644 b 982 868 996 736 1010 796 b 822 936 956 931 917 972 b 694 1076 824 1044 774 1076 b 567 936 615 1076 565 1044 b 407 868 471 972 433 931 b 500 708 379 796 392 736 z "},"＋":{"ha":146,"x_min":0,"x_max":0,"o":"m 557 342 b 563 264 558 317 560 290 b 706 146 569 182 628 146 b 831 263 772 146 838 182 b 825 342 828 290 826 317 b 908 347 851 343 879 344 b 1026 490 990 353 1026 413 b 910 614 1026 557 990 622 b 825 607 881 611 853 608 b 831 694 826 635 828 664 b 706 808 836 775 772 808 b 563 694 628 808 569 775 b 557 608 560 665 558 636 b 476 614 531 610 504 613 b 361 490 397 621 361 557 b 476 347 361 413 397 353 b 557 342 504 344 531 343 z "},"，":{"ha":146,"x_min":0,"x_max":0,"o":"m 158 -157 b 263 -296 121 -200 132 -296 b 467 -62 394 -296 465 -178 b 279 151 468 47 408 151 b 110 -6 158 151 108 72 b 243 -153 111 -81 160 -153 b 296 -143 256 -153 274 -149 b 308 -167 313 -136 322 -160 b 251 -179 290 -174 272 -179 b 158 -157 219 -179 185 -171 z "},"－":{"ha":146,"x_min":0,"x_max":0,"o":"m 476 339 b 908 339 632 326 754 326 b 1026 482 990 344 1026 404 b 910 606 1026 549 990 614 b 476 606 754 590 632 593 b 361 482 397 613 361 549 b 476 339 361 404 397 344 z "},"．":{"ha":146,"x_min":0,"x_max":0,"o":"m 108 -39 b 293 -204 108 -133 185 -204 b 478 -39 400 -204 478 -133 b 293 151 478 78 407 151 b 108 -39 183 151 108 78 z "},"／":{"ha":146,"x_min":0,"x_max":0,"o":"m 490 -125 b 692 -15 574 -140 660 -94 b 1004 897 794 232 933 639 b 899 1063 1029 979 983 1047 b 697 953 815 1078 732 1035 b 385 44 594 706 456 299 b 490 -125 360 -40 406 -110 z "},"０":{"ha":146,"x_min":0,"x_max":0,"o":"m 693 -135 b 1190 471 1026 -135 1190 135 b 693 1076 1190 807 1026 1076 b 197 472 361 1076 197 807 b 693 -135 197 135 361 -135 z m 663 299 b 726 671 690 365 728 604 b 775 663 726 694 771 696 b 710 283 783 593 746 339 b 663 299 693 260 653 279 z "},"１":{"ha":146,"x_min":0,"x_max":0,"o":"m 578 657 b 578 11 568 489 568 204 b 774 -125 583 -83 678 -125 b 968 11 868 -125 964 -83 b 968 904 979 265 981 650 b 767 1063 964 1011 876 1063 b 533 1032 685 1063 593 1053 b 415 824 457 1004 394 936 b 553 699 431 739 481 693 b 685 717 594 701 643 707 b 693 681 718 722 718 688 b 578 657 663 671 615 663 z "},"２":{"ha":146,"x_min":0,"x_max":0,"o":"m 886 228 b 717 110 858 208 751 126 b 685 146 685 93 661 131 b 1146 700 932 306 1146 496 b 726 1076 1146 924 961 1076 b 235 835 494 1076 314 1008 b 315 590 192 738 226 638 b 571 651 393 551 533 568 b 671 714 589 693 613 714 b 703 622 721 714 739 665 b 321 278 606 497 442 386 b 215 69 256 219 215 154 l 215 60 b 383 -124 215 -53 279 -124 l 1011 -124 b 1175 54 1128 -124 1175 -44 b 1011 228 1175 150 1128 228 z "},"３":{"ha":146,"x_min":0,"x_max":0,"o":"m 731 231 b 404 290 638 231 511 250 b 289 281 353 308 308 304 b 217 11 246 217 211 89 b 306 -71 219 -21 257 -57 b 696 -135 407 -104 551 -135 b 1172 210 935 -135 1172 -54 b 1025 444 1172 343 1126 414 b 913 426 986 431 949 426 b 807 442 876 426 842 431 b 794 475 792 444 789 456 b 815 496 801 490 807 496 b 917 481 833 496 863 481 b 1006 493 947 481 975 485 b 1172 732 1124 518 1172 592 b 689 1076 1172 990 936 1076 b 313 1017 554 1076 415 1053 b 224 933 263 1000 226 967 b 297 671 219 858 258 733 b 413 658 315 646 360 640 b 722 710 513 696 638 717 l 722 676 b 568 636 718 665 689 671 b 410 472 469 608 413 582 b 489 335 410 413 428 361 b 731 267 561 301 643 285 z "},"４":{"ha":146,"x_min":0,"x_max":0,"o":"m 685 83 b 688 11 686 58 686 33 b 883 -125 693 -83 786 -125 b 1076 11 979 -125 1072 -83 b 1081 96 1078 39 1079 68 l 1165 96 b 1210 268 1168 96 1210 165 b 1169 443 1210 321 1200 379 b 1088 443 1140 443 1111 444 l 1088 1013 b 876 1063 1081 1040 985 1063 b 667 1013 796 1063 714 1050 b 258 479 664 1013 261 483 b 425 83 111 296 165 83 z m 624 431 b 757 579 681 475 719 515 b 796 550 768 599 808 578 b 660 396 772 486 715 436 b 624 431 633 378 607 419 z "},"５":{"ha":146,"x_min":0,"x_max":0,"o":"m 296 444 b 458 478 344 468 397 478 b 671 406 538 478 615 457 b 744 269 707 368 742 306 b 696 264 747 239 703 238 b 621 379 688 289 679 332 b 453 439 575 418 514 439 b 274 375 392 439 326 421 b 324 -40 178 289 153 86 b 671 -136 403 -99 533 -136 b 1190 282 921 -136 1190 -18 b 704 706 1190 693 797 704 b 710 744 681 707 675 744 b 1063 660 783 742 918 740 b 1100 997 1126 744 1132 893 b 992 1063 1082 1049 1044 1063 l 393 1063 b 276 964 301 1063 283 1039 l 235 560 b 296 444 229 504 258 458 z "},"６":{"ha":146,"x_min":0,"x_max":0,"o":"m 547 564 b 743 710 501 586 592 683 b 879 706 778 715 849 713 b 1108 833 1010 676 1074 708 b 944 1051 1140 947 1071 1007 b 756 1076 896 1068 814 1076 b 283 761 574 1076 378 999 b 731 -135 129 367 279 -135 b 972 643 1240 -135 1274 510 b 811 675 925 664 868 675 b 569 569 718 675 626 644 b 547 564 564 563 556 561 z m 715 196 b 765 386 749 263 761 319 b 814 379 767 411 814 413 b 764 181 811 310 803 233 b 715 196 746 154 703 174 z "},"７":{"ha":146,"x_min":0,"x_max":0,"o":"m 654 700 b 686 828 657 722 678 801 b 719 825 692 850 722 844 b 585 83 683 615 628 288 b 724 -122 567 -7 622 -99 b 956 -19 826 -143 925 -108 b 1126 831 1019 175 1108 622 b 950 1063 1140 965 1065 1063 b 385 1053 796 1063 507 1063 b 258 882 311 1046 258 985 b 385 708 258 776 310 715 b 654 700 419 706 621 701 z "},"８":{"ha":146,"x_min":0,"x_max":0,"o":"m 339 485 b 185 219 240 439 185 331 b 693 -135 185 3 378 -133 b 1203 219 1008 -135 1203 3 b 1049 485 1203 331 1147 439 b 1160 735 1113 522 1160 603 b 693 1076 1160 904 1008 1076 b 228 735 378 1075 228 904 b 339 485 228 603 275 522 z m 650 636 b 700 828 685 703 696 760 b 749 819 701 851 749 851 b 699 621 746 751 738 675 b 650 636 681 594 639 615 z m 650 132 b 700 324 685 197 696 256 b 749 314 701 347 749 347 b 699 117 746 246 738 169 b 650 132 681 90 639 110 z "},"９":{"ha":146,"x_min":0,"x_max":0,"o":"m 450 -107 b 633 -135 497 -122 575 -135 b 1104 185 814 -135 1011 -51 b 660 1076 1257 575 1108 1076 b 418 301 153 1076 117 433 b 579 271 465 282 524 271 b 819 375 671 271 764 300 b 842 379 825 382 833 383 b 647 232 888 360 797 260 b 511 239 613 226 542 232 b 283 115 381 269 314 229 b 450 -107 254 -1 324 -61 z m 613 586 b 663 778 646 651 657 710 b 710 771 664 801 711 803 b 661 571 708 701 701 625 b 613 586 643 546 603 564 z "},"：":{"ha":146,"x_min":0,"x_max":0,"o":"m 508 679 b 694 513 508 582 586 513 b 881 679 801 513 881 582 b 694 868 881 794 808 868 b 508 679 585 868 508 794 z m 508 181 b 694 14 508 85 586 14 b 881 181 801 14 881 85 b 694 371 881 296 808 371 b 508 181 585 371 508 296 z "},"；":{"ha":146,"x_min":0,"x_max":0,"o":"m 507 679 b 693 513 507 582 585 513 b 879 679 801 513 879 582 b 693 868 879 794 807 868 b 507 679 583 868 507 794 z m 572 61 b 676 -78 535 17 544 -78 b 881 156 808 -78 879 42 b 693 369 882 264 821 369 b 524 211 572 369 522 289 b 654 64 524 138 572 64 b 710 75 669 64 686 68 b 719 50 724 81 736 58 b 665 40 703 44 686 40 b 572 61 633 40 599 46 z "},"＜":{"ha":146,"x_min":0,"x_max":0,"o":"m 1158 451 b 1313 801 1228 543 1279 685 b 1260 1076 1338 893 1356 1032 b 1040 1000 1175 1115 1096 1079 b 865 663 939 860 892 726 b 817 451 832 575 817 503 b 865 236 817 400 832 326 b 1040 -96 892 174 939 44 b 1260 -172 1096 -174 1175 -211 b 1313 101 1356 -126 1338 10 b 1158 451 1279 219 1228 361 z "},"＝":{"ha":146,"x_min":0,"x_max":0,"o":"m 522 468 b 865 468 638 457 764 461 b 982 600 947 475 982 526 b 865 715 982 661 947 722 b 522 715 764 706 638 706 b 407 600 442 722 407 661 b 522 468 407 526 442 475 z m 522 151 b 865 151 638 142 764 144 b 982 285 947 158 982 213 b 865 400 982 347 947 408 b 522 400 764 390 638 390 b 407 285 442 407 407 347 b 522 151 407 213 442 158 z "},"＞":{"ha":146,"x_min":0,"x_max":0,"o":"m 231 451 b 76 101 161 361 110 219 b 129 -172 51 10 33 -126 b 349 -96 214 -211 293 -174 b 524 236 450 44 497 174 b 572 451 557 326 572 400 b 524 663 572 503 557 575 b 349 1000 497 726 450 860 b 129 1076 293 1079 214 1115 b 76 801 33 1032 51 893 b 231 451 110 685 161 543 z "},"？":{"ha":146,"x_min":0,"x_max":0,"o":"m 513 367 b 683 256 529 303 589 256 b 857 367 779 256 833 299 b 893 432 863 381 882 421 b 996 517 910 451 964 490 b 1096 776 1064 576 1096 664 b 700 1076 1096 953 975 1076 b 292 776 450 1076 292 953 b 474 614 292 689 343 614 b 651 725 575 614 642 674 b 697 764 654 750 672 764 b 738 729 721 764 738 760 b 686 653 738 689 714 669 b 558 546 635 622 590 585 b 513 367 510 485 504 404 z m 500 1 b 686 -164 500 -93 576 -164 b 869 1 792 -164 869 -93 b 686 192 869 118 799 192 b 500 1 575 192 500 118 z "},"＠":{"ha":146,"x_min":0,"x_max":0,"o":"m 718 117 b 701 201 711 129 697 174 b 715 224 703 213 707 219 b 736 210 725 228 736 221 b 858 61 736 114 782 67 b 1325 421 1175 39 1299 229 b 751 1086 1386 843 1172 1086 b 57 421 381 1086 90 803 b 631 -246 24 38 260 -246 b 1136 -158 782 -246 985 -233 b 1188 -50 1169 -142 1210 -114 b 1089 -12 1167 8 1121 0 b 646 -76 947 -74 778 -76 b 243 421 379 -76 215 129 b 738 917 268 711 474 917 b 1131 421 1114 917 1174 711 b 1033 254 1114 313 1082 271 l 1096 621 b 985 779 1114 724 1076 779 b 835 758 936 779 886 772 b 931 607 885 721 918 669 b 917 581 932 594 931 586 b 892 593 901 575 896 581 b 758 761 879 625 883 704 b 651 779 732 774 689 779 b 315 417 513 779 360 678 b 533 53 272 174 393 53 b 718 117 590 53 681 82 z m 601 363 b 668 518 638 417 654 464 b 706 511 672 538 711 539 b 638 350 694 456 676 396 b 601 363 619 331 589 347 z "},"Ａ":{"ha":146,"x_min":0,"x_max":0,"o":"m 625 113 b 763 113 686 97 703 97 b 957 -125 757 4 797 -125 b 1149 50 1063 -125 1142 -57 b 1160 469 1157 186 1160 328 b 694 1063 1160 801 1060 1063 b 229 469 329 1063 229 801 b 240 50 229 328 232 186 b 429 -125 247 -57 325 -125 b 625 113 592 -125 632 3 z m 606 496 b 615 546 582 499 582 547 b 814 492 685 543 758 533 b 796 444 838 476 817 433 b 606 496 732 479 674 492 z "},"Ｂ":{"ha":146,"x_min":0,"x_max":0,"o":"m 1060 478 b 919 453 1011 456 960 453 b 919 494 899 453 899 494 b 1181 750 1122 494 1181 619 b 833 1068 1181 978 1057 1044 b 654 1076 778 1075 718 1078 b 418 1064 572 1076 490 1071 b 199 822 314 1053 207 969 b 197 119 188 578 183 361 b 418 -122 207 -26 314 -111 b 657 -135 490 -129 574 -135 b 833 -126 718 -135 779 -132 b 1200 194 1057 -100 1200 -7 b 1060 478 1200 354 1158 447 z m 563 681 b 574 728 533 697 553 738 b 751 696 635 703 683 692 b 747 644 774 697 778 649 b 563 681 681 638 621 649 z m 563 272 b 574 321 533 289 553 331 b 751 288 635 294 683 283 b 747 236 774 289 778 240 b 563 272 681 229 621 240 z "},"Ｃ":{"ha":146,"x_min":0,"x_max":0,"o":"m 781 -135 b 1090 -74 908 -135 1011 -115 b 1153 190 1193 -17 1200 97 b 882 304 1104 289 993 361 b 781 282 856 292 824 282 b 597 472 649 282 597 371 b 781 660 597 571 649 660 b 882 638 824 660 856 650 b 1149 744 989 582 1097 649 b 1090 1014 1200 836 1197 958 b 781 1076 1011 1057 908 1076 b 206 471 340 1076 206 804 b 781 -135 206 136 340 -135 z "},"Ｄ":{"ha":146,"x_min":0,"x_max":0,"o":"m 419 -122 b 660 -135 492 -129 575 -135 b 1197 494 969 -133 1199 78 b 656 1076 1197 913 969 1079 b 419 1064 574 1076 490 1071 b 200 822 315 1053 208 969 b 199 119 189 578 185 361 b 419 -122 208 -26 315 -111 z m 649 411 b 699 603 683 478 694 535 b 747 593 700 625 749 626 b 697 396 746 525 736 449 b 649 411 679 369 638 390 z "},"Ｅ":{"ha":146,"x_min":0,"x_max":0,"o":"m 268 89 b 251 471 254 207 251 332 b 268 851 251 610 254 735 b 704 1076 288 1029 506 1075 b 1138 817 915 1078 1138 1039 b 994 735 1138 726 1104 706 b 881 751 957 744 914 751 b 653 713 781 751 713 736 b 664 674 622 701 633 661 b 1043 675 786 717 967 721 b 1138 471 1107 635 1138 575 b 1043 267 1138 367 1107 306 b 664 268 967 219 786 224 b 653 229 633 279 622 240 b 881 192 713 206 781 192 b 994 207 914 192 957 197 b 1138 126 1104 235 1138 215 b 704 -135 1138 -96 915 -136 b 268 89 506 -133 288 -86 z "},"Ｆ":{"ha":146,"x_min":0,"x_max":0,"o":"m 654 256 b 640 63 653 186 649 124 b 458 -124 628 -42 572 -124 b 272 63 340 -124 283 -42 b 251 471 260 181 251 332 b 268 851 251 610 254 735 b 715 1076 288 1029 515 1075 b 1138 865 1018 1078 1138 1021 b 1000 701 1138 749 1088 686 b 881 711 964 707 914 711 b 653 674 781 711 713 697 b 664 635 622 661 633 624 b 1043 636 786 679 967 683 b 1138 444 1107 594 1138 549 b 1043 254 1138 342 1107 293 b 654 256 967 207 779 211 z "},"Ｇ":{"ha":146,"x_min":0,"x_max":0,"o":"m 835 364 b 711 282 815 319 775 282 b 547 471 600 282 547 371 b 732 660 547 571 600 660 b 832 638 774 660 807 650 b 1090 726 932 586 1035 640 b 1040 1014 1150 822 1156 953 b 732 1076 963 1057 858 1076 b 156 471 290 1076 156 803 b 707 -135 156 138 346 -135 b 1232 346 1050 -135 1232 79 b 1076 553 1232 444 1169 532 b 775 560 981 575 875 572 b 656 446 697 550 656 515 b 835 364 656 364 733 321 z "},"Ｈ":{"ha":146,"x_min":0,"x_max":0,"o":"m 583 238 b 569 61 581 178 575 118 b 386 -125 558 -43 501 -125 b 200 61 268 -125 211 -43 b 200 878 174 325 174 615 b 386 1063 211 981 268 1063 b 569 878 501 1063 558 981 b 583 701 575 821 581 761 b 804 703 654 718 733 719 b 818 878 807 763 813 821 b 1003 1063 831 981 888 1063 b 1189 878 1119 1063 1176 981 b 1189 61 1215 615 1215 325 b 1003 -125 1176 -43 1119 -125 b 818 61 888 -125 831 -43 b 804 236 813 118 807 176 b 583 238 733 219 654 221 z "},"Ｉ":{"ha":146,"x_min":0,"x_max":0,"o":"m 508 61 b 508 878 482 325 482 615 b 694 1063 521 981 576 1063 b 879 878 811 1063 867 981 b 879 61 906 615 906 325 b 694 -125 867 -43 811 -125 b 508 61 576 -125 521 -43 z "},"Ｊ":{"ha":146,"x_min":0,"x_max":0,"o":"m 267 183 b 515 406 279 304 347 406 b 797 236 638 406 724 328 b 826 257 815 217 842 236 b 694 624 757 342 711 442 b 899 1063 675 850 700 1063 b 1104 865 1025 1063 1093 981 b 1104 129 1129 615 1129 325 b 706 -126 1076 -78 911 -126 b 267 183 463 -126 244 -56 z "},"Ｋ":{"ha":146,"x_min":0,"x_max":0,"o":"m 929 450 b 1143 121 1029 354 1107 231 b 1025 -108 1175 28 1131 -64 b 744 0 910 -153 808 -107 b 653 281 707 60 665 181 b 621 281 651 300 621 299 b 606 61 619 206 613 133 b 421 -125 594 -43 538 -125 b 236 61 303 -125 247 -43 b 236 878 208 325 208 615 b 421 1063 247 981 303 1063 b 606 878 538 1063 594 981 b 621 622 614 788 617 717 b 654 624 622 594 646 592 b 763 914 686 728 725 833 b 1046 1032 813 1021 914 1088 b 1156 789 1158 985 1199 894 b 929 450 1106 675 1026 553 z "},"Ｌ":{"ha":146,"x_min":0,"x_max":0,"o":"m 283 129 b 283 865 258 325 258 615 b 490 1063 294 981 363 1063 b 693 624 688 1063 713 850 b 561 257 676 442 631 342 b 590 236 546 236 572 217 b 872 406 664 328 751 406 b 1121 183 1040 406 1110 304 b 682 -126 1143 -56 925 -126 b 283 129 476 -126 313 -78 z "},"Ｍ":{"ha":146,"x_min":0,"x_max":0,"o":"m 511 411 b 490 61 510 289 504 179 b 308 -125 481 -43 424 -125 b 122 61 190 -125 132 -43 b 122 878 96 325 96 615 b 308 1063 132 981 190 1063 b 453 994 374 1063 422 1036 b 678 563 533 879 611 707 b 711 563 686 544 703 544 b 936 994 778 707 856 879 b 1081 1063 967 1036 1015 1063 b 1267 878 1199 1063 1257 981 b 1267 61 1293 615 1293 325 b 1081 -125 1257 -43 1199 -125 b 899 61 965 -125 908 -43 b 878 411 885 179 879 289 b 776 213 846 346 807 269 b 607 213 740 139 640 142 b 511 411 578 267 540 343 z "},"Ｎ":{"ha":146,"x_min":0,"x_max":0,"o":"m 604 464 b 582 61 603 342 596 179 b 399 -125 572 -43 514 -125 b 214 61 281 -125 224 -43 b 214 878 186 325 186 615 b 399 1063 224 981 281 1063 b 543 994 465 1063 513 1036 b 785 540 640 869 701 681 b 804 878 788 636 794 786 b 989 1063 817 981 874 1063 b 1175 878 1106 1063 1163 981 b 1175 61 1201 615 1201 325 b 989 -125 1163 -43 1106 -125 b 828 -26 908 -125 860 -83 b 604 464 756 101 688 319 z "},"Ｏ":{"ha":146,"x_min":0,"x_max":0,"o":"m 694 -135 b 1247 471 1076 -135 1247 97 b 694 1076 1247 844 1103 1076 b 140 471 286 1076 140 844 b 694 -135 140 97 313 -135 z m 643 381 b 693 574 676 447 689 506 b 742 565 694 596 743 597 b 692 365 740 496 732 421 b 643 381 674 342 632 361 z "},"Ｐ":{"ha":146,"x_min":0,"x_max":0,"o":"m 619 268 b 604 63 615 200 610 131 b 419 -124 593 -42 536 -124 b 235 63 301 -124 246 -42 b 236 871 207 326 208 608 b 442 1064 250 1006 338 1049 b 640 1076 507 1071 576 1076 b 1175 674 903 1079 1175 1033 b 619 268 1175 299 903 263 z m 619 644 b 803 610 678 614 736 603 b 808 660 833 614 831 661 b 631 693 739 656 690 667 b 619 644 608 703 589 661 z "},"Ｑ":{"ha":146,"x_min":0,"x_max":0,"o":"m 724 -135 b 1060 -325 792 -261 919 -397 b 1135 -114 1161 -274 1168 -187 b 1054 -29 1118 -76 1089 -49 b 1247 471 1186 74 1247 247 b 694 1076 1247 844 1103 1076 b 140 471 286 1076 140 844 b 694 -135 140 97 313 -135 b 724 -135 704 -135 714 -135 z m 643 381 b 693 574 676 447 689 506 b 742 565 694 596 743 597 b 692 365 740 496 732 421 b 643 381 674 342 632 361 z "},"Ｒ":{"ha":146,"x_min":0,"x_max":0,"o":"m 606 265 b 589 63 603 197 597 129 b 406 -124 578 -42 522 -124 b 219 63 288 -124 229 -42 b 200 576 201 228 199 404 b 693 1076 204 975 328 1074 b 1136 644 979 1079 1139 932 b 918 283 1136 451 1074 340 b 928 254 896 276 906 249 b 1047 311 967 263 1011 288 b 1176 122 1097 269 1146 208 b 1076 -103 1208 31 1181 -56 b 761 1 963 -156 825 -104 b 683 263 718 72 690 165 b 606 265 656 263 631 264 z m 775 604 b 607 708 710 628 660 656 b 576 668 592 724 558 693 b 751 558 618 614 686 582 b 775 604 782 549 794 594 z "},"Ｓ":{"ha":146,"x_min":0,"x_max":0,"o":"m 776 217 b 431 488 703 346 606 488 b 219 193 247 488 197 340 b 701 -135 253 -17 450 -135 b 1171 186 946 -135 1156 -18 b 944 538 1186 379 1067 488 b 553 819 733 624 621 742 b 576 842 535 838 556 863 b 739 697 636 782 682 751 b 926 608 790 646 851 608 b 1135 793 1029 608 1126 656 b 675 1076 1149 1006 865 1076 b 226 783 418 1076 226 961 b 486 513 226 621 328 539 b 801 235 636 490 750 351 b 776 217 810 217 783 207 z "},"Ｔ":{"ha":146,"x_min":0,"x_max":0,"o":"m 499 593 b 461 103 458 424 450 260 b 694 -125 469 -12 543 -125 b 926 103 847 -125 917 -12 b 858 704 936 260 919 518 b 899 707 851 722 890 732 b 931 593 911 674 924 631 l 979 593 b 1200 822 1111 593 1200 688 b 979 1051 1200 957 1111 1042 b 697 1063 876 1058 785 1063 b 408 1051 606 1063 514 1060 b 188 819 275 1042 188 960 b 408 593 188 685 275 593 z "},"Ｕ":{"ha":146,"x_min":0,"x_max":0,"o":"m 694 -136 b 1192 457 1089 -136 1192 125 b 1183 890 1192 600 1190 753 b 990 1063 1178 996 1099 1063 b 801 890 885 1063 806 996 b 790 457 793 753 790 600 b 694 311 790 375 778 311 b 600 457 611 311 600 375 b 589 890 600 600 597 753 b 396 1063 583 996 504 1063 b 206 890 290 1063 213 996 b 197 457 199 753 197 600 b 694 -136 197 125 301 -136 z "},"Ｖ":{"ha":146,"x_min":0,"x_max":0,"o":"m 601 211 b 632 207 608 201 618 194 b 797 761 768 338 801 510 b 985 1063 796 931 835 1063 b 1161 610 1119 1063 1175 932 b 699 -125 1146 229 979 -125 b 225 638 357 -125 229 242 b 506 1063 222 864 326 1063 b 767 707 688 1063 767 907 b 608 238 767 544 735 358 b 601 211 596 226 592 219 z "},"Ｗ":{"ha":146,"x_min":0,"x_max":0,"o":"m 514 489 b 610 688 542 557 581 638 b 779 688 647 760 742 760 b 875 489 808 638 847 557 b 931 878 889 611 906 761 b 1114 1063 953 981 997 1063 b 1300 878 1232 1063 1297 981 b 1211 61 1306 615 1267 311 b 1025 -125 1189 -49 1128 -125 b 882 -56 954 -125 911 -97 b 708 311 814 47 760 182 b 681 311 703 329 686 329 b 507 -56 629 181 575 47 b 364 -125 478 -97 435 -125 b 178 61 261 -125 200 -49 b 89 878 122 311 83 615 b 275 1063 93 981 157 1063 b 458 878 392 1063 436 981 b 514 489 485 761 500 611 z "},"Ｘ":{"ha":146,"x_min":0,"x_max":0,"o":"m 982 426 l 924 356 b 893 386 904 333 869 361 b 1176 772 997 515 1079 638 b 1126 1014 1231 849 1208 949 b 881 1010 1044 1079 944 1078 b 701 778 817 942 754 857 b 507 1010 631 869 553 963 b 263 1014 443 1078 344 1079 b 211 772 179 949 157 849 b 404 507 264 697 331 606 l 447 557 b 482 519 468 581 506 549 b 214 174 389 410 301 290 b 256 -71 157 100 178 -3 b 503 -76 338 -139 438 -142 b 694 144 569 -8 639 69 b 885 -76 736 81 826 -17 b 1132 -71 950 -142 1050 -139 b 1174 174 1210 -3 1229 99 z "},"Ｙ":{"ha":146,"x_min":0,"x_max":0,"o":"m 499 286 b 510 61 503 208 503 139 b 701 -125 522 -42 582 -125 b 890 61 817 -125 881 -43 b 903 286 896 110 899 235 b 1207 863 1044 375 1165 611 b 960 1063 1233 1019 1099 1063 b 701 993 838 1063 725 1040 b 754 589 696 843 715 735 b 728 557 760 571 744 557 b 704 578 717 557 708 565 b 638 993 653 744 654 843 b 403 1063 624 1039 519 1063 b 182 863 286 1063 160 1013 b 499 286 213 647 331 393 z "},"Ｚ":{"ha":146,"x_min":0,"x_max":0,"o":"m 868 343 b 768 228 849 324 783 249 b 718 240 742 196 694 215 l 1040 604 b 1168 861 1097 665 1168 749 b 1024 1054 1168 988 1103 1049 b 357 1054 779 1071 601 1071 b 210 861 279 1049 210 988 b 338 667 210 736 260 674 b 558 657 425 658 474 654 b 663 768 593 696 639 742 b 706 756 686 793 722 774 l 333 329 b 200 72 274 264 200 183 b 344 -125 200 -54 265 -125 l 1035 -125 b 1188 104 1114 -125 1188 -21 b 1036 332 1188 229 1115 328 b 868 343 960 338 943 342 z "},"［":{"ha":146,"x_min":0,"x_max":0,"o":"m 1267 -174 b 1267 53 1303 -100 1303 -25 l 1135 53 b 1064 76 1094 53 1064 54 b 1135 99 1065 103 1094 99 l 1135 876 l 1267 876 b 1267 1103 1303 953 1303 1031 l 963 1103 b 801 996 860 1103 801 1076 l 801 -68 b 963 -174 801 -147 860 -174 z "},"￦":{"ha":146,"x_min":0,"x_max":0,"o":"m 169 96 b 165 96 168 96 167 96 b 50 214 83 101 50 135 b 131 311 50 271 74 306 b 89 878 101 499 85 699 b 275 1063 93 981 157 1063 b 458 878 392 1063 436 981 b 514 526 485 761 500 650 b 610 726 542 596 581 676 b 779 726 647 799 742 799 b 875 526 808 676 847 596 b 931 878 889 650 906 761 b 1114 1063 953 981 997 1063 b 1300 878 1232 1063 1297 981 b 1258 311 1304 699 1288 499 b 1339 214 1315 307 1339 271 b 1222 96 1339 135 1306 101 b 1218 96 1221 96 1219 96 b 1211 61 1215 85 1214 72 b 1031 -125 1189 -49 1135 -125 b 896 -56 961 -125 924 -97 b 818 86 869 -17 843 32 b 572 86 738 86 653 86 b 494 -56 547 32 521 -17 b 358 -125 467 -97 428 -125 b 178 61 254 -125 200 -49 b 169 96 175 72 172 85 z m 656 301 b 733 301 682 301 708 301 b 708 374 725 326 717 350 b 681 374 703 393 686 393 b 656 301 672 350 664 326 z "},"］":{"ha":146,"x_min":0,"x_max":0,"o":"m 122 53 b 122 -174 86 -25 86 -100 l 426 -174 b 589 -68 529 -174 589 -149 l 589 996 b 426 1103 589 1076 529 1103 l 122 1103 b 122 876 86 1031 86 953 l 254 876 l 254 99 b 325 76 294 99 324 103 b 254 53 325 54 294 53 z "},"＾":{"ha":146,"x_min":0,"x_max":0,"o":"m 694 771 b 767 565 706 713 735 635 b 929 494 794 503 854 472 b 1018 638 1003 519 1039 571 b 878 981 979 757 932 874 b 694 1076 839 1051 751 1076 b 511 981 638 1076 550 1051 b 371 638 457 874 410 757 b 460 494 350 571 386 519 b 622 565 535 472 594 503 b 694 771 654 635 683 713 z "},"＿":{"ha":146,"x_min":0,"x_max":0,"o":"m 476 -154 b 908 -154 632 -167 754 -167 b 1026 -11 990 -149 1026 -89 b 910 113 1026 56 990 121 b 476 113 754 97 632 100 b 361 -11 397 119 361 56 b 476 -154 361 -89 397 -149 z "},"｀":{"ha":146,"x_min":0,"x_max":0,"o":"m 597 806 b 735 717 618 761 656 717 b 840 806 813 717 835 761 b 817 1015 847 861 833 939 b 667 1107 804 1065 753 1107 b 547 1015 578 1107 542 1065 b 597 806 556 939 571 861 z "},"ａ":{"ha":146,"x_min":0,"x_max":0,"o":"m 813 -22 b 954 -136 829 -97 876 -136 b 1099 -11 1033 -136 1079 -93 b 1090 514 1136 158 1138 378 b 686 753 1033 675 907 753 b 288 522 471 753 288 663 b 454 388 288 444 344 388 b 736 525 572 388 681 446 b 775 496 753 551 793 524 b 510 342 731 426 639 367 b 263 88 368 313 263 226 b 546 -149 263 -65 388 -149 b 813 -22 653 -149 750 -117 z m 575 76 b 556 122 544 72 533 117 b 732 214 628 140 679 169 b 757 172 750 228 783 194 b 575 76 704 129 642 85 z "},"ｂ":{"ha":146,"x_min":0,"x_max":0,"o":"m 485 510 b 474 547 471 515 464 529 b 610 692 494 590 551 657 b 600 878 608 738 604 839 b 410 1063 589 981 525 1063 b 217 878 292 1063 228 981 b 197 379 201 729 196 538 b 707 -136 201 42 344 -136 b 1192 322 947 -136 1192 -33 b 836 710 1192 604 1011 710 b 514 526 697 710 581 649 b 485 510 507 513 500 507 z m 879 281 b 863 231 899 275 894 226 b 672 311 794 244 726 269 b 696 356 647 329 678 368 b 879 281 756 313 811 293 z "},"ｃ":{"ha":146,"x_min":0,"x_max":0,"o":"m 601 371 b 606 403 593 381 599 399 b 633 404 614 411 625 414 b 918 264 699 314 803 264 b 1078 442 1000 264 1061 346 b 914 738 1101 563 1058 706 b 306 315 586 813 307 696 b 865 -149 303 -56 536 -150 b 1075 40 996 -149 1076 -90 b 867 231 1074 169 997 228 b 601 371 758 233 654 289 z "},"ｄ":{"ha":146,"x_min":0,"x_max":0,"o":"m 901 510 b 874 526 888 507 881 513 b 550 710 807 649 689 710 b 197 322 376 710 197 604 b 679 -136 197 -33 439 -136 b 1190 379 1042 -135 1185 42 b 1171 878 1192 538 1185 729 b 979 1063 1160 981 1096 1063 b 788 878 863 1063 799 981 b 778 692 783 839 779 738 b 914 547 836 657 893 590 b 901 510 922 529 915 515 z m 507 281 b 692 356 576 293 632 313 b 715 311 710 368 739 329 b 525 231 660 269 593 244 b 507 281 493 226 489 275 z "},"ｅ":{"ha":146,"x_min":0,"x_max":0,"o":"m 650 256 b 878 201 690 189 804 183 b 1094 431 1021 235 1088 297 b 736 753 1110 654 936 753 b 511 704 661 753 582 736 b 294 288 365 636 289 463 b 485 -85 296 142 358 -4 b 736 -149 557 -132 646 -149 b 917 -125 806 -149 850 -146 b 1075 74 1058 -81 1107 -15 b 853 153 1035 192 979 190 b 790 143 836 149 808 143 b 614 240 690 143 621 200 b 650 256 610 268 640 268 z m 869 447 b 672 444 803 461 744 464 b 669 496 649 439 639 483 b 874 497 731 521 807 511 b 869 447 906 492 893 444 z "},"ｆ":{"ha":146,"x_min":0,"x_max":0,"o":"m 461 357 b 475 38 464 249 468 146 b 671 -124 482 -58 563 -124 b 861 38 774 -122 856 -57 b 878 383 868 149 874 265 b 946 394 903 385 925 388 b 1032 557 1003 406 1032 468 b 946 718 1032 644 1003 706 l 874 726 b 907 757 878 747 882 754 l 936 761 b 1025 910 996 772 1025 821 b 879 1071 1025 1000 994 1058 b 718 1071 825 1078 772 1078 b 471 808 554 1054 476 938 l 465 721 b 442 718 457 721 450 721 b 356 557 385 707 356 644 b 442 394 356 468 385 404 b 540 392 468 390 510 390 b 540 358 556 392 556 358 z "},"ｇ":{"ha":146,"x_min":0,"x_max":0,"o":"m 858 769 b 706 785 799 779 756 785 b 260 499 433 785 293 646 b 378 185 229 375 275 246 b 232 -143 272 108 214 -24 b 671 -404 256 -281 385 -404 b 1121 -167 944 -404 1094 -290 b 721 153 1153 -21 1021 139 b 725 196 685 153 688 196 b 961 156 817 194 897 181 b 1135 469 1090 217 1135 354 b 1104 614 1135 579 1101 597 l 1119 632 b 1122 817 1172 690 1172 757 b 935 838 1068 879 993 890 z m 664 407 b 713 599 697 472 708 532 b 761 590 714 622 761 624 b 711 392 758 521 751 444 b 664 407 693 365 653 385 z m 650 -203 b 700 -11 685 -136 696 -79 b 749 -19 701 13 749 13 b 699 -218 746 -87 738 -164 b 650 -203 681 -243 639 -225 z "},"ｈ":{"ha":146,"x_min":0,"x_max":0,"o":"m 528 338 b 504 313 533 324 518 313 b 483 329 494 313 485 317 b 646 778 447 514 515 653 b 636 896 642 825 639 856 b 442 1067 621 1038 558 1067 b 251 896 326 1067 263 1038 b 231 383 240 747 229 542 l 231 7 b 318 -117 231 -56 269 -111 b 454 -125 356 -122 404 -125 b 576 -117 496 -125 540 -122 b 663 7 625 -110 663 -56 l 663 269 b 693 300 663 290 678 300 b 721 268 706 300 721 290 l 721 7 b 807 -117 721 -56 758 -110 b 933 -125 844 -122 889 -125 b 1072 -115 982 -125 1032 -122 b 1160 7 1121 -110 1160 -56 l 1160 518 b 865 793 1160 697 1015 793 b 618 671 771 793 679 754 b 528 338 539 576 503 468 z "},"ｉ":{"ha":146,"x_min":0,"x_max":0,"o":"m 694 690 b 513 883 603 690 513 760 b 694 1076 513 999 604 1076 b 879 879 797 1076 879 979 b 694 690 879 776 801 690 z m 508 -7 b 508 503 482 157 482 339 b 694 619 521 567 576 619 b 879 503 811 619 867 567 b 879 -7 906 339 906 157 b 694 -124 867 -72 811 -124 b 508 -7 576 -124 521 -72 z "},"ｊ":{"ha":146,"x_min":0,"x_max":0,"o":"m 772 690 b 592 883 679 690 592 760 b 772 1076 592 999 682 1076 b 957 879 876 1076 957 979 b 772 690 957 776 881 690 z m 589 50 b 589 503 560 200 561 351 b 772 619 599 567 654 619 b 957 503 889 619 947 568 b 957 50 979 351 972 203 b 583 -396 928 -232 860 -396 b 313 -175 449 -396 313 -319 b 482 25 313 -28 397 25 b 640 -79 549 25 613 -11 b 672 -65 649 -97 679 -90 b 589 50 660 -26 621 26 z "},"ｋ":{"ha":146,"x_min":0,"x_max":0,"o":"m 697 85 b 865 -85 753 26 808 -29 b 1081 -72 922 -143 1014 -137 b 1111 149 1149 -10 1160 85 b 985 303 1072 199 1028 256 l 907 246 b 882 279 882 231 860 264 b 1001 371 918 299 961 329 b 1097 475 1032 403 1065 439 b 1081 690 1149 533 1139 622 b 872 717 1017 758 931 768 l 696 565 b 683 906 694 679 689 792 b 499 1063 676 997 600 1063 b 315 906 399 1063 322 999 b 315 36 294 617 294 325 b 497 -124 322 -58 397 -124 b 683 36 600 -125 676 -60 b 686 74 683 49 685 61 z "},"ｌ":{"ha":146,"x_min":0,"x_max":0,"o":"m 811 217 b 982 58 914 207 982 175 b 624 -125 982 -97 771 -126 b 426 61 507 -125 438 -43 b 426 878 400 325 400 615 b 613 1063 438 981 494 1063 b 796 878 728 1063 785 981 b 811 217 817 675 822 428 z "},"ｍ":{"ha":146,"x_min":0,"x_max":0,"o":"m 365 707 b 206 753 301 736 249 753 b 113 733 175 753 147 746 b 51 642 76 721 51 685 l 51 -22 b 107 -124 51 -72 75 -115 b 232 -137 143 -132 182 -137 b 385 -119 292 -137 342 -131 b 442 -22 418 -110 442 -69 l 442 113 b 474 142 442 133 458 142 b 501 113 486 142 501 133 l 501 -22 b 553 -115 501 -65 519 -103 b 688 -137 594 -129 632 -137 b 825 -114 740 -137 774 -131 b 885 -22 860 -101 885 -64 l 885 113 b 914 142 885 132 899 142 b 944 111 929 142 944 132 l 944 -22 b 1004 -114 944 -64 968 -101 b 1133 -137 1054 -129 1094 -137 b 1272 -114 1182 -137 1224 -129 b 1335 -22 1308 -101 1333 -64 b 1289 646 1335 478 1353 560 b 1068 754 1235 722 1164 754 b 926 715 1007 754 964 740 b 781 397 853 669 771 538 b 754 374 781 382 771 376 b 725 396 736 374 728 381 b 810 664 719 496 751 585 b 611 756 757 724 686 756 b 486 715 567 756 531 742 b 325 367 400 661 313 511 b 299 344 325 351 317 346 b 272 363 281 343 272 349 b 365 663 261 474 290 574 z "},"ｎ":{"ha":146,"x_min":0,"x_max":0,"o":"m 571 707 b 397 753 507 736 450 753 b 290 733 361 753 328 746 b 229 642 256 721 229 685 l 229 -22 b 285 -124 229 -72 254 -115 b 431 -137 324 -132 378 -137 b 611 -119 460 -137 553 -137 b 663 -11 639 -110 661 -65 l 663 113 b 690 142 663 133 678 142 b 719 113 706 142 719 133 l 719 -22 b 779 -115 719 -65 746 -103 b 935 -137 824 -129 878 -137 b 1099 -114 989 -137 1046 -131 b 1160 -22 1133 -101 1160 -64 l 1160 406 b 829 753 1160 590 1014 753 b 754 742 807 753 783 749 b 533 390 661 724 525 567 b 507 367 535 376 526 368 b 481 385 489 365 481 372 b 571 658 475 489 507 579 z "},"ｏ":{"ha":146,"x_min":0,"x_max":0,"o":"m 264 289 b 711 -149 264 39 454 -149 b 1124 289 960 -149 1122 57 b 715 753 1124 518 992 753 b 264 289 442 753 265 560 z m 651 211 b 701 403 686 278 697 335 b 750 396 703 426 751 428 b 700 196 749 326 739 251 b 651 211 682 169 640 190 z "},"ｐ":{"ha":146,"x_min":0,"x_max":0,"o":"m 638 -183 b 372 -28 529 -164 439 -115 b 381 6 363 -17 367 -7 b 414 4 396 15 407 15 b 721 -143 490 -97 606 -143 b 1157 233 914 -143 1115 -11 b 704 750 1201 511 1028 750 b 490 724 647 750 575 740 b 390 749 458 742 424 749 b 225 635 311 749 225 707 l 225 158 b 246 -335 225 -6 228 -169 b 436 -518 257 -436 319 -518 b 626 -335 553 -518 617 -436 b 636 -185 631 -294 635 -229 z m 646 235 b 631 283 615 229 610 278 b 815 358 700 296 754 315 b 836 314 833 371 861 333 b 646 235 782 272 715 249 z "},"ｑ":{"ha":146,"x_min":0,"x_max":0,"o":"m 753 -185 b 763 -335 754 -229 758 -294 b 953 -518 772 -436 836 -518 b 1143 -335 1069 -518 1133 -436 b 1164 158 1161 -169 1164 -6 l 1164 635 b 999 749 1164 707 1079 749 b 899 724 965 749 931 742 b 685 750 814 740 742 750 b 232 233 361 750 188 511 b 668 -143 274 -11 475 -143 b 975 4 783 -143 900 -97 b 1008 6 982 15 993 15 b 1017 -28 1022 -7 1026 -17 b 751 -183 951 -115 860 -164 z m 553 314 b 574 358 528 333 557 371 b 758 283 635 315 690 296 b 743 235 779 278 774 229 b 553 314 674 249 607 272 z "},"ｒ":{"ha":146,"x_min":0,"x_max":0,"o":"m 956 325 b 1107 549 1090 349 1107 475 b 954 754 1108 626 1069 753 b 719 535 811 754 757 685 b 697 515 718 522 708 515 b 672 543 685 515 671 524 b 757 721 679 610 711 674 b 567 753 732 740 647 753 b 454 744 524 753 483 750 b 393 656 418 739 393 701 b 399 -21 389 469 376 156 b 583 -137 407 -86 467 -137 b 768 -21 700 -137 757 -86 b 783 349 786 97 792 225 b 817 372 782 364 792 372 b 956 325 857 372 918 342 z "},"ｓ":{"ha":146,"x_min":0,"x_max":0,"o":"m 282 53 b 668 -140 313 -89 488 -140 b 1113 149 890 -140 1113 -69 b 788 371 1113 317 947 365 b 790 429 747 371 751 433 b 1001 382 857 425 938 410 b 1074 415 1040 365 1068 379 b 1081 558 1079 458 1086 507 b 681 754 1071 713 926 754 b 296 468 451 754 296 697 b 611 229 296 315 456 238 b 607 171 646 225 649 171 b 360 249 525 178 431 203 b 292 222 325 268 297 260 b 282 53 279 163 271 107 z "},"ｔ":{"ha":146,"x_min":0,"x_max":0,"o":"m 875 336 l 782 338 b 783 374 756 338 754 374 b 946 381 847 374 888 374 b 1033 546 1004 392 1033 456 b 946 708 1033 635 1004 697 l 872 718 l 863 864 b 671 1010 856 958 775 1010 b 475 864 563 1010 482 960 b 467 711 472 810 468 761 b 442 708 458 711 450 710 b 354 546 383 699 354 635 b 442 381 354 456 383 393 b 460 378 449 379 456 378 b 469 139 461 301 465 224 b 718 -126 475 7 554 -124 l 849 -126 b 1026 53 971 -119 1026 -44 b 938 215 1026 147 1001 203 l 913 219 b 875 281 883 225 875 242 z "},"ｕ":{"ha":146,"x_min":0,"x_max":0,"o":"m 768 -104 b 750 22 754 -79 711 8 b 943 -149 814 44 739 -149 b 1053 -135 975 -149 1007 -144 b 1118 111 1157 -111 1126 17 l 1118 636 b 1061 733 1118 683 1094 724 b 917 753 1024 746 969 753 b 785 736 867 753 821 747 b 733 636 754 726 733 685 l 733 268 b 665 263 732 221 668 218 l 665 636 b 607 732 665 681 639 722 b 457 753 567 746 513 753 b 324 732 410 753 360 746 b 265 636 290 721 265 681 b 426 -114 263 131 226 -36 b 567 -136 465 -129 510 -136 b 768 -104 639 -136 710 -124 z "},"ｖ":{"ha":146,"x_min":0,"x_max":0,"o":"m 585 -137 l 801 -137 b 1171 576 1029 -137 1132 314 b 1061 746 1182 658 1132 736 b 833 746 986 756 908 756 b 724 576 765 736 719 661 b 756 303 726 488 740 414 b 711 294 761 268 718 264 b 671 576 688 408 681 485 b 526 747 661 667 611 735 b 325 747 460 757 392 756 b 218 576 254 739 206 660 b 585 -137 264 283 374 -137 z "},"ｗ":{"ha":146,"x_min":0,"x_max":0,"o":"m 363 -137 l 563 -137 b 725 32 631 -137 678 -79 b 747 44 731 42 736 44 b 768 19 760 44 774 33 b 718 -75 751 -18 736 -49 b 810 -137 754 -124 775 -136 l 1014 -137 b 1072 -119 1039 -136 1056 -131 b 1340 636 1276 32 1319 369 b 1289 732 1344 681 1322 724 b 1147 753 1247 746 1201 753 b 1006 735 1094 753 1051 747 b 947 638 974 725 949 685 b 967 254 946 501 947 406 b 950 228 972 235 963 228 b 928 246 936 228 929 235 b 893 636 901 400 897 497 b 835 732 893 682 867 724 b 697 750 792 744 747 750 b 522 732 615 750 576 757 b 468 632 489 717 467 675 b 506 224 472 493 486 326 b 492 203 506 213 501 204 b 469 221 482 201 475 206 b 407 636 442 317 418 497 b 346 733 403 685 378 724 b 226 750 310 744 278 750 b 101 735 174 750 138 746 b 49 636 68 725 46 682 b 232 -51 61 431 118 174 b 363 -137 264 -114 301 -132 z "},"ｘ":{"ha":146,"x_min":0,"x_max":0,"o":"m 665 -6 l 607 61 b 632 93 589 78 618 110 b 794 -85 679 33 742 -33 b 1033 -86 861 -151 956 -157 b 1068 163 1111 -14 1125 88 b 951 306 1032 210 993 258 b 1069 461 994 357 1033 410 b 1031 701 1124 539 1110 632 b 789 694 949 769 850 767 l 722 619 l 776 543 b 746 514 792 517 760 496 b 600 694 713 575 646 643 b 357 701 536 765 439 769 b 319 461 279 632 264 539 b 435 306 354 410 393 357 b 321 163 393 258 354 210 b 354 -86 264 88 276 -14 b 593 -85 432 -157 526 -151 z "},"ｙ":{"ha":146,"x_min":0,"x_max":0,"o":"m 617 354 l 683 643 b 640 738 693 688 675 728 b 500 753 604 747 553 753 b 354 736 449 753 394 747 b 290 642 322 728 294 690 l 258 340 b 586 10 235 124 421 10 b 882 218 715 10 822 76 b 914 225 888 228 899 232 b 931 199 931 218 936 208 b 610 -39 874 69 763 -39 b 499 -32 574 -39 525 -36 b 338 -156 410 -19 361 -82 b 415 -372 310 -237 313 -336 b 647 -410 488 -399 606 -410 b 1018 -237 792 -410 935 -358 b 1133 196 1097 -124 1133 22 l 1131 642 b 1075 739 1131 690 1108 732 b 956 753 1043 749 999 753 b 814 736 903 753 851 747 b 740 643 782 728 751 692 l 667 346 b 642 326 663 332 653 326 b 617 354 626 326 611 338 z "},"ｚ":{"ha":146,"x_min":0,"x_max":0,"o":"m 483 383 l 572 476 b 607 457 596 499 621 472 l 369 214 b 306 36 326 168 306 119 b 439 -137 306 -69 360 -137 l 972 -137 b 1085 40 1040 -137 1085 -56 b 974 217 1085 139 1036 207 b 857 222 928 222 910 221 l 753 122 b 717 144 732 100 697 125 l 983 408 b 1078 597 1029 447 1078 514 b 972 739 1078 692 1031 735 b 419 739 790 753 600 753 b 311 567 360 735 311 658 b 406 392 311 475 346 401 b 483 383 435 386 454 383 z "},"｛":{"ha":146,"x_min":0,"x_max":0,"o":"m 897 214 b 882 67 896 154 886 90 b 1265 -172 890 -128 1054 -186 b 1265 113 1304 -75 1304 19 b 1064 510 1039 140 1328 381 b 1072 544 1050 515 1047 544 b 1153 494 1089 544 1114 532 b 1178 651 1192 544 1185 597 b 1264 819 1160 815 1192 813 b 1264 1104 1300 918 1306 1014 b 882 864 1049 1118 886 1056 b 896 718 889 801 893 756 l 894 718 b 783 467 832 726 783 651 b 894 214 783 282 832 204 z "},"｜":{"ha":146,"x_min":0,"x_max":0,"o":"m 538 -22 b 693 -174 542 -111 606 -172 b 850 -22 782 -174 846 -112 b 850 950 865 256 865 674 b 694 1103 846 1040 782 1103 b 538 950 606 1103 542 1042 b 538 -22 524 674 524 256 z "},"｝":{"ha":146,"x_min":0,"x_max":0,"o":"m 493 718 b 507 864 496 756 500 801 b 125 1104 503 1056 340 1118 b 124 819 83 1014 89 918 b 211 651 197 813 229 815 b 236 494 204 597 197 544 b 317 544 275 532 300 544 b 325 510 342 544 339 515 b 124 113 61 381 350 140 b 124 -172 85 19 85 -75 b 507 67 335 -186 499 -128 b 492 214 503 90 493 154 l 494 214 b 606 467 557 204 606 282 b 494 718 606 651 557 726 z "},"‾":{"ha":146,"x_min":0,"x_max":0,"o":"m 346 819 b 1040 819 501 806 886 806 b 1158 964 1122 826 1158 883 b 1042 1086 1158 1031 1122 1094 b 346 1086 886 1072 501 1075 b 231 964 267 1093 231 1031 b 346 819 231 883 267 826 z "},"￣":{"ha":146,"x_min":0,"x_max":0,"o":"m 346 819 b 1040 819 501 806 886 806 b 1158 964 1122 826 1158 883 b 1042 1086 1158 1031 1122 1094 b 346 1086 886 1072 501 1075 b 231 964 267 1093 231 1031 b 346 819 231 883 267 826 z "},"ㄱ":{"ha":0,"x_min":0,"x_max":0,"o":"m 318 388 b 689 628 464 383 582 467 b 715 614 700 644 726 632 b 638 258 654 518 621 396 b 911 44 654 122 758 39 b 1206 231 1054 49 1158 111 b 1228 678 1254 357 1254 551 b 978 918 1203 794 1111 883 b 340 915 785 967 540 965 b 89 611 192 878 82 776 b 318 388 94 447 188 392 z "},"ㄲ":{"ha":0,"x_min":0,"x_max":0,"o":"m 344 386 b 499 71 260 172 342 71 b 724 386 618 71 724 153 b 868 400 760 386 828 390 b 1015 71 794 164 888 71 b 1204 199 1108 71 1165 118 b 1229 750 1269 339 1294 603 b 894 936 1179 865 1069 935 b 588 907 767 938 689 929 b 692 826 624 893 678 844 b 663 807 700 813 675 794 b 361 936 601 881 514 936 b 33 635 160 936 35 835 b 221 374 32 481 111 383 b 344 386 257 372 304 375 z "},"ㄳ":{"ha":0,"x_min":0,"x_max":0,"o":"m 344 511 b 296 201 297 418 283 313 b 465 74 307 104 382 74 b 649 228 533 74 626 128 b 654 258 650 238 653 247 b 799 63 665 107 713 63 b 949 265 893 63 932 110 b 961 471 954 321 961 394 b 1001 471 961 513 1001 513 b 1014 264 1001 394 1008 321 b 1164 63 1031 110 1071 63 b 1310 344 1264 63 1310 122 b 982 931 1310 747 1174 931 b 667 563 828 931 708 819 b 657 658 664 594 661 626 b 367 926 633 822 529 926 b 18 649 181 926 6 890 b 189 485 24 511 122 488 b 344 511 253 481 297 485 z "},"ㄴ":{"ha":0,"x_min":0,"x_max":0,"o":"m 342 113 b 1050 124 576 49 885 61 b 1261 431 1204 182 1265 274 b 1000 676 1254 611 1131 676 b 528 388 806 676 661 567 b 504 410 511 363 490 388 b 546 746 564 500 571 628 b 278 925 506 918 386 951 b 93 550 176 900 85 811 b 342 113 101 329 182 156 z "},"ㄵ":{"ha":0,"x_min":0,"x_max":0,"o":"m 350 454 b 364 410 324 442 333 396 b 492 446 406 429 438 446 b 586 421 528 446 561 439 b 689 583 606 492 639 544 b 576 728 614 603 576 656 b 738 878 576 810 629 871 b 939 886 818 883 860 886 b 1143 878 1018 886 1064 883 b 1301 728 1251 871 1301 810 b 1190 583 1301 656 1267 601 b 1310 283 1268 521 1310 418 b 1158 79 1310 151 1263 79 b 1000 278 1049 79 1011 156 b 894 450 989 396 940 426 b 871 436 888 453 875 457 b 879 404 863 414 872 407 b 965 244 919 393 965 335 b 767 61 965 119 897 61 b 603 136 690 61 635 85 b 342 61 547 81 450 61 b 51 250 157 61 72 132 b 56 758 26 378 39 629 b 242 889 65 838 133 889 b 431 756 350 889 421 838 b 422 482 440 675 442 525 b 350 454 393 474 368 465 z "},"ㄶ":{"ha":0,"x_min":0,"x_max":0,"o":"m 350 456 b 364 411 324 443 333 397 b 492 447 406 431 438 447 b 575 429 524 447 551 442 b 625 501 586 456 603 481 b 561 619 585 525 561 564 b 657 756 561 693 597 746 b 789 728 699 764 750 764 b 757 815 764 754 753 781 b 931 918 767 871 826 918 b 1101 815 1033 918 1092 871 b 1068 728 1107 782 1092 754 b 1204 756 1108 764 1160 764 b 1297 617 1260 747 1297 690 b 1232 500 1297 561 1272 522 b 1300 328 1281 454 1300 393 b 931 63 1300 186 1194 63 b 622 161 779 63 681 101 b 342 63 574 86 464 63 b 51 251 157 63 72 133 b 56 760 26 379 39 631 b 242 890 65 839 133 890 b 431 757 350 890 421 839 b 422 483 440 676 442 526 b 350 456 393 475 368 467 z m 838 425 b 994 296 882 364 935 325 b 1014 350 1019 286 1043 338 b 872 463 958 375 917 401 b 838 425 854 489 817 451 z "},"ㄷ":{"ha":0,"x_min":0,"x_max":0,"o":"m 564 468 b 554 606 569 503 567 568 l 1033 606 b 1213 763 1154 606 1213 661 b 1033 913 1213 858 1147 906 b 331 910 928 921 433 919 b 115 736 213 900 142 846 b 115 253 85 618 85 372 b 406 76 142 144 226 96 b 1092 89 565 58 872 54 b 1243 301 1217 110 1251 204 b 1018 492 1229 440 1143 492 b 485 407 918 492 676 471 b 471 435 460 400 451 425 b 564 468 499 449 525 453 z "},"ㄸ":{"ha":0,"x_min":0,"x_max":0,"o":"m 633 150 b 653 164 625 161 643 178 b 933 64 722 83 822 64 b 1282 290 1129 64 1288 117 b 1146 451 1278 407 1231 451 b 1014 436 1101 451 1039 443 b 1008 589 1032 483 1032 550 b 1253 749 1178 583 1260 639 b 921 915 1244 874 1179 925 b 633 782 769 910 675 872 b 606 789 626 768 603 776 b 663 872 614 825 639 853 b 367 915 578 910 489 915 b 96 744 217 915 121 851 b 96 229 69 624 71 347 b 403 56 121 122 233 56 b 699 89 504 56 613 64 b 633 150 668 107 644 129 z m 639 442 b 433 428 579 442 479 443 b 429 589 454 474 454 550 l 639 589 z "},"ㄹ":{"ha":0,"x_min":0,"x_max":0,"o":"m 128 214 b 463 58 161 135 269 72 b 963 65 632 47 792 44 b 1261 276 1132 89 1268 138 b 908 444 1256 408 1135 444 b 482 400 763 444 603 422 b 476 436 449 393 443 428 b 1032 482 615 468 792 485 b 1207 538 1114 481 1186 493 b 1207 811 1238 603 1238 735 b 863 938 1172 899 1031 926 b 436 932 726 947 585 943 b 136 779 233 915 136 864 b 422 654 136 692 197 654 b 785 668 540 654 661 660 b 788 635 813 671 818 638 b 397 618 654 622 529 618 b 128 483 213 618 161 561 b 128 214 97 417 93 292 z "},"ㄺ":{"ha":0,"x_min":0,"x_max":0,"o":"m 322 464 b 596 503 433 497 492 503 b 683 579 638 503 669 532 b 840 485 714 503 788 488 b 996 511 904 481 949 485 b 947 175 949 418 935 288 b 1117 47 960 79 1035 47 b 1275 203 1185 47 1253 100 b 1282 658 1297 311 1304 506 b 1018 926 1260 822 1156 926 b 690 789 876 926 742 906 b 688 807 689 794 689 801 b 526 922 672 893 611 910 b 254 922 408 938 350 931 b 56 790 111 907 56 910 b 243 682 56 669 101 676 b 394 697 296 685 350 688 b 397 650 426 703 429 657 b 183 633 314 635 271 633 b 69 528 124 633 85 597 b 67 217 47 436 47 299 b 279 61 86 128 153 75 b 575 72 393 47 464 49 b 746 290 690 94 746 128 b 542 454 746 446 692 464 b 328 415 476 451 407 438 b 322 464 304 408 300 454 z "},"ㄻ":{"ha":0,"x_min":0,"x_max":0,"o":"m 318 464 b 546 508 431 497 474 506 b 636 603 593 510 625 544 b 636 807 646 660 650 731 b 475 922 622 893 560 922 l 235 922 b 38 790 92 922 38 911 b 225 686 38 694 85 668 l 318 699 b 321 649 350 701 353 654 b 164 626 268 638 219 632 b 51 522 104 618 67 592 b 49 217 28 431 28 299 b 263 61 68 128 135 72 b 513 72 350 53 411 56 b 679 211 606 88 661 115 b 785 79 696 126 732 93 b 1164 79 903 47 1049 47 b 1278 253 1226 94 1265 136 b 1279 696 1292 388 1289 568 b 1201 871 1271 786 1242 857 b 772 888 1068 928 907 929 b 671 696 724 869 681 800 b 663 410 663 613 660 508 b 481 454 633 460 576 468 b 324 417 424 447 397 438 b 318 464 300 408 297 454 z m 864 513 b 899 526 871 532 888 535 b 1071 525 947 497 1025 496 b 1104 506 1083 536 1100 522 b 1088 471 1111 486 1103 478 b 883 471 1033 438 954 439 b 864 513 860 481 854 492 z "},"ㄼ":{"ha":0,"x_min":0,"x_max":0,"o":"m 1013 731 b 936 731 988 738 964 738 l 936 781 b 672 756 936 967 692 975 b 664 408 664 650 661 525 b 481 454 636 460 578 468 b 324 417 424 447 397 438 b 318 464 300 408 297 454 b 546 508 431 497 474 506 b 636 603 593 510 625 544 b 636 807 646 660 650 731 b 475 922 622 893 560 922 l 235 922 b 38 790 92 922 38 911 b 225 686 38 694 85 668 l 318 699 b 321 649 350 701 353 654 b 164 626 268 638 219 632 b 51 522 104 618 67 592 b 49 217 28 431 28 299 b 263 61 68 128 135 72 b 513 72 350 53 411 56 b 678 206 604 86 660 113 b 783 64 694 125 731 76 b 1167 64 900 38 1053 38 b 1278 239 1226 78 1268 139 b 1278 756 1292 386 1289 596 b 1013 781 1260 975 1013 967 z m 894 408 b 878 450 875 419 871 432 b 906 471 883 468 896 476 b 1043 469 944 451 1001 450 b 1067 446 1057 475 1065 458 b 1056 408 1071 424 1067 417 b 894 408 1018 378 939 382 z "},"ㄽ":{"ha":0,"x_min":0,"x_max":0,"o":"m 318 464 b 546 508 431 497 474 506 b 636 603 593 510 625 544 b 636 807 646 660 650 731 b 475 922 622 893 560 922 l 235 922 b 38 790 92 922 38 911 b 225 686 38 694 85 668 l 318 699 b 321 649 350 701 353 654 b 164 626 268 638 219 632 b 51 522 104 618 67 592 b 49 217 28 431 28 299 b 263 61 68 128 135 72 b 513 72 350 53 411 56 b 664 160 588 83 638 103 b 794 61 685 82 728 61 b 939 219 875 61 922 94 b 954 426 947 275 954 368 b 997 426 954 469 997 469 b 1015 217 997 368 1007 275 b 1160 61 1032 94 1081 61 b 1306 324 1261 61 1306 110 b 978 922 1306 822 1154 922 b 650 428 813 922 669 836 b 481 454 618 461 564 465 b 324 417 424 447 397 438 b 318 464 300 408 297 454 z "},"ㄾ":{"ha":0,"x_min":0,"x_max":0,"o":"m 318 464 b 546 508 431 497 474 506 b 636 603 593 510 625 544 b 636 807 646 660 650 731 b 475 922 622 893 560 922 l 235 922 b 38 790 92 922 38 911 b 225 686 38 694 85 668 l 318 699 b 321 649 350 701 353 654 b 164 626 268 638 219 632 b 51 522 104 618 67 592 b 49 217 28 431 28 299 b 263 61 68 128 135 72 b 513 72 350 53 411 56 b 685 276 625 90 682 125 b 804 93 700 169 739 113 b 1204 94 935 57 1067 60 b 1290 269 1267 113 1290 164 b 1208 449 1290 392 1267 449 l 928 444 b 928 503 885 444 885 503 l 1208 507 b 1274 585 1263 507 1274 539 b 1208 668 1274 632 1263 668 l 928 668 b 928 719 888 668 888 719 l 1215 719 b 1279 819 1269 719 1279 761 b 1218 908 1279 864 1269 904 b 779 901 1068 919 929 919 b 678 653 706 892 678 811 l 678 388 b 678 367 678 381 678 374 b 481 454 658 454 599 471 b 324 417 424 447 397 438 b 318 464 300 408 297 454 z "},"ㄿ":{"ha":0,"x_min":0,"x_max":0,"o":"m 318 464 b 546 508 431 497 474 506 b 636 603 593 510 625 544 b 636 807 646 660 650 731 b 475 922 622 893 560 922 l 235 922 b 38 790 92 922 38 911 b 225 686 38 694 85 668 l 318 699 b 321 649 350 701 353 654 b 164 626 268 638 219 632 b 51 522 104 618 67 592 b 49 217 28 431 28 299 b 263 61 68 128 135 72 b 513 72 350 53 411 56 b 657 149 582 83 629 101 b 718 82 668 108 690 89 b 988 60 781 65 906 60 b 1244 82 1068 60 1194 65 b 1310 214 1281 94 1310 126 b 1244 349 1310 303 1282 338 b 1224 353 1238 350 1231 351 b 1238 624 1238 435 1242 532 b 1244 626 1240 625 1242 625 b 1310 758 1281 639 1310 668 b 1244 893 1310 846 1282 883 b 988 913 1172 908 1068 913 b 718 893 906 913 789 908 b 650 758 678 882 650 846 b 718 626 650 668 679 638 b 728 624 721 625 725 625 b 740 354 722 532 726 436 b 718 349 732 353 725 350 b 683 329 706 344 693 339 b 481 454 674 450 614 474 b 324 417 424 447 397 438 b 318 464 300 408 297 454 z m 954 369 b 949 603 958 447 957 525 b 988 603 963 603 975 603 b 1019 603 997 603 1008 603 b 1011 369 1011 525 1008 447 b 988 369 1003 369 996 369 b 954 369 978 369 965 369 z "},"ㅀ":{"ha":0,"x_min":0,"x_max":0,"o":"m 671 179 b 974 63 717 107 811 63 b 1310 326 1221 63 1310 171 b 1249 510 1310 399 1293 463 b 1315 651 1292 538 1315 586 b 1231 789 1315 732 1272 779 b 1104 758 1190 797 1142 797 b 1133 844 1128 788 1140 811 b 974 958 1128 907 1069 958 b 810 844 874 958 819 907 b 840 758 806 808 818 788 b 715 789 803 797 757 797 b 644 728 688 783 661 761 b 636 808 643 754 642 781 b 475 924 622 894 560 924 l 235 924 b 38 792 92 924 38 913 b 225 688 38 696 85 669 l 318 700 b 321 650 350 703 353 656 b 164 628 268 639 219 633 b 51 524 104 619 67 593 b 49 218 28 432 28 300 b 263 63 68 129 135 74 b 513 74 350 54 411 57 b 671 179 594 86 647 108 z m 318 465 b 546 510 431 499 474 507 b 636 601 593 511 625 544 b 696 513 646 563 667 533 b 649 431 674 489 658 461 b 481 456 617 463 563 467 b 324 418 424 449 397 439 b 318 465 300 410 297 456 z m 888 440 b 929 474 868 472 911 501 b 1053 357 968 417 1001 385 b 1035 300 1081 342 1058 286 b 888 440 978 331 929 376 z "},"ㅁ":{"ha":0,"x_min":0,"x_max":0,"o":"m 226 114 b 1121 114 501 68 846 68 b 1236 261 1194 126 1221 164 b 1242 731 1257 382 1256 621 b 1121 878 1228 829 1194 861 b 226 878 850 942 497 942 b 106 731 154 861 121 829 b 111 261 92 621 90 382 b 226 114 126 164 154 126 z m 558 551 b 590 564 564 565 581 568 b 760 563 639 536 708 535 b 789 550 772 568 786 560 b 775 514 794 535 788 519 b 576 514 713 482 639 481 b 558 551 557 524 550 538 z "},"ㅂ":{"ha":0,"x_min":0,"x_max":0,"o":"m 750 750 b 597 750 699 761 649 761 l 597 793 b 115 765 597 988 154 997 b 115 231 89 618 89 365 b 333 50 136 128 213 65 b 1017 50 560 21 789 21 b 1232 231 1135 65 1213 128 b 1232 765 1260 365 1258 618 b 750 793 1193 997 750 988 z m 567 394 b 575 443 544 394 546 439 b 782 396 643 451 721 432 b 767 347 811 376 788 338 b 567 394 706 381 640 394 z "},"ㅃ":{"ha":0,"x_min":0,"x_max":0,"o":"m 410 725 b 336 725 389 732 356 732 l 336 799 b 218 931 336 879 311 931 b 88 761 126 931 100 888 b 88 249 72 621 76 382 b 196 61 94 142 140 82 b 544 61 292 21 447 21 b 649 249 596 82 640 142 b 649 761 660 382 658 608 b 535 931 642 878 611 931 b 410 799 440 931 410 889 z m 1015 725 b 942 725 997 732 961 732 l 942 799 b 824 931 942 879 918 931 b 700 761 738 931 711 888 b 700 249 686 608 689 382 b 807 61 708 142 754 82 b 1156 61 904 21 1060 21 b 1263 249 1210 82 1253 142 b 1263 761 1274 382 1272 608 b 1140 931 1254 878 1222 931 b 1015 799 1047 931 1015 889 z m 1033 401 b 904 431 999 421 951 431 b 911 481 883 431 883 478 b 1058 443 953 485 1019 474 b 1033 401 1082 424 1056 386 z m 299 431 b 304 481 278 431 278 478 b 451 443 349 485 415 474 b 426 401 476 424 449 386 b 299 431 393 421 346 431 z "},"ㅄ":{"ha":0,"x_min":0,"x_max":0,"o":"m 417 736 b 324 736 385 746 354 746 l 324 788 b 40 763 324 974 67 983 b 40 239 24 622 24 368 b 174 65 54 139 101 79 b 564 65 317 38 422 38 b 686 176 621 76 664 114 b 810 49 701 79 739 49 b 961 253 904 49 943 94 b 972 457 968 307 972 381 b 1013 457 972 500 1013 500 b 1025 251 1013 381 1019 307 b 1176 49 1042 94 1082 49 b 1308 332 1276 49 1308 110 b 993 918 1308 732 1185 918 b 708 640 860 918 757 833 b 700 763 707 686 704 728 b 417 788 675 983 417 974 z m 299 454 b 438 453 339 429 397 426 b 463 432 449 463 461 444 b 450 393 467 408 461 404 b 289 393 399 365 339 361 b 274 436 268 406 267 417 b 299 454 279 453 292 461 z "},"ㅅ":{"ha":0,"x_min":0,"x_max":0,"o":"m 410 54 b 733 321 610 54 733 132 b 629 551 733 451 690 519 b 657 594 596 568 622 614 b 790 313 729 557 788 464 b 1046 54 793 135 882 54 b 1261 390 1210 54 1261 179 b 696 949 1261 725 1063 949 b 85 404 315 949 85 749 b 410 54 85 179 208 54 z "},"ㅆ":{"ha":0,"x_min":0,"x_max":0,"o":"m 390 536 b 419 540 396 546 408 547 b 515 300 481 507 511 422 b 693 75 519 158 556 75 b 856 315 810 75 857 167 b 779 522 854 411 833 488 b 772 550 772 528 768 539 b 804 554 778 560 789 563 b 904 279 863 524 899 454 b 1067 75 910 138 951 75 b 1274 410 1215 75 1274 185 b 935 926 1274 744 1128 926 b 671 758 781 926 715 872 b 438 926 628 868 553 926 b 71 403 254 926 71 758 b 271 75 71 196 136 75 b 474 310 421 75 474 167 b 399 506 474 372 450 475 b 390 536 383 514 382 525 z "},"ㅇ":{"ha":0,"x_min":0,"x_max":0,"o":"m 85 428 b 674 49 85 151 235 49 b 1261 428 1110 49 1261 151 b 674 949 1261 747 1053 949 b 85 428 292 949 85 747 z m 583 336 b 583 388 560 336 560 388 l 761 388 b 761 336 785 388 785 336 z "},"ㅈ":{"ha":0,"x_min":0,"x_max":0,"o":"m 324 606 b 85 340 179 558 85 472 b 403 57 85 146 208 57 b 707 290 610 57 707 146 b 592 456 707 385 654 440 b 578 476 581 458 576 469 b 599 486 582 486 590 489 b 749 294 682 468 739 408 b 1021 57 757 151 843 57 b 1261 331 1178 57 1261 157 b 1026 606 1261 465 1171 556 b 1126 614 1061 607 1094 611 b 1253 763 1200 619 1253 679 b 1126 903 1253 844 1200 894 b 674 924 990 918 825 924 b 218 903 519 924 354 918 b 92 763 144 894 92 844 b 218 614 92 679 144 619 b 324 606 251 611 288 607 z "},"ㅉ":{"ha":0,"x_min":0,"x_max":0,"o":"m 211 631 b 78 347 114 557 81 442 b 310 53 74 192 136 53 b 497 275 439 53 497 144 b 414 458 497 361 464 417 b 411 488 406 467 400 478 b 435 488 417 494 428 493 b 543 206 522 425 546 342 b 690 53 542 115 575 53 b 883 275 832 53 883 153 b 800 458 883 365 850 417 b 796 488 792 467 788 478 b 822 488 803 496 814 493 b 929 206 914 421 931 333 b 1081 53 928 113 965 53 b 1264 360 1193 53 1282 140 b 1111 628 1257 444 1214 556 l 1126 628 b 1242 757 1190 624 1242 678 b 1069 908 1242 847 1179 899 b 260 908 929 919 399 919 b 88 757 151 899 88 847 b 200 631 88 679 138 626 z "},"ㅊ":{"ha":0,"x_min":0,"x_max":0,"o":"m 278 529 b 97 272 165 475 97 390 b 403 18 97 111 208 18 b 706 232 596 18 706 99 b 592 407 706 322 651 375 b 576 432 581 411 575 421 b 600 446 579 443 592 450 b 750 236 686 414 742 361 b 1008 18 756 103 843 18 b 1247 269 1163 18 1247 128 b 1071 531 1247 386 1182 474 b 1233 681 1181 550 1233 603 b 1114 822 1233 768 1183 817 b 897 772 1033 828 960 810 b 950 890 936 799 953 846 b 675 1014 943 969 838 1014 b 397 890 507 1014 403 969 b 447 772 393 846 408 797 b 233 822 385 810 315 828 b 113 671 161 818 113 763 b 278 529 113 596 167 546 z "},"ㅋ":{"ha":0,"x_min":0,"x_max":0,"o":"m 738 193 b 726 76 729 146 725 114 b 924 -22 729 1 811 -26 b 1142 122 1029 -18 1101 11 b 1142 783 1201 285 1232 608 b 600 960 1065 931 836 960 b 99 708 332 960 99 943 b 314 497 99 571 203 515 b 869 535 485 471 646 464 b 879 497 896 543 906 506 b 351 439 707 435 515 426 b 168 319 233 447 167 399 b 315 172 168 251 224 182 b 738 193 410 161 639 165 z "},"ㅌ":{"ha":0,"x_min":0,"x_max":0,"o":"m 300 63 b 1146 68 565 24 843 25 b 1250 242 1210 78 1250 132 b 1146 418 1250 356 1210 419 l 551 415 b 551 474 524 415 524 474 l 1144 476 b 1219 560 1200 478 1219 501 b 1144 649 1219 618 1200 649 l 551 649 b 551 699 525 649 525 699 l 1157 699 b 1232 803 1213 699 1232 747 b 1157 896 1232 863 1213 894 b 246 888 850 908 554 908 b 99 644 147 879 99 800 l 99 368 b 300 63 99 190 172 82 z "},"ㅍ":{"ha":0,"x_min":0,"x_max":0,"o":"m 263 389 b 219 385 247 388 233 386 b 93 238 146 376 93 325 b 219 92 93 151 146 99 b 675 69 356 76 521 69 b 1128 92 826 69 992 76 b 1254 238 1201 99 1254 151 b 1128 385 1254 325 1201 376 b 1076 390 1111 386 1094 389 b 1083 617 1086 461 1089 540 b 1128 621 1099 618 1113 619 b 1254 767 1201 629 1254 682 b 1128 914 1254 853 1201 907 b 675 936 992 929 826 936 b 219 914 521 936 356 929 b 93 767 146 907 93 853 b 219 621 93 682 146 629 b 256 617 232 619 243 618 b 263 389 250 539 253 460 z m 606 407 b 596 599 608 471 604 535 b 675 599 622 599 649 599 b 743 599 697 599 721 599 b 733 407 735 535 732 471 b 675 407 714 407 694 407 b 606 407 653 407 629 407 z "},"ㅎ":{"ha":0,"x_min":0,"x_max":0,"o":"m 260 547 b 122 315 154 492 122 407 b 675 14 122 154 243 14 b 1224 315 1101 14 1224 154 b 1085 547 1224 407 1192 492 b 1233 693 1185 567 1233 621 b 1114 835 1233 782 1183 831 b 897 785 1033 840 960 824 b 950 903 936 811 953 858 b 675 1029 943 982 838 1029 b 397 903 507 1029 403 982 b 447 785 393 858 408 810 b 233 835 385 824 315 840 b 113 686 161 832 113 775 b 260 547 113 613 161 565 z m 578 428 b 603 465 556 451 585 479 b 776 371 654 421 707 392 b 758 332 799 364 788 328 b 578 428 692 343 629 378 z "},"ㅏ":{"ha":0,"x_min":0,"x_max":0,"o":"m 771 243 b 754 -7 767 158 763 75 b 575 -174 742 -118 672 -174 b 401 15 464 -174 388 -110 b 403 900 436 314 436 614 b 575 1103 388 1038 464 1103 b 754 933 672 1103 742 1047 b 769 731 761 868 765 800 l 836 739 b 936 489 899 750 936 674 b 836 235 936 303 899 228 z "},"ㅐ":{"ha":0,"x_min":0,"x_max":0,"o":"m 629 336 b 613 -1 626 221 621 107 b 474 -165 606 -111 550 -165 b 340 21 386 -165 331 -101 b 343 889 365 314 367 608 b 474 1088 332 1025 386 1088 b 613 924 550 1088 606 1033 b 625 715 618 856 622 786 l 715 707 b 703 900 713 772 708 836 b 835 1103 690 1038 747 1103 b 974 933 910 1103 965 1047 b 974 -7 997 633 997 294 b 835 -174 965 -118 910 -174 b 701 15 747 -174 690 -110 b 719 344 711 125 717 235 z "},"ㅑ":{"ha":0,"x_min":0,"x_max":0,"o":"m 760 50 b 754 -7 758 31 756 11 b 575 -174 742 -118 672 -174 b 401 15 464 -174 388 -110 b 403 900 436 314 436 614 b 575 1103 388 1038 464 1103 b 754 933 672 1103 742 1047 b 757 899 756 922 756 911 l 836 906 b 936 707 899 913 936 853 b 836 507 936 560 899 500 l 776 513 b 776 435 776 486 776 461 l 836 440 b 936 242 899 446 936 388 b 836 42 936 96 899 38 z "},"ㅒ":{"ha":0,"x_min":0,"x_max":0,"o":"m 618 69 b 613 -1 617 46 614 22 b 474 -165 606 -111 550 -165 b 340 21 386 -165 331 -101 b 343 889 365 314 367 608 b 474 1088 332 1025 386 1088 b 613 924 550 1088 606 1033 b 615 892 614 913 614 903 l 704 892 b 703 900 704 894 703 897 b 835 1103 690 1038 747 1103 b 974 933 910 1103 965 1047 b 974 -7 997 633 997 294 b 835 -174 965 -118 910 -174 b 701 15 747 -174 690 -110 b 706 69 703 33 704 51 z m 721 407 b 721 556 721 457 722 506 l 629 556 b 631 407 631 506 631 457 z "},"ㅓ":{"ha":0,"x_min":0,"x_max":0,"o":"m 647 692 b 629 900 643 763 638 831 b 801 1103 614 1038 690 1103 b 981 933 900 1103 969 1047 b 981 -7 1010 633 1010 294 b 801 -174 969 -118 900 -174 b 628 15 690 -174 614 -110 b 649 286 638 106 644 196 l 428 286 b 328 486 365 286 328 339 b 428 694 328 633 365 696 z "},"ㅔ":{"ha":0,"x_min":0,"x_max":0,"o":"m 933 -174 b 800 15 846 -174 788 -110 b 801 900 826 314 826 614 b 933 1103 788 1038 846 1103 b 1072 933 1008 1103 1064 1047 b 1072 -7 1096 633 1096 294 b 933 -174 1064 -118 1008 -174 z m 496 743 b 485 889 493 792 489 840 b 617 1088 474 1025 529 1088 b 756 924 693 1088 749 1033 b 756 -1 779 628 779 294 b 617 -165 749 -111 693 -165 b 483 21 529 -165 474 -101 b 501 331 493 124 499 228 l 342 317 b 240 538 281 313 240 369 b 342 756 240 704 281 763 z "},"ㅕ":{"ha":0,"x_min":0,"x_max":0,"o":"m 639 472 b 638 558 639 501 638 529 l 449 558 b 349 711 388 558 349 589 b 449 874 349 833 388 875 l 618 869 b 615 900 617 879 617 890 b 788 1103 599 1038 675 1103 b 967 933 886 1103 954 1047 b 967 -7 996 633 996 294 b 788 -174 954 -118 886 -174 b 614 15 675 -174 599 -110 b 628 158 619 63 624 111 l 442 154 b 342 317 381 153 342 197 b 442 472 342 440 381 472 z "},"ㅖ":{"ha":0,"x_min":0,"x_max":0,"o":"m 935 -174 b 803 15 849 -174 790 -110 b 804 900 829 314 829 614 b 935 1103 790 1038 849 1103 b 1075 933 1011 1103 1065 1047 b 1075 -7 1099 633 1099 294 b 935 -174 1065 -118 1011 -174 z m 506 472 b 504 558 506 501 504 529 l 346 558 b 244 711 283 558 244 589 b 346 874 244 833 283 875 l 489 869 b 488 889 489 876 488 882 b 619 1088 476 1025 533 1088 b 758 924 696 1088 751 1033 b 758 -1 782 628 782 294 b 619 -165 751 -111 696 -165 b 486 21 533 -165 476 -101 b 496 158 490 67 493 113 l 338 154 b 236 317 276 153 236 197 b 338 472 236 440 276 472 z "},"ㅗ":{"ha":0,"x_min":0,"x_max":0,"o":"m 439 339 b 218 357 367 343 293 349 b 50 181 114 368 50 285 b 218 -24 50 51 114 -12 b 1125 -24 528 -57 817 -57 b 1294 181 1233 -12 1294 51 b 1126 357 1294 285 1233 368 b 904 339 1051 349 978 343 b 907 404 906 358 907 379 b 674 604 907 597 854 604 b 436 404 490 604 436 597 b 439 339 436 379 438 358 z "},"ㅘ":{"ha":0,"x_min":0,"x_max":0,"o":"m 1206 238 b 1189 -7 1201 154 1197 72 b 1008 -174 1178 -118 1108 -174 b 838 15 897 -174 822 -110 b 838 900 869 314 869 614 b 1008 1103 822 1038 897 1103 b 1189 933 1108 1103 1178 1047 b 1204 736 1196 869 1200 803 l 1229 739 b 1331 489 1293 750 1331 674 b 1229 235 1331 303 1293 228 z m 582 160 b 703 169 629 163 671 165 b 817 40 774 181 817 121 b 703 -121 817 -51 774 -111 b 140 -122 571 -139 265 -139 b 26 40 69 -112 26 -51 b 140 167 26 121 69 178 b 271 158 174 163 219 160 l 271 325 b 426 394 271 392 304 394 b 582 325 549 394 582 392 z "},"ㅙ":{"ha":0,"x_min":0,"x_max":0,"o":"m 989 340 b 972 -1 986 224 981 108 b 842 -165 965 -111 918 -165 b 718 21 756 -165 707 -101 b 721 889 744 314 746 608 b 842 1088 708 1025 756 1088 b 972 924 918 1088 965 1033 b 985 713 978 854 982 785 l 1047 707 b 1033 900 1044 772 1039 836 b 1156 1103 1021 1038 1068 1103 b 1286 933 1231 1103 1276 1047 b 1286 -7 1308 633 1308 294 b 1156 -174 1276 -118 1231 -174 b 1033 15 1068 -174 1019 -110 b 1051 346 1043 125 1049 236 z m 538 164 b 583 169 553 165 568 168 b 697 40 656 181 697 121 b 583 -121 697 -51 656 -111 b 140 -122 451 -139 265 -139 b 26 40 69 -112 26 -51 b 140 167 26 121 69 178 b 225 160 167 164 194 161 l 225 311 b 381 379 225 378 260 379 b 538 311 503 379 538 378 z "},"ㅚ":{"ha":0,"x_min":0,"x_max":0,"o":"m 1074 -174 b 903 15 963 -174 888 -110 b 903 900 935 314 935 614 b 1074 1103 888 1038 963 1103 b 1254 933 1174 1103 1243 1047 b 1254 -7 1283 633 1283 294 b 1074 -174 1243 -118 1174 -174 z m 624 160 b 764 169 679 163 729 165 b 876 40 836 181 876 121 b 764 -121 876 -51 836 -111 b 167 -122 632 -139 290 -139 b 54 40 94 -112 54 -51 b 167 167 54 121 94 178 b 311 158 201 163 253 160 l 311 297 b 467 367 311 364 346 367 b 624 297 589 367 624 364 z "},"ㅛ":{"ha":0,"x_min":0,"x_max":0,"o":"m 274 349 b 218 354 256 350 236 353 b 50 178 114 365 50 282 b 218 -26 50 49 114 -15 b 1125 -26 528 -60 817 -60 b 1294 178 1233 -15 1294 49 b 1126 354 1294 282 1233 365 b 1071 349 1108 353 1089 350 b 1075 411 1074 365 1075 386 b 906 553 1075 536 1049 553 b 735 411 764 553 735 536 b 743 331 735 376 738 350 b 601 331 696 329 649 329 b 610 411 607 350 610 376 b 440 553 610 536 582 553 b 269 411 299 553 269 536 b 274 349 269 386 271 365 z "},"ㅜ":{"ha":0,"x_min":0,"x_max":0,"o":"m 447 244 b 436 135 439 217 436 181 b 674 -65 436 -49 490 -65 b 907 135 854 -65 907 -49 b 896 244 907 181 904 217 b 1164 260 989 247 1079 253 b 1294 406 1247 267 1294 324 b 1165 539 1294 475 1247 546 b 179 539 857 513 475 510 b 50 406 99 547 50 475 b 179 260 50 324 99 267 b 447 244 263 253 353 247 z "},"ㅝ":{"ha":0,"x_min":0,"x_max":0,"o":"m 915 153 b 903 900 935 406 929 658 b 1074 1103 888 1038 963 1103 b 1254 933 1174 1103 1243 1047 b 1254 -7 1283 633 1283 294 b 1074 -174 1243 -118 1174 -174 b 928 -110 1010 -174 957 -153 l 774 -110 b 675 22 713 -110 675 -78 b 774 156 675 125 713 157 z m 288 176 b 181 183 244 178 207 181 b 67 311 107 189 67 233 b 181 418 67 382 107 426 b 747 419 301 407 617 407 b 868 311 821 426 868 382 b 754 185 868 233 826 190 b 625 176 721 181 676 178 l 625 -40 b 456 -147 625 -132 592 -147 b 288 -40 322 -147 288 -132 z "}}}
